M48
; DRILL file {KiCad 5.1.6-c6e7f7d~86~ubuntu18.04.1} date Fri May 15 23:15:11 2020
; FORMAT={-:-/ absolute / inch / decimal}
; #@! TF.CreationDate,2020-05-15T23:15:11+02:00
; #@! TF.GenerationSoftware,Kicad,Pcbnew,5.1.6-c6e7f7d~86~ubuntu18.04.1
; #@! TF.FileFunction,Plated,1,2,PTH
FMAT,2
INCH
T1C0.0157
T2C0.0197
T3C0.0315
T4C0.0394
T5C0.0433
T6C0.0512
T7C0.0551
T8C0.0591
T9C0.1260
%
G90
G05
T1
X4.2118Y-2.9713
X4.2118Y-3.0713
X4.2118Y-3.1713
X4.2118Y-3.2713
X4.2118Y-3.3713
X4.2118Y-3.4713
X4.26Y-3.87
X4.26Y-3.97
X4.36Y-4.67
X4.3618Y-3.0713
X4.3618Y-3.1713
X4.3618Y-3.4713
X4.3618Y-4.2713
X4.3618Y-4.7713
X4.3618Y-4.8713
X4.44Y-3.27
X4.46Y-4.27
X4.4618Y-3.9713
X4.4618Y-4.0213
X4.4618Y-4.4713
X4.56Y-4.37
X4.56Y-4.57
X4.56Y-4.67
X4.5618Y-3.0713
X4.5618Y-3.9713
X4.5868Y-3.27
X4.59Y-3.32
X4.59Y-3.52
X4.59Y-3.7213
X4.63Y-3.37
X4.63Y-3.47
X4.66Y-4.57
X4.6618Y-3.0713
X4.6618Y-3.5713
X4.6618Y-3.7213
X4.6618Y-4.8713
X4.68Y-3.27
X4.68Y-3.32
X4.68Y-3.47
X4.76Y-4.27
X4.76Y-4.37
X4.76Y-4.67
X4.7618Y-2.8713
X4.7618Y-3.0713
X4.7618Y-3.9713
X4.7618Y-5.1713
X4.86Y-3.57
X4.86Y-4.27
X4.86Y-4.67
X4.86Y-4.77
X4.8618Y-2.8713
X4.8618Y-3.9713
X4.8618Y-4.0713
X4.96Y-3.67
X4.96Y-4.37
X4.96Y-4.67
X4.9618Y-2.9713
X4.9618Y-3.1713
X4.9618Y-3.5713
X4.9618Y-4.0213
X4.9618Y-4.0713
X5.06Y-3.87
X5.06Y-3.97
X5.06Y-4.37
X5.06Y-4.77
X5.0618Y-3.0713
X5.0618Y-4.0713
X5.16Y-4.37
X5.16Y-4.77
X5.1618Y-2.9713
X5.1618Y-3.1713
X5.26Y-2.97
X5.26Y-3.17
X5.36Y-2.97
X5.36Y-5.37
X5.3618Y-5.1713
X5.3618Y-5.2713
X5.46Y-2.97
X5.46Y-4.37
X5.46Y-4.67
X5.5618Y-5.0713
X5.5618Y-5.1713
X5.5618Y-5.2713
X5.66Y-3.67
X5.66Y-3.77
X5.66Y-4.67
X5.76Y-4.67
X5.86Y-4.67
X5.96Y-4.47
X5.96Y-4.67
X6.06Y-3.67
X6.06Y-4.37
X6.06Y-4.47
X6.06Y-4.67
X6.16Y-3.77
X6.1618Y-4.2713
X6.26Y-3.47
X6.2618Y-4.2713
X6.3618Y-4.5713
X6.3618Y-5.0713
X6.3618Y-5.1213
X6.3618Y-5.1713
X6.3618Y-5.2213
X6.4618Y-4.2713
X6.5618Y-4.6713
X6.6618Y-4.6713
X6.7118Y-4.2213
X6.76Y-3.47
X6.76Y-4.77
X6.86Y-4.87
X6.8618Y-4.2213
X6.8618Y-4.4713
X6.8618Y-4.6713
X6.9618Y-4.5713
X7.0618Y-4.1213
X7.0618Y-5.2213
X7.1618Y-4.1213
X7.1618Y-4.5713
X7.2618Y-4.1213
X7.3118Y-4.7713
X7.3118Y-4.8713
X7.36Y-2.77
X7.3618Y-4.1213
X7.3618Y-4.4713
X7.4118Y-4.6713
X7.4118Y-4.7713
X7.4118Y-4.8713
X7.46Y-2.57
X7.46Y-2.67
X7.46Y-2.87
X7.51Y-4.27
X7.51Y-4.37
X7.51Y-4.47
X7.51Y-4.57
X7.51Y-4.6713
X7.5118Y-4.77
X7.56Y-2.97
X7.61Y-4.27
X7.61Y-4.37
X7.61Y-4.57
X7.6118Y-4.4713
X7.66Y-2.97
X7.71Y-4.27
X7.71Y-4.37
X7.7118Y-4.4713
X7.7118Y-4.5713
X7.76Y-2.97
X7.81Y-4.27
X7.81Y-4.37
X7.81Y-4.67
X7.81Y-4.77
X7.8118Y-4.47
X7.8118Y-4.5713
X7.86Y-2.87
X7.86Y-2.97
X7.8603Y-5.0197
X7.8615Y-3.6715
X7.8618Y-3.7213
X7.8618Y-4.9713
T2
X4.1673Y-2.5713
X4.195Y-2.5044
X4.195Y-2.6381
X4.2618Y-2.4768
X4.2618Y-2.6657
X4.3286Y-2.5044
X4.3286Y-2.6381
X4.3563Y-2.5713
X4.1673Y-5.3213
X4.195Y-5.2544
X4.195Y-5.3881
X4.2618Y-5.2268
X4.2618Y-5.4157
X4.3286Y-5.2544
X4.3286Y-5.3881
X4.3563Y-5.3213
X7.7173Y-2.5713
X7.745Y-2.5044
X7.745Y-2.6381
X7.8118Y-2.4768
X7.8118Y-2.6657
X7.8786Y-2.5044
X7.8786Y-2.6381
X7.9063Y-2.5713
X7.7173Y-5.3213
X7.745Y-5.2544
X7.745Y-5.3881
X7.8118Y-5.2268
X7.8118Y-5.4157
X7.8786Y-5.2544
X7.8786Y-5.3881
X7.9063Y-5.3213
T3
X7.3618Y-4.3731
X7.3618Y-4.57
X6.2618Y-2.9744
X6.2618Y-3.1713
X4.8618Y-4.5713
X4.8618Y-4.8713
X4.9618Y-4.5713
X4.9618Y-4.8713
X5.0618Y-4.5713
X5.0618Y-4.8713
X5.1618Y-4.5713
X5.1618Y-4.8713
X5.2618Y-4.5713
X5.2618Y-4.8713
X5.3618Y-4.5713
X5.3618Y-4.8713
X5.4618Y-4.5713
X5.4618Y-4.8713
X5.5618Y-4.5713
X5.5618Y-4.8713
X5.6618Y-4.5713
X5.6618Y-4.8713
X5.7618Y-4.5713
X5.7618Y-4.8713
X5.8618Y-4.5713
X5.8618Y-4.8713
X5.9618Y-4.5713
X5.9618Y-4.8713
X6.0618Y-4.5713
X6.0618Y-4.8713
X6.1618Y-4.5713
X6.1618Y-4.8713
X5.8118Y-5.1713
X5.8118Y-5.2697
X7.0618Y-4.5713
X7.2587Y-4.5713
X6.4618Y-2.9713
X6.5618Y-2.9713
X6.3634Y-4.6713
X6.4618Y-4.6713
X4.3618Y-3.8713
X4.3618Y-4.1713
X4.4618Y-3.8713
X4.4618Y-4.1713
X4.5618Y-3.8713
X4.5618Y-4.1713
X4.6618Y-3.8713
X4.6618Y-4.1713
X4.7618Y-3.8713
X4.7618Y-4.1713
X4.8618Y-3.8713
X4.8618Y-4.1713
X4.9618Y-3.8713
X4.9618Y-4.1713
X4.2618Y-4.2713
X4.5618Y-4.2713
X5.2618Y-4.4713
X5.3618Y-4.4713
X7.1618Y-3.5713
X7.1618Y-3.6713
X4.8618Y-2.9713
X4.8618Y-3.0713
X7.4618Y-3.2728
X7.4618Y-3.3713
X7.2618Y-3.7713
X7.2618Y-3.8713
X5.7618Y-3.5713
X5.8618Y-3.5713
X7.5616Y-2.7713
X7.66Y-2.7713
X5.1618Y-3.5713
X5.3587Y-3.5713
X6.2118Y-5.1713
X6.2118Y-5.2697
X6.1618Y-3.8713
X6.2618Y-3.8713
X6.3618Y-3.8713
X4.66Y-4.27
X4.96Y-4.27
X5.3618Y-3.1713
X5.3618Y-3.4713
X5.4618Y-3.1713
X5.4618Y-3.4713
X5.5618Y-3.1713
X5.5618Y-3.4713
X5.6618Y-3.1713
X5.6618Y-3.4713
X5.6618Y-3.8713
X5.7618Y-3.8713
X5.8618Y-3.8713
X5.96Y-2.97
X6.06Y-2.97
X6.1634Y-4.3713
X6.2618Y-4.3713
X6.96Y-4.07
X6.96Y-4.27
X7.2618Y-3.5728
X7.2618Y-3.6713
X5.7618Y-3.6713
X5.9618Y-3.6713
X6.5118Y-3.7728
X6.5118Y-3.8713
X6.3618Y-3.1713
X6.3618Y-3.4713
X6.4618Y-3.1713
X6.4618Y-3.4713
X6.5618Y-3.1713
X6.5618Y-3.4713
X6.6618Y-3.1713
X6.6618Y-3.4713
X6.0118Y-3.7728
X6.0118Y-3.8713
X6.4618Y-3.5713
X6.5618Y-3.5713
X6.5618Y-3.9713
X6.6618Y-3.9713
X5.5634Y-2.9713
X5.6618Y-2.9713
X6.7618Y-2.9713
X6.9618Y-2.9713
X6.96Y-3.4728
X6.96Y-3.5713
X7.0618Y-3.1713
X7.0618Y-3.4713
X7.1618Y-3.1713
X7.1618Y-3.4713
X7.2618Y-3.1713
X7.2618Y-3.4713
X7.3618Y-3.1713
X7.3618Y-3.4713
X5.8618Y-4.9713
X5.8618Y-5.0713
X7.6618Y-3.9713
X7.7602Y-3.9713
X5.4618Y-4.9713
X5.5602Y-4.9713
X6.3618Y-2.9713
X6.3618Y-3.0713
X7.1618Y-2.97
X7.1618Y-3.07
X5.0618Y-3.6713
X5.2587Y-3.6713
X6.1118Y-5.1728
X6.1118Y-5.2713
X5.4634Y-4.4713
X5.5618Y-4.4713
X7.2618Y-2.9728
X7.2618Y-3.0713
X4.7618Y-4.7713
X4.7618Y-4.8713
X6.6618Y-2.8213
X6.7618Y-2.8213
X6.8618Y-2.8213
X7.0618Y-4.6713
X7.1618Y-4.6713
X7.2618Y-4.6713
X7.0618Y-4.7713
X7.1618Y-4.7713
X5.76Y-3.0716
X5.76Y-3.17
X6.0118Y-5.1713
X6.0118Y-5.2697
X6.0618Y-4.9713
X6.0618Y-5.0713
X7.0618Y-4.3728
X7.0618Y-4.4713
X6.5618Y-3.0713
X6.6618Y-3.0713
X5.3618Y-4.3713
X5.9618Y-4.3713
X4.56Y-2.87
X4.6584Y-2.87
X4.8618Y-3.1744
X4.8618Y-3.3713
X5.9118Y-5.1728
X5.9118Y-5.2713
X5.1618Y-3.3713
X5.2618Y-3.3713
X6.3618Y-4.0744
X6.3618Y-4.2713
X6.5618Y-2.6213
X6.8618Y-2.6213
X5.86Y-2.97
X5.86Y-3.07
X5.1618Y-3.2713
X5.2618Y-3.2713
X7.0616Y-3.8713
X7.16Y-3.8713
X7.5618Y-2.8713
X7.5618Y-3.3713
X5.9618Y-3.5713
X6.0618Y-3.5713
X5.1618Y-3.4713
X5.2618Y-3.4713
X5.0618Y-3.1713
X5.0618Y-3.5713
X6.1618Y-4.9713
X6.1618Y-5.0713
X4.26Y-3.72
X4.3584Y-3.72
X5.7618Y-4.9713
X5.7618Y-5.0713
X4.6631Y-4.37
X4.86Y-4.37
X5.4634Y-3.6713
X5.5618Y-3.6713
X5.9618Y-4.9713
X5.9618Y-5.0713
X6.16Y-4.0716
X6.16Y-4.17
X6.2618Y-3.5713
X6.3618Y-3.5713
X6.6634Y-4.5713
X6.7618Y-4.5713
X4.2618Y-4.0728
X4.2618Y-4.1713
X7.0618Y-4.8713
X7.1618Y-4.8713
X5.6618Y-4.9713
X5.6618Y-5.0713
X5.8618Y-3.1713
X5.8618Y-3.4713
X5.9618Y-3.1713
X5.9618Y-3.4713
X6.0618Y-3.1713
X6.0618Y-3.4713
X6.1618Y-3.1713
X6.1618Y-3.4713
X6.7634Y-3.8713
X6.8618Y-3.8713
X5.4618Y-3.5713
X5.5618Y-3.5713
X7.0118Y-2.8213
X7.1118Y-2.8213
X7.3618Y-3.7728
X7.3618Y-3.8713
X6.9618Y-3.0728
X6.9618Y-3.1713
X4.9618Y-3.0731
X4.9618Y-3.27
X7.3618Y-2.5728
X7.3618Y-2.6713
X6.7618Y-3.2716
X6.7618Y-3.37
X7.3618Y-3.5713
X7.3618Y-3.6713
X5.76Y-3.27
X5.76Y-3.3684
X7.1618Y-4.3728
X7.1618Y-4.4713
X5.7118Y-5.1713
X5.7118Y-5.2697
X6.4618Y-2.5213
X6.5618Y-2.5213
X6.6618Y-2.5213
X6.6618Y-3.5713
X6.8618Y-3.5713
X4.26Y-3.62
X4.36Y-3.62
X6.2618Y-3.6713
X6.4618Y-3.6713
X5.5618Y-3.0713
X5.6618Y-3.0713
X6.8618Y-4.0713
X6.8618Y-4.3713
X4.3618Y-4.9713
X4.3618Y-5.0713
X7.0618Y-3.9713
X7.0618Y-4.2713
X7.1618Y-3.9713
X7.1618Y-4.2713
X7.2618Y-3.9713
X7.2618Y-4.2713
X7.3618Y-3.9713
X7.3618Y-4.2713
X6.3618Y-4.3713
X6.3618Y-4.4713
X6.06Y-3.07
X6.16Y-3.07
X4.46Y-3.72
X4.76Y-3.72
X6.96Y-4.67
X6.96Y-4.7684
X7.4634Y-3.9713
X7.5618Y-3.9713
X7.2618Y-4.3713
X7.2618Y-4.4713
X6.5618Y-4.4713
X6.5618Y-4.5697
X7.4634Y-3.7713
X7.5618Y-3.7713
X6.1618Y-4.4713
X6.2618Y-4.4713
X6.7618Y-3.0713
X6.7618Y-3.1713
X6.2618Y-3.2728
X6.2618Y-3.3713
X7.0618Y-3.5713
X7.0618Y-3.6713
X6.4618Y-4.0713
X6.4618Y-4.3713
X6.5618Y-4.0713
X6.5618Y-4.3713
X6.6618Y-4.0713
X6.6618Y-4.3713
X6.7618Y-4.0713
X6.7618Y-4.3713
T4
X6.3618Y-4.9713
X6.4618Y-4.9713
X7.7618Y-2.7713
X7.8618Y-2.7713
X4.465Y-4.6731
X4.5634Y-4.87
X4.6618Y-4.6731
X4.3618Y-4.3713
X4.3618Y-4.4713
X7.5618Y-2.5713
X7.5618Y-2.6713
X4.3618Y-3.2713
X4.3618Y-3.3713
X7.1618Y-4.9713
X7.2618Y-4.9713
X7.3618Y-4.9713
X4.3618Y-2.9713
X4.4618Y-2.9713
X4.5618Y-2.9713
X4.5618Y-3.1713
X4.6618Y-3.1713
X4.7618Y-3.1713
X5.5618Y-4.1213
X5.5618Y-4.2213
X5.6618Y-4.1213
X5.6618Y-4.2213
X5.7618Y-4.1213
X5.7618Y-4.2213
X5.4618Y-5.3713
X5.5618Y-5.3713
X5.6618Y-5.3713
X5.7618Y-5.3713
X5.8618Y-5.3713
X5.9618Y-5.3713
X6.0618Y-5.3713
X6.1618Y-5.3713
X4.4618Y-4.9713
X4.5618Y-4.9713
X4.6618Y-4.9713
X4.7618Y-4.9713
X4.8618Y-4.9713
X4.9618Y-4.9713
X5.0618Y-4.9713
X5.1618Y-4.9713
X5.2618Y-4.9713
X5.3618Y-4.9713
X4.5618Y-4.4713
X4.6618Y-4.4713
X4.7618Y-4.4713
X4.8618Y-4.4713
X4.9618Y-4.4713
X5.0618Y-4.4713
X5.1618Y-4.4713
X6.6618Y-4.9713
X6.7618Y-4.9713
X6.8618Y-4.9713
X6.9618Y-4.9713
T5
X7.5618Y-4.0713
X7.6618Y-4.0713
X7.7618Y-4.0713
T6
X5.026Y-2.6126
X5.0457Y-2.9
X5.2071Y-2.4591
X5.3055Y-2.7268
X5.4118Y-2.774
T8
X6.0618Y-2.6713
T9
X7.8118Y-2.5713
X7.8118Y-5.3213
X4.2618Y-2.5713
X4.2618Y-5.3213
T7
G00X5.865Y-2.6437
M15
G01X5.865Y-2.6988
M16
G05
G00X6.0343Y-2.4744
M15
G01X6.0894Y-2.4744
M16
G05
G00X6.2587Y-2.6437
M15
G01X6.2587Y-2.6988
M16
G05
T0
M30
