%TF.GenerationSoftware,KiCad,Pcbnew,5.1.6-c6e7f7d~86~ubuntu18.04.1*%
%TF.CreationDate,2020-06-24T21:19:16+02:00*%
%TF.ProjectId,pa,70612e6b-6963-4616-945f-706362585858,2*%
%TF.SameCoordinates,Original*%
%TF.FileFunction,Soldermask,Top*%
%TF.FilePolarity,Negative*%
%FSLAX46Y46*%
G04 Gerber Fmt 4.6, Leading zero omitted, Abs format (unit mm)*
G04 Created by KiCad (PCBNEW 5.1.6-c6e7f7d~86~ubuntu18.04.1) date 2020-06-24 21:19:16*
%MOMM*%
%LPD*%
G01*
G04 APERTURE LIST*
%ADD10C,1.600000*%
%ADD11C,2.600000*%
%ADD12O,2.000000X2.000000*%
%ADD13R,2.000000X2.000000*%
%ADD14R,1.600000X1.600000*%
%ADD15O,1.400000X1.400000*%
%ADD16C,1.400000*%
%ADD17C,2.000000*%
%ADD18O,1.600000X1.600000*%
%ADD19O,1.800000X1.800000*%
%ADD20R,1.800000X1.800000*%
%ADD21O,3.200000X3.200000*%
%ADD22O,1.700000X1.700000*%
%ADD23R,1.700000X1.700000*%
%ADD24C,0.800000*%
%ADD25C,6.400000*%
%ADD26O,2.400000X1.600000*%
%ADD27R,2.400000X1.600000*%
%ADD28R,1.500000X1.500000*%
%ADD29C,1.500000*%
%ADD30R,4.400000X1.800000*%
%ADD31O,4.000000X1.800000*%
%ADD32O,1.800000X4.000000*%
%ADD33O,1.600000X2.500000*%
%ADD34O,3.500000X7.000000*%
%ADD35O,2.240000X2.240000*%
%ADD36R,2.240000X2.240000*%
%ADD37C,0.254000*%
G04 APERTURE END LIST*
D10*
%TO.C,C30*%
X119240000Y-74755000D03*
X121740000Y-74755000D03*
%TD*%
D11*
%TO.C,L14*%
X139520000Y-64675000D03*
X139520000Y-69675000D03*
%TD*%
D10*
%TO.C,C31*%
X139520000Y-102695000D03*
X139520000Y-107695000D03*
%TD*%
D12*
%TO.C,D7*%
X111580000Y-79835000D03*
D13*
X111580000Y-77295000D03*
%TD*%
D12*
%TO.C,D6*%
X114120000Y-77295000D03*
D13*
X114120000Y-79835000D03*
%TD*%
D10*
%TO.C,C26*%
X137020000Y-84915000D03*
D14*
X139520000Y-84915000D03*
%TD*%
D10*
%TO.C,C28*%
X114200000Y-102695000D03*
X119200000Y-102695000D03*
%TD*%
D15*
%TO.C,R14*%
X111580000Y-95075000D03*
D16*
X111580000Y-100155000D03*
%TD*%
D17*
%TO.C,L7*%
X177620000Y-110315000D03*
X172540000Y-105235000D03*
%TD*%
%TO.C,L3*%
X172540000Y-100155000D03*
X177620000Y-95075000D03*
%TD*%
%TO.C,L5*%
X152220000Y-110315000D03*
X147140000Y-105235000D03*
%TD*%
%TO.C,L1*%
X147140000Y-100155000D03*
X152220000Y-95075000D03*
%TD*%
D10*
%TO.C,C29*%
X131860000Y-74755000D03*
X129360000Y-74755000D03*
%TD*%
%TO.C,C25*%
X129360000Y-105275000D03*
X129360000Y-110275000D03*
%TD*%
%TO.C,C21*%
X131860000Y-79835000D03*
X126860000Y-79835000D03*
%TD*%
D18*
%TO.C,R12*%
X114120000Y-82375000D03*
D10*
X121740000Y-82375000D03*
%TD*%
D18*
%TO.C,R10*%
X126820000Y-105235000D03*
D10*
X126820000Y-107775000D03*
%TD*%
D19*
%TO.C,Q5*%
X131900000Y-107775000D03*
X134440000Y-107775000D03*
D20*
X136980000Y-107775000D03*
D21*
X134440000Y-118875000D03*
%TD*%
D10*
%TO.C,C27*%
X167460000Y-74795000D03*
X167460000Y-77295000D03*
%TD*%
%TO.C,C19*%
X180160000Y-74795000D03*
X180160000Y-77295000D03*
%TD*%
%TO.C,C10*%
X154760000Y-74795000D03*
X154760000Y-77295000D03*
%TD*%
%TO.C,C1*%
X142060000Y-74795000D03*
X142060000Y-77295000D03*
%TD*%
D22*
%TO.C,J11*%
X190320000Y-62055000D03*
D23*
X190320000Y-64595000D03*
%TD*%
D24*
%TO.C,H4*%
X108197056Y-130207944D03*
X106500000Y-129505000D03*
X104802944Y-130207944D03*
X104100000Y-131905000D03*
X104802944Y-133602056D03*
X106500000Y-134305000D03*
X108197056Y-133602056D03*
X108900000Y-131905000D03*
D25*
X106500000Y-131905000D03*
%TD*%
D24*
%TO.C,H3*%
X108197056Y-60357944D03*
X106500000Y-59655000D03*
X104802944Y-60357944D03*
X104100000Y-62055000D03*
X104802944Y-63752056D03*
X106500000Y-64455000D03*
X108197056Y-63752056D03*
X108900000Y-62055000D03*
D25*
X106500000Y-62055000D03*
%TD*%
D24*
%TO.C,H2*%
X198367056Y-60357944D03*
X196670000Y-59655000D03*
X194972944Y-60357944D03*
X194270000Y-62055000D03*
X194972944Y-63752056D03*
X196670000Y-64455000D03*
X198367056Y-63752056D03*
X199070000Y-62055000D03*
D25*
X196670000Y-62055000D03*
%TD*%
D24*
%TO.C,H1*%
X198367056Y-130207944D03*
X196670000Y-129505000D03*
X194972944Y-130207944D03*
X194270000Y-131905000D03*
X194972944Y-133602056D03*
X196670000Y-134305000D03*
X198367056Y-133602056D03*
X199070000Y-131905000D03*
D25*
X196670000Y-131905000D03*
%TD*%
D26*
%TO.C,U1*%
X114120000Y-100155000D03*
X121740000Y-84915000D03*
X114120000Y-97615000D03*
X121740000Y-87455000D03*
X114120000Y-95075000D03*
X121740000Y-89995000D03*
X114120000Y-92535000D03*
X121740000Y-92535000D03*
X114120000Y-89995000D03*
X121740000Y-95075000D03*
X114120000Y-87455000D03*
X121740000Y-97615000D03*
X114120000Y-84915000D03*
D27*
X121740000Y-100155000D03*
%TD*%
D17*
%TO.C,T1*%
X136980000Y-92535000D03*
X136980000Y-89995000D03*
X131900000Y-97615000D03*
X131900000Y-100155000D03*
%TD*%
D15*
%TO.C,R16*%
X121740000Y-77295000D03*
D16*
X119200000Y-77295000D03*
%TD*%
D15*
%TO.C,R15*%
X124280000Y-112855000D03*
D16*
X124280000Y-115395000D03*
%TD*%
D15*
%TO.C,R13*%
X121740000Y-117935000D03*
D16*
X121740000Y-112855000D03*
%TD*%
D18*
%TO.C,R11*%
X164920000Y-125555000D03*
D10*
X164920000Y-128095000D03*
%TD*%
D15*
%TO.C,R9*%
X136980000Y-105235000D03*
D16*
X131900000Y-105235000D03*
%TD*%
D18*
%TO.C,R8*%
X170000000Y-128095000D03*
D10*
X170000000Y-125555000D03*
%TD*%
D15*
%TO.C,R7*%
X131900000Y-77295000D03*
D16*
X124280000Y-77295000D03*
%TD*%
D18*
%TO.C,R6*%
X182700000Y-128095000D03*
D10*
X182700000Y-125555000D03*
%TD*%
D18*
%TO.C,R5*%
X177620000Y-125555000D03*
D10*
X177620000Y-128095000D03*
%TD*%
D18*
%TO.C,R4*%
X157300000Y-128095000D03*
D10*
X157300000Y-125555000D03*
%TD*%
D18*
%TO.C,R3*%
X152220000Y-125555000D03*
D10*
X152220000Y-128095000D03*
%TD*%
D18*
%TO.C,R2*%
X144600000Y-128095000D03*
D10*
X144600000Y-125555000D03*
%TD*%
D18*
%TO.C,R1*%
X139520000Y-125555000D03*
D10*
X139520000Y-128095000D03*
%TD*%
D28*
%TO.C,Q11*%
X129360000Y-84915000D03*
D29*
X124280000Y-84915000D03*
X126820000Y-84915000D03*
%TD*%
D28*
%TO.C,Q10*%
X167460000Y-128095000D03*
D29*
X167460000Y-123015000D03*
X167460000Y-125555000D03*
%TD*%
D28*
%TO.C,Q9*%
X129360000Y-89995000D03*
D29*
X124280000Y-89995000D03*
X126820000Y-89995000D03*
%TD*%
D28*
%TO.C,Q8*%
X126820000Y-110315000D03*
D29*
X126820000Y-115395000D03*
X126820000Y-112855000D03*
%TD*%
D28*
%TO.C,Q7*%
X129360000Y-95075000D03*
D29*
X124280000Y-95075000D03*
X126820000Y-95075000D03*
%TD*%
D28*
%TO.C,Q6*%
X129360000Y-100155000D03*
D29*
X124280000Y-100155000D03*
X126820000Y-100155000D03*
%TD*%
D28*
%TO.C,Q4*%
X124280000Y-79835000D03*
D29*
X119200000Y-79835000D03*
X121740000Y-79835000D03*
%TD*%
D28*
%TO.C,Q3*%
X180160000Y-128095000D03*
D29*
X180160000Y-123015000D03*
X180160000Y-125555000D03*
%TD*%
D28*
%TO.C,Q2*%
X154760000Y-128095000D03*
D29*
X154760000Y-123015000D03*
X154760000Y-125555000D03*
%TD*%
D28*
%TO.C,Q1*%
X142060000Y-128095000D03*
D29*
X142060000Y-123015000D03*
X142060000Y-125555000D03*
%TD*%
D18*
%TO.C,L13*%
X170000000Y-62055000D03*
D10*
X170000000Y-72215000D03*
%TD*%
D17*
%TO.C,L12*%
X182700000Y-120475000D03*
X187780000Y-115395000D03*
%TD*%
%TO.C,L11*%
X170000000Y-115395000D03*
X175080000Y-120475000D03*
%TD*%
%TO.C,L10*%
X157300000Y-120475000D03*
X162380000Y-115395000D03*
%TD*%
%TO.C,L9*%
X144600000Y-115395000D03*
X149680000Y-120475000D03*
%TD*%
%TO.C,L8*%
X190320000Y-110315000D03*
X185240000Y-105235000D03*
%TD*%
%TO.C,L6*%
X164920000Y-110315000D03*
X159840000Y-105235000D03*
%TD*%
%TO.C,L4*%
X185240000Y-100155000D03*
X190320000Y-95075000D03*
%TD*%
%TO.C,L2*%
X159840000Y-100155000D03*
X164920000Y-95075000D03*
%TD*%
%TO.C,K4*%
X182700000Y-87455000D03*
X187780000Y-87455000D03*
X182700000Y-82375000D03*
D13*
X182700000Y-77295000D03*
D17*
X187780000Y-82375000D03*
X187780000Y-77295000D03*
X182700000Y-84915000D03*
X187780000Y-84915000D03*
%TD*%
%TO.C,K3*%
X170000000Y-87455000D03*
X175080000Y-87455000D03*
X170000000Y-82375000D03*
D13*
X170000000Y-77295000D03*
D17*
X175080000Y-82375000D03*
X175080000Y-77295000D03*
X170000000Y-84915000D03*
X175080000Y-84915000D03*
%TD*%
%TO.C,K2*%
X157300000Y-87455000D03*
X162380000Y-87455000D03*
X157300000Y-82375000D03*
D13*
X157300000Y-77295000D03*
D17*
X162380000Y-82375000D03*
X162380000Y-77295000D03*
X157300000Y-84915000D03*
X162380000Y-84915000D03*
%TD*%
%TO.C,K1*%
X144600000Y-87455000D03*
X149680000Y-87455000D03*
X144600000Y-82375000D03*
D13*
X144600000Y-77295000D03*
D17*
X149680000Y-82375000D03*
X149680000Y-77295000D03*
X144600000Y-84915000D03*
X149680000Y-84915000D03*
%TD*%
D22*
%TO.C,J7*%
X109040000Y-110315000D03*
D23*
X109040000Y-107775000D03*
%TD*%
D22*
%TO.C,J6*%
X109040000Y-82375000D03*
D23*
X109040000Y-79835000D03*
%TD*%
D30*
%TO.C,J3*%
X182700000Y-70945000D03*
D31*
X182700000Y-65145000D03*
D32*
X177900000Y-67945000D03*
%TD*%
D22*
%TO.C,J2*%
X154760000Y-133175000D03*
X152220000Y-133175000D03*
X149680000Y-133175000D03*
X147140000Y-133175000D03*
X144600000Y-133175000D03*
X142060000Y-133175000D03*
X139520000Y-133175000D03*
D23*
X136980000Y-133175000D03*
%TD*%
D33*
%TO.C,J1*%
X149680000Y-69675000D03*
X152220000Y-69675000D03*
D34*
X157300000Y-64595000D03*
X147140000Y-64595000D03*
%TD*%
D12*
%TO.C,D5*%
X175080000Y-74755000D03*
D13*
X170000000Y-74755000D03*
%TD*%
D35*
%TO.C,D4*%
X192860000Y-69675000D03*
D36*
X190320000Y-69675000D03*
%TD*%
D12*
%TO.C,D3*%
X187780000Y-74755000D03*
D13*
X182700000Y-74755000D03*
%TD*%
D12*
%TO.C,D2*%
X162380000Y-74755000D03*
D13*
X157300000Y-74755000D03*
%TD*%
D12*
%TO.C,D1*%
X149680000Y-74485000D03*
D13*
X144600000Y-74485000D03*
%TD*%
D10*
%TO.C,C24*%
X139520000Y-59515000D03*
X134520000Y-59515000D03*
%TD*%
%TO.C,C23*%
X134440000Y-102695000D03*
X131940000Y-102695000D03*
%TD*%
%TO.C,C22*%
X164920000Y-72215000D03*
X164920000Y-67215000D03*
%TD*%
%TO.C,C20*%
X131900000Y-87455000D03*
X131900000Y-82455000D03*
%TD*%
%TO.C,C18*%
X185200000Y-112855000D03*
X182700000Y-112855000D03*
%TD*%
%TO.C,C17*%
X172500000Y-112855000D03*
X170000000Y-112855000D03*
%TD*%
%TO.C,C16*%
X159800000Y-112855000D03*
X157300000Y-112855000D03*
%TD*%
%TO.C,C15*%
X147100000Y-112855000D03*
X144600000Y-112855000D03*
%TD*%
%TO.C,C14*%
X187820000Y-112855000D03*
X190320000Y-112855000D03*
%TD*%
%TO.C,C13*%
X175120000Y-114125000D03*
X177620000Y-114125000D03*
%TD*%
%TO.C,C12*%
X162420000Y-112855000D03*
X164920000Y-112855000D03*
%TD*%
%TO.C,C11*%
X149720000Y-114125000D03*
X152220000Y-114125000D03*
%TD*%
%TO.C,C9*%
X187740000Y-102695000D03*
X185240000Y-102695000D03*
%TD*%
%TO.C,C8*%
X177620000Y-101425000D03*
X175120000Y-101425000D03*
%TD*%
%TO.C,C7*%
X162380000Y-102695000D03*
X159880000Y-102695000D03*
%TD*%
%TO.C,C6*%
X152180000Y-101425000D03*
X149680000Y-101425000D03*
%TD*%
%TO.C,C5*%
X187820000Y-92535000D03*
X190320000Y-92535000D03*
%TD*%
%TO.C,C4*%
X175120000Y-92535000D03*
X177620000Y-92535000D03*
%TD*%
%TO.C,C3*%
X162340000Y-92535000D03*
X164840000Y-92535000D03*
%TD*%
%TO.C,C2*%
X149720000Y-92535000D03*
X152220000Y-92535000D03*
%TD*%
D37*
G36*
X201623000Y-136858000D02*
G01*
X199877000Y-136858000D01*
X199877000Y-57112000D01*
X201623000Y-57112000D01*
X201623000Y-136858000D01*
G37*
X201623000Y-136858000D02*
X199877000Y-136858000D01*
X199877000Y-57112000D01*
X201623000Y-57112000D01*
X201623000Y-136858000D01*
G36*
X103623000Y-136858000D02*
G01*
X101877000Y-136858000D01*
X101877000Y-57112000D01*
X103623000Y-57112000D01*
X103623000Y-136858000D01*
G37*
X103623000Y-136858000D02*
X101877000Y-136858000D01*
X101877000Y-57112000D01*
X103623000Y-57112000D01*
X103623000Y-136858000D01*
M02*
