%TF.GenerationSoftware,KiCad,Pcbnew,5.1.6-c6e7f7d~86~ubuntu18.04.1*%
%TF.CreationDate,2020-05-15T23:17:01+02:00*%
%TF.ProjectId,pa,70612e6b-6963-4616-945f-706362585858,rev?*%
%TF.SameCoordinates,Original*%
%TF.FileFunction,Soldermask,Top*%
%TF.FilePolarity,Negative*%
%FSLAX46Y46*%
G04 Gerber Fmt 4.6, Leading zero omitted, Abs format (unit mm)*
G04 Created by KiCad (PCBNEW 5.1.6-c6e7f7d~86~ubuntu18.04.1) date 2020-05-15 23:17:01*
%MOMM*%
%LPD*%
G01*
G04 APERTURE LIST*
%ADD10C,1.600000*%
%ADD11R,1.600000X1.600000*%
%ADD12O,1.400000X1.400000*%
%ADD13C,1.400000*%
%ADD14C,2.000000*%
%ADD15O,1.600000X1.600000*%
%ADD16O,1.800000X1.800000*%
%ADD17R,1.800000X1.800000*%
%ADD18O,3.200000X3.200000*%
%ADD19O,1.700000X1.700000*%
%ADD20R,1.700000X1.700000*%
%ADD21C,0.800000*%
%ADD22C,6.400000*%
%ADD23O,2.400000X1.600000*%
%ADD24R,2.400000X1.600000*%
%ADD25R,1.500000X1.500000*%
%ADD26C,1.500000*%
%ADD27R,2.000000X2.000000*%
%ADD28R,4.400000X1.800000*%
%ADD29O,4.000000X1.800000*%
%ADD30O,1.800000X4.000000*%
%ADD31O,1.600000X2.500000*%
%ADD32O,3.500000X7.000000*%
%ADD33O,2.000000X2.000000*%
%ADD34O,2.240000X2.240000*%
%ADD35R,2.240000X2.240000*%
%ADD36C,0.254000*%
G04 APERTURE END LIST*
D10*
%TO.C,C30*%
X92530000Y-103290000D03*
X92530000Y-100790000D03*
%TD*%
%TO.C,C26*%
X105270000Y-77930000D03*
D11*
X107770000Y-77930000D03*
%TD*%
D10*
%TO.C,C28*%
X82450000Y-95710000D03*
X87450000Y-95710000D03*
%TD*%
D12*
%TO.C,R14*%
X79830000Y-88090000D03*
D13*
X79830000Y-93170000D03*
%TD*%
D14*
%TO.C,L7*%
X145870000Y-103330000D03*
X140790000Y-98250000D03*
%TD*%
%TO.C,L3*%
X140790000Y-93170000D03*
X145870000Y-88090000D03*
%TD*%
%TO.C,L5*%
X120470000Y-103330000D03*
X115390000Y-98250000D03*
%TD*%
%TO.C,L1*%
X115390000Y-93170000D03*
X120470000Y-88090000D03*
%TD*%
D10*
%TO.C,C29*%
X100110000Y-67770000D03*
X97610000Y-67770000D03*
%TD*%
%TO.C,C25*%
X97610000Y-98290000D03*
X97610000Y-103290000D03*
%TD*%
%TO.C,C21*%
X100110000Y-72850000D03*
X95110000Y-72850000D03*
%TD*%
D15*
%TO.C,R12*%
X82370000Y-75390000D03*
D10*
X89990000Y-75390000D03*
%TD*%
D15*
%TO.C,R10*%
X95070000Y-98250000D03*
D10*
X95070000Y-100790000D03*
%TD*%
D16*
%TO.C,Q5*%
X100150000Y-100790000D03*
X102690000Y-100790000D03*
D17*
X105230000Y-100790000D03*
D18*
X102690000Y-111890000D03*
%TD*%
D10*
%TO.C,C27*%
X135710000Y-67810000D03*
X135710000Y-70310000D03*
%TD*%
%TO.C,C19*%
X148410000Y-67810000D03*
X148410000Y-70310000D03*
%TD*%
%TO.C,C10*%
X123010000Y-67810000D03*
X123010000Y-70310000D03*
%TD*%
%TO.C,C1*%
X110310000Y-67810000D03*
X110310000Y-70310000D03*
%TD*%
D19*
%TO.C,J11*%
X158570000Y-55070000D03*
D20*
X158570000Y-57610000D03*
%TD*%
D21*
%TO.C,H4*%
X76447056Y-123222944D03*
X74750000Y-122520000D03*
X73052944Y-123222944D03*
X72350000Y-124920000D03*
X73052944Y-126617056D03*
X74750000Y-127320000D03*
X76447056Y-126617056D03*
X77150000Y-124920000D03*
D22*
X74750000Y-124920000D03*
%TD*%
D21*
%TO.C,H3*%
X76447056Y-53372944D03*
X74750000Y-52670000D03*
X73052944Y-53372944D03*
X72350000Y-55070000D03*
X73052944Y-56767056D03*
X74750000Y-57470000D03*
X76447056Y-56767056D03*
X77150000Y-55070000D03*
D22*
X74750000Y-55070000D03*
%TD*%
D21*
%TO.C,H2*%
X166617056Y-53372944D03*
X164920000Y-52670000D03*
X163222944Y-53372944D03*
X162520000Y-55070000D03*
X163222944Y-56767056D03*
X164920000Y-57470000D03*
X166617056Y-56767056D03*
X167320000Y-55070000D03*
D22*
X164920000Y-55070000D03*
%TD*%
D21*
%TO.C,H1*%
X166617056Y-123222944D03*
X164920000Y-122520000D03*
X163222944Y-123222944D03*
X162520000Y-124920000D03*
X163222944Y-126617056D03*
X164920000Y-127320000D03*
X166617056Y-126617056D03*
X167320000Y-124920000D03*
D22*
X164920000Y-124920000D03*
%TD*%
D23*
%TO.C,U1*%
X82370000Y-93170000D03*
X89990000Y-77930000D03*
X82370000Y-90630000D03*
X89990000Y-80470000D03*
X82370000Y-88090000D03*
X89990000Y-83010000D03*
X82370000Y-85550000D03*
X89990000Y-85550000D03*
X82370000Y-83010000D03*
X89990000Y-88090000D03*
X82370000Y-80470000D03*
X89990000Y-90630000D03*
X82370000Y-77930000D03*
D24*
X89990000Y-93170000D03*
%TD*%
D14*
%TO.C,T1*%
X105230000Y-85550000D03*
X105230000Y-83010000D03*
X100150000Y-90630000D03*
X100150000Y-93170000D03*
%TD*%
D12*
%TO.C,R16*%
X89990000Y-70310000D03*
D13*
X87450000Y-70310000D03*
%TD*%
D12*
%TO.C,R15*%
X92530000Y-105870000D03*
D13*
X92530000Y-108410000D03*
%TD*%
D12*
%TO.C,R13*%
X89990000Y-110950000D03*
D13*
X89990000Y-105870000D03*
%TD*%
D15*
%TO.C,R11*%
X133170000Y-118570000D03*
D10*
X133170000Y-121110000D03*
%TD*%
D12*
%TO.C,R9*%
X105230000Y-98250000D03*
D13*
X100150000Y-98250000D03*
%TD*%
D15*
%TO.C,R8*%
X138250000Y-121110000D03*
D10*
X138250000Y-118570000D03*
%TD*%
D12*
%TO.C,R7*%
X100150000Y-70310000D03*
D13*
X92530000Y-70310000D03*
%TD*%
D15*
%TO.C,R6*%
X150950000Y-121110000D03*
D10*
X150950000Y-118570000D03*
%TD*%
D15*
%TO.C,R5*%
X145870000Y-118570000D03*
D10*
X145870000Y-121110000D03*
%TD*%
D15*
%TO.C,R4*%
X125550000Y-121110000D03*
D10*
X125550000Y-118570000D03*
%TD*%
D15*
%TO.C,R3*%
X120470000Y-118570000D03*
D10*
X120470000Y-121110000D03*
%TD*%
D15*
%TO.C,R2*%
X112850000Y-121110000D03*
D10*
X112850000Y-118570000D03*
%TD*%
D15*
%TO.C,R1*%
X107770000Y-118570000D03*
D10*
X107770000Y-121110000D03*
%TD*%
D25*
%TO.C,Q11*%
X97610000Y-77930000D03*
D26*
X92530000Y-77930000D03*
X95070000Y-77930000D03*
%TD*%
D25*
%TO.C,Q10*%
X135710000Y-121110000D03*
D26*
X135710000Y-116030000D03*
X135710000Y-118570000D03*
%TD*%
D25*
%TO.C,Q9*%
X97610000Y-83010000D03*
D26*
X92530000Y-83010000D03*
X95070000Y-83010000D03*
%TD*%
D25*
%TO.C,Q8*%
X95070000Y-103330000D03*
D26*
X95070000Y-108410000D03*
X95070000Y-105870000D03*
%TD*%
D25*
%TO.C,Q7*%
X97610000Y-88090000D03*
D26*
X92530000Y-88090000D03*
X95070000Y-88090000D03*
%TD*%
D25*
%TO.C,Q6*%
X97610000Y-93170000D03*
D26*
X92530000Y-93170000D03*
X95070000Y-93170000D03*
%TD*%
D25*
%TO.C,Q4*%
X92530000Y-72850000D03*
D26*
X87450000Y-72850000D03*
X89990000Y-72850000D03*
%TD*%
D25*
%TO.C,Q3*%
X148410000Y-121110000D03*
D26*
X148410000Y-116030000D03*
X148410000Y-118570000D03*
%TD*%
D25*
%TO.C,Q2*%
X123010000Y-121110000D03*
D26*
X123010000Y-116030000D03*
X123010000Y-118570000D03*
%TD*%
D25*
%TO.C,Q1*%
X110310000Y-121110000D03*
D26*
X110310000Y-116030000D03*
X110310000Y-118570000D03*
%TD*%
D15*
%TO.C,L13*%
X138250000Y-55070000D03*
D10*
X138250000Y-65230000D03*
%TD*%
D14*
%TO.C,L12*%
X150950000Y-113490000D03*
X156030000Y-108410000D03*
%TD*%
%TO.C,L11*%
X138250000Y-108410000D03*
X143330000Y-113490000D03*
%TD*%
%TO.C,L10*%
X125550000Y-113490000D03*
X130630000Y-108410000D03*
%TD*%
%TO.C,L9*%
X112850000Y-108410000D03*
X117930000Y-113490000D03*
%TD*%
%TO.C,L8*%
X158570000Y-103330000D03*
X153490000Y-98250000D03*
%TD*%
%TO.C,L6*%
X133170000Y-103330000D03*
X128090000Y-98250000D03*
%TD*%
%TO.C,L4*%
X153490000Y-93170000D03*
X158570000Y-88090000D03*
%TD*%
%TO.C,L2*%
X128090000Y-93170000D03*
X133170000Y-88090000D03*
%TD*%
%TO.C,K4*%
X150950000Y-80470000D03*
X156030000Y-80470000D03*
X150950000Y-75390000D03*
D27*
X150950000Y-70310000D03*
D14*
X156030000Y-75390000D03*
X156030000Y-70310000D03*
X150950000Y-77930000D03*
X156030000Y-77930000D03*
%TD*%
%TO.C,K3*%
X138250000Y-80470000D03*
X143330000Y-80470000D03*
X138250000Y-75390000D03*
D27*
X138250000Y-70310000D03*
D14*
X143330000Y-75390000D03*
X143330000Y-70310000D03*
X138250000Y-77930000D03*
X143330000Y-77930000D03*
%TD*%
%TO.C,K2*%
X125550000Y-80470000D03*
X130630000Y-80470000D03*
X125550000Y-75390000D03*
D27*
X125550000Y-70310000D03*
D14*
X130630000Y-75390000D03*
X130630000Y-70310000D03*
X125550000Y-77930000D03*
X130630000Y-77930000D03*
%TD*%
%TO.C,K1*%
X112850000Y-80470000D03*
X117930000Y-80470000D03*
X112850000Y-75390000D03*
D27*
X112850000Y-70310000D03*
D14*
X117930000Y-75390000D03*
X117930000Y-70310000D03*
X112850000Y-77930000D03*
X117930000Y-77930000D03*
%TD*%
D19*
%TO.C,J7*%
X77290000Y-103330000D03*
D20*
X77290000Y-100790000D03*
%TD*%
D19*
%TO.C,J6*%
X77290000Y-75390000D03*
D20*
X77290000Y-72850000D03*
%TD*%
D28*
%TO.C,J3*%
X150950000Y-63960000D03*
D29*
X150950000Y-58160000D03*
D30*
X146150000Y-60960000D03*
%TD*%
D19*
%TO.C,J2*%
X123010000Y-126190000D03*
X120470000Y-126190000D03*
X117930000Y-126190000D03*
X115390000Y-126190000D03*
X112850000Y-126190000D03*
X110310000Y-126190000D03*
X107770000Y-126190000D03*
D20*
X105230000Y-126190000D03*
%TD*%
D31*
%TO.C,J1*%
X117930000Y-62690000D03*
X120470000Y-62690000D03*
D32*
X125550000Y-57610000D03*
X115390000Y-57610000D03*
%TD*%
D33*
%TO.C,D5*%
X138250000Y-67770000D03*
D27*
X143330000Y-67770000D03*
%TD*%
D34*
%TO.C,D4*%
X161110000Y-62690000D03*
D35*
X158570000Y-62690000D03*
%TD*%
D33*
%TO.C,D3*%
X150950000Y-67770000D03*
D27*
X156030000Y-67770000D03*
%TD*%
D33*
%TO.C,D2*%
X125550000Y-67770000D03*
D27*
X130630000Y-67770000D03*
%TD*%
D33*
%TO.C,D1*%
X112850000Y-67770000D03*
D27*
X117930000Y-67770000D03*
%TD*%
D10*
%TO.C,C24*%
X107770000Y-95790000D03*
X107770000Y-100790000D03*
%TD*%
%TO.C,C23*%
X102690000Y-95710000D03*
X100190000Y-95710000D03*
%TD*%
%TO.C,C22*%
X133170000Y-65230000D03*
X133170000Y-60230000D03*
%TD*%
%TO.C,C20*%
X100150000Y-80470000D03*
X100150000Y-75470000D03*
%TD*%
%TO.C,C18*%
X153450000Y-105870000D03*
X150950000Y-105870000D03*
%TD*%
%TO.C,C17*%
X140750000Y-105870000D03*
X138250000Y-105870000D03*
%TD*%
%TO.C,C16*%
X128050000Y-105870000D03*
X125550000Y-105870000D03*
%TD*%
%TO.C,C15*%
X115350000Y-105870000D03*
X112850000Y-105870000D03*
%TD*%
%TO.C,C14*%
X156070000Y-105870000D03*
X158570000Y-105870000D03*
%TD*%
%TO.C,C13*%
X143370000Y-107140000D03*
X145870000Y-107140000D03*
%TD*%
%TO.C,C12*%
X130670000Y-105870000D03*
X133170000Y-105870000D03*
%TD*%
%TO.C,C11*%
X117970000Y-107140000D03*
X120470000Y-107140000D03*
%TD*%
%TO.C,C9*%
X155990000Y-95710000D03*
X153490000Y-95710000D03*
%TD*%
%TO.C,C8*%
X145870000Y-94440000D03*
X143370000Y-94440000D03*
%TD*%
%TO.C,C7*%
X130630000Y-95710000D03*
X128130000Y-95710000D03*
%TD*%
%TO.C,C6*%
X120430000Y-94440000D03*
X117930000Y-94440000D03*
%TD*%
%TO.C,C5*%
X156070000Y-85550000D03*
X158570000Y-85550000D03*
%TD*%
%TO.C,C4*%
X143370000Y-85550000D03*
X145870000Y-85550000D03*
%TD*%
%TO.C,C3*%
X130590000Y-85550000D03*
X133090000Y-85550000D03*
%TD*%
%TO.C,C2*%
X117970000Y-85550000D03*
X120470000Y-85550000D03*
%TD*%
D36*
G36*
X169873000Y-129873000D02*
G01*
X168127000Y-129873000D01*
X168127000Y-50127000D01*
X169873000Y-50127000D01*
X169873000Y-129873000D01*
G37*
X169873000Y-129873000D02*
X168127000Y-129873000D01*
X168127000Y-50127000D01*
X169873000Y-50127000D01*
X169873000Y-129873000D01*
G36*
X71873000Y-129873000D02*
G01*
X70127000Y-129873000D01*
X70127000Y-50127000D01*
X71873000Y-50127000D01*
X71873000Y-129873000D01*
G37*
X71873000Y-129873000D02*
X70127000Y-129873000D01*
X70127000Y-50127000D01*
X71873000Y-50127000D01*
X71873000Y-129873000D01*
M02*
