%TF.GenerationSoftware,KiCad,Pcbnew,5.1.6-c6e7f7d~86~ubuntu18.04.1*%
%TF.CreationDate,2020-06-24T21:19:16+02:00*%
%TF.ProjectId,pa,70612e6b-6963-4616-945f-706362585858,2*%
%TF.SameCoordinates,Original*%
%TF.FileFunction,Legend,Top*%
%TF.FilePolarity,Positive*%
%FSLAX46Y46*%
G04 Gerber Fmt 4.6, Leading zero omitted, Abs format (unit mm)*
G04 Created by KiCad (PCBNEW 5.1.6-c6e7f7d~86~ubuntu18.04.1) date 2020-06-24 21:19:16*
%MOMM*%
%LPD*%
G01*
G04 APERTURE LIST*
%ADD10C,0.300000*%
%ADD11C,0.120000*%
%ADD12C,0.150000*%
G04 APERTURE END LIST*
D10*
X174151428Y-60193571D02*
X173294285Y-60193571D01*
X173722857Y-60193571D02*
X173722857Y-58693571D01*
X173580000Y-58907857D01*
X173437142Y-59050714D01*
X173294285Y-59122142D01*
X174722857Y-58836428D02*
X174794285Y-58765000D01*
X174937142Y-58693571D01*
X175294285Y-58693571D01*
X175437142Y-58765000D01*
X175508571Y-58836428D01*
X175580000Y-58979285D01*
X175580000Y-59122142D01*
X175508571Y-59336428D01*
X174651428Y-60193571D01*
X175580000Y-60193571D01*
X176008571Y-58693571D02*
X176508571Y-60193571D01*
X177008571Y-58693571D01*
X193431428Y-64492857D02*
X192288571Y-64492857D01*
X192860000Y-63921428D02*
X192860000Y-65064285D01*
X192467142Y-62800000D02*
X192610000Y-62871428D01*
X192824285Y-62871428D01*
X193038571Y-62800000D01*
X193181428Y-62657142D01*
X193252857Y-62514285D01*
X193324285Y-62228571D01*
X193324285Y-62014285D01*
X193252857Y-61728571D01*
X193181428Y-61585714D01*
X193038571Y-61442857D01*
X192824285Y-61371428D01*
X192681428Y-61371428D01*
X192467142Y-61442857D01*
X192395714Y-61514285D01*
X192395714Y-62014285D01*
X192681428Y-62014285D01*
X114704285Y-63850714D02*
X114632857Y-63922142D01*
X114418571Y-63993571D01*
X114275714Y-63993571D01*
X114061428Y-63922142D01*
X113918571Y-63779285D01*
X113847142Y-63636428D01*
X113775714Y-63350714D01*
X113775714Y-63136428D01*
X113847142Y-62850714D01*
X113918571Y-62707857D01*
X114061428Y-62565000D01*
X114275714Y-62493571D01*
X114418571Y-62493571D01*
X114632857Y-62565000D01*
X114704285Y-62636428D01*
X115204285Y-62493571D02*
X115561428Y-63993571D01*
X115847142Y-62922142D01*
X116132857Y-63993571D01*
X116490000Y-62493571D01*
X117990000Y-62493571D02*
X118847142Y-62493571D01*
X118418571Y-63993571D02*
X118418571Y-62493571D01*
X120204285Y-63993571D02*
X119704285Y-63279285D01*
X119347142Y-63993571D02*
X119347142Y-62493571D01*
X119918571Y-62493571D01*
X120061428Y-62565000D01*
X120132857Y-62636428D01*
X120204285Y-62779285D01*
X120204285Y-62993571D01*
X120132857Y-63136428D01*
X120061428Y-63207857D01*
X119918571Y-63279285D01*
X119347142Y-63279285D01*
X120704285Y-62493571D02*
X121704285Y-63993571D01*
X121704285Y-62493571D02*
X120704285Y-63993571D01*
X123418571Y-63422142D02*
X124561428Y-63422142D01*
X126418571Y-63993571D02*
X126418571Y-62493571D01*
X126990000Y-62493571D01*
X127132857Y-62565000D01*
X127204285Y-62636428D01*
X127275714Y-62779285D01*
X127275714Y-62993571D01*
X127204285Y-63136428D01*
X127132857Y-63207857D01*
X126990000Y-63279285D01*
X126418571Y-63279285D01*
X127847142Y-63565000D02*
X128561428Y-63565000D01*
X127704285Y-63993571D02*
X128204285Y-62493571D01*
X128704285Y-63993571D01*
X115490000Y-65972142D02*
X116632857Y-65972142D01*
X119347142Y-66543571D02*
X118847142Y-65829285D01*
X118490000Y-66543571D02*
X118490000Y-65043571D01*
X119061428Y-65043571D01*
X119204285Y-65115000D01*
X119275714Y-65186428D01*
X119347142Y-65329285D01*
X119347142Y-65543571D01*
X119275714Y-65686428D01*
X119204285Y-65757857D01*
X119061428Y-65829285D01*
X118490000Y-65829285D01*
X120561428Y-66472142D02*
X120418571Y-66543571D01*
X120132857Y-66543571D01*
X119990000Y-66472142D01*
X119918571Y-66329285D01*
X119918571Y-65757857D01*
X119990000Y-65615000D01*
X120132857Y-65543571D01*
X120418571Y-65543571D01*
X120561428Y-65615000D01*
X120632857Y-65757857D01*
X120632857Y-65900714D01*
X119918571Y-66043571D01*
X121132857Y-65543571D02*
X121490000Y-66543571D01*
X121847142Y-65543571D01*
X122418571Y-66400714D02*
X122490000Y-66472142D01*
X122418571Y-66543571D01*
X122347142Y-66472142D01*
X122418571Y-66400714D01*
X122418571Y-66543571D01*
X124204285Y-65186428D02*
X124275714Y-65115000D01*
X124418571Y-65043571D01*
X124775714Y-65043571D01*
X124918571Y-65115000D01*
X124990000Y-65186428D01*
X125061428Y-65329285D01*
X125061428Y-65472142D01*
X124990000Y-65686428D01*
X124132857Y-66543571D01*
X125061428Y-66543571D01*
X126847142Y-65972142D02*
X127990000Y-65972142D01*
X112490000Y-69665000D02*
X112418571Y-69593571D01*
X112275714Y-69379285D01*
X112204285Y-69236428D01*
X112132857Y-69022142D01*
X112061428Y-68665000D01*
X112061428Y-68379285D01*
X112132857Y-68022142D01*
X112204285Y-67807857D01*
X112275714Y-67665000D01*
X112418571Y-67450714D01*
X112490000Y-67379285D01*
X113704285Y-69022142D02*
X113561428Y-69093571D01*
X113275714Y-69093571D01*
X113132857Y-69022142D01*
X113061428Y-68950714D01*
X112990000Y-68807857D01*
X112990000Y-68379285D01*
X113061428Y-68236428D01*
X113132857Y-68165000D01*
X113275714Y-68093571D01*
X113561428Y-68093571D01*
X113704285Y-68165000D01*
X114204285Y-69665000D02*
X114275714Y-69593571D01*
X114418571Y-69379285D01*
X114490000Y-69236428D01*
X114561428Y-69022142D01*
X114632857Y-68665000D01*
X114632857Y-68379285D01*
X114561428Y-68022142D01*
X114490000Y-67807857D01*
X114418571Y-67665000D01*
X114275714Y-67450714D01*
X114204285Y-67379285D01*
X116418571Y-67736428D02*
X116490000Y-67665000D01*
X116632857Y-67593571D01*
X116990000Y-67593571D01*
X117132857Y-67665000D01*
X117204285Y-67736428D01*
X117275714Y-67879285D01*
X117275714Y-68022142D01*
X117204285Y-68236428D01*
X116347142Y-69093571D01*
X117275714Y-69093571D01*
X118204285Y-67593571D02*
X118347142Y-67593571D01*
X118490000Y-67665000D01*
X118561428Y-67736428D01*
X118632857Y-67879285D01*
X118704285Y-68165000D01*
X118704285Y-68522142D01*
X118632857Y-68807857D01*
X118561428Y-68950714D01*
X118490000Y-69022142D01*
X118347142Y-69093571D01*
X118204285Y-69093571D01*
X118061428Y-69022142D01*
X117990000Y-68950714D01*
X117918571Y-68807857D01*
X117847142Y-68522142D01*
X117847142Y-68165000D01*
X117918571Y-67879285D01*
X117990000Y-67736428D01*
X118061428Y-67665000D01*
X118204285Y-67593571D01*
X119275714Y-67736428D02*
X119347142Y-67665000D01*
X119490000Y-67593571D01*
X119847142Y-67593571D01*
X119990000Y-67665000D01*
X120061428Y-67736428D01*
X120132857Y-67879285D01*
X120132857Y-68022142D01*
X120061428Y-68236428D01*
X119204285Y-69093571D01*
X120132857Y-69093571D01*
X121061428Y-67593571D02*
X121204285Y-67593571D01*
X121347142Y-67665000D01*
X121418571Y-67736428D01*
X121490000Y-67879285D01*
X121561428Y-68165000D01*
X121561428Y-68522142D01*
X121490000Y-68807857D01*
X121418571Y-68950714D01*
X121347142Y-69022142D01*
X121204285Y-69093571D01*
X121061428Y-69093571D01*
X120918571Y-69022142D01*
X120847142Y-68950714D01*
X120775714Y-68807857D01*
X120704285Y-68522142D01*
X120704285Y-68165000D01*
X120775714Y-67879285D01*
X120847142Y-67736428D01*
X120918571Y-67665000D01*
X121061428Y-67593571D01*
X123347142Y-69093571D02*
X123347142Y-67593571D01*
X123704285Y-67593571D01*
X123918571Y-67665000D01*
X124061428Y-67807857D01*
X124132857Y-67950714D01*
X124204285Y-68236428D01*
X124204285Y-68450714D01*
X124132857Y-68736428D01*
X124061428Y-68879285D01*
X123918571Y-69022142D01*
X123704285Y-69093571D01*
X123347142Y-69093571D01*
X124847142Y-69093571D02*
X124847142Y-67593571D01*
X125347142Y-68665000D01*
X125847142Y-67593571D01*
X125847142Y-69093571D01*
X126418571Y-67593571D02*
X127347142Y-67593571D01*
X126847142Y-68165000D01*
X127061428Y-68165000D01*
X127204285Y-68236428D01*
X127275714Y-68307857D01*
X127347142Y-68450714D01*
X127347142Y-68807857D01*
X127275714Y-68950714D01*
X127204285Y-69022142D01*
X127061428Y-69093571D01*
X126632857Y-69093571D01*
X126490000Y-69022142D01*
X126418571Y-68950714D01*
X127990000Y-69093571D02*
X127990000Y-67593571D01*
X128490000Y-68665000D01*
X128990000Y-67593571D01*
X128990000Y-69093571D01*
X129632857Y-68665000D02*
X130347142Y-68665000D01*
X129490000Y-69093571D02*
X129990000Y-67593571D01*
X130490000Y-69093571D01*
X130775714Y-67593571D02*
X131632857Y-67593571D01*
X131204285Y-69093571D02*
X131204285Y-67593571D01*
X136123571Y-130277857D02*
X136123571Y-130992142D01*
X136837857Y-131063571D01*
X136766428Y-130992142D01*
X136695000Y-130849285D01*
X136695000Y-130492142D01*
X136766428Y-130349285D01*
X136837857Y-130277857D01*
X136980714Y-130206428D01*
X137337857Y-130206428D01*
X137480714Y-130277857D01*
X137552142Y-130349285D01*
X137623571Y-130492142D01*
X137623571Y-130849285D01*
X137552142Y-130992142D01*
X137480714Y-131063571D01*
X138745000Y-130242142D02*
X138673571Y-130385000D01*
X138673571Y-130599285D01*
X138745000Y-130813571D01*
X138887857Y-130956428D01*
X139030714Y-131027857D01*
X139316428Y-131099285D01*
X139530714Y-131099285D01*
X139816428Y-131027857D01*
X139959285Y-130956428D01*
X140102142Y-130813571D01*
X140173571Y-130599285D01*
X140173571Y-130456428D01*
X140102142Y-130242142D01*
X140030714Y-130170714D01*
X139530714Y-130170714D01*
X139530714Y-130456428D01*
X141223571Y-131063571D02*
X141223571Y-130206428D01*
X142723571Y-130635000D02*
X141223571Y-130635000D01*
X145273571Y-131027857D02*
X143773571Y-131027857D01*
X145273571Y-130170714D02*
X144416428Y-130813571D01*
X143773571Y-130170714D02*
X144630714Y-131027857D01*
X147823571Y-130206428D02*
X147823571Y-131063571D01*
X147823571Y-130635000D02*
X146323571Y-130635000D01*
X146537857Y-130777857D01*
X146680714Y-130920714D01*
X146752142Y-131063571D01*
X149016428Y-131063571D02*
X148945000Y-130992142D01*
X148873571Y-130849285D01*
X148873571Y-130492142D01*
X148945000Y-130349285D01*
X149016428Y-130277857D01*
X149159285Y-130206428D01*
X149302142Y-130206428D01*
X149516428Y-130277857D01*
X150373571Y-131135000D01*
X150373571Y-130206428D01*
X151923571Y-130349285D02*
X152923571Y-130349285D01*
X151352142Y-130706428D02*
X152423571Y-131063571D01*
X152423571Y-130135000D01*
X154616428Y-130777857D02*
X154545000Y-130920714D01*
X154473571Y-130992142D01*
X154330714Y-131063571D01*
X154259285Y-131063571D01*
X154116428Y-130992142D01*
X154045000Y-130920714D01*
X153973571Y-130777857D01*
X153973571Y-130492142D01*
X154045000Y-130349285D01*
X154116428Y-130277857D01*
X154259285Y-130206428D01*
X154330714Y-130206428D01*
X154473571Y-130277857D01*
X154545000Y-130349285D01*
X154616428Y-130492142D01*
X154616428Y-130777857D01*
X154687857Y-130920714D01*
X154759285Y-130992142D01*
X154902142Y-131063571D01*
X155187857Y-131063571D01*
X155330714Y-130992142D01*
X155402142Y-130920714D01*
X155473571Y-130777857D01*
X155473571Y-130492142D01*
X155402142Y-130349285D01*
X155330714Y-130277857D01*
X155187857Y-130206428D01*
X154902142Y-130206428D01*
X154759285Y-130277857D01*
X154687857Y-130349285D01*
X154616428Y-130492142D01*
X111707142Y-106948571D02*
X112564285Y-106948571D01*
X112135714Y-108448571D02*
X112135714Y-106948571D01*
X112921428Y-106948571D02*
X113921428Y-108448571D01*
X113921428Y-106948571D02*
X112921428Y-108448571D01*
X111707142Y-109570000D02*
X111564285Y-109498571D01*
X111350000Y-109498571D01*
X111135714Y-109570000D01*
X110992857Y-109712857D01*
X110921428Y-109855714D01*
X110850000Y-110141428D01*
X110850000Y-110355714D01*
X110921428Y-110641428D01*
X110992857Y-110784285D01*
X111135714Y-110927142D01*
X111350000Y-110998571D01*
X111492857Y-110998571D01*
X111707142Y-110927142D01*
X111778571Y-110855714D01*
X111778571Y-110355714D01*
X111492857Y-110355714D01*
X112421428Y-110998571D02*
X112421428Y-109498571D01*
X113278571Y-110998571D01*
X113278571Y-109498571D01*
X113992857Y-110998571D02*
X113992857Y-109498571D01*
X114350000Y-109498571D01*
X114564285Y-109570000D01*
X114707142Y-109712857D01*
X114778571Y-109855714D01*
X114850000Y-110141428D01*
X114850000Y-110355714D01*
X114778571Y-110641428D01*
X114707142Y-110784285D01*
X114564285Y-110927142D01*
X114350000Y-110998571D01*
X113992857Y-110998571D01*
X105615000Y-80508571D02*
X105115000Y-79794285D01*
X104757857Y-80508571D02*
X104757857Y-79008571D01*
X105329285Y-79008571D01*
X105472142Y-79080000D01*
X105543571Y-79151428D01*
X105615000Y-79294285D01*
X105615000Y-79508571D01*
X105543571Y-79651428D01*
X105472142Y-79722857D01*
X105329285Y-79794285D01*
X104757857Y-79794285D01*
X106115000Y-79008571D02*
X107115000Y-80508571D01*
X107115000Y-79008571D02*
X106115000Y-80508571D01*
X104722142Y-81630000D02*
X104579285Y-81558571D01*
X104365000Y-81558571D01*
X104150714Y-81630000D01*
X104007857Y-81772857D01*
X103936428Y-81915714D01*
X103865000Y-82201428D01*
X103865000Y-82415714D01*
X103936428Y-82701428D01*
X104007857Y-82844285D01*
X104150714Y-82987142D01*
X104365000Y-83058571D01*
X104507857Y-83058571D01*
X104722142Y-82987142D01*
X104793571Y-82915714D01*
X104793571Y-82415714D01*
X104507857Y-82415714D01*
X105436428Y-83058571D02*
X105436428Y-81558571D01*
X106293571Y-83058571D01*
X106293571Y-81558571D01*
X107007857Y-83058571D02*
X107007857Y-81558571D01*
X107365000Y-81558571D01*
X107579285Y-81630000D01*
X107722142Y-81772857D01*
X107793571Y-81915714D01*
X107865000Y-82201428D01*
X107865000Y-82415714D01*
X107793571Y-82701428D01*
X107722142Y-82844285D01*
X107579285Y-82987142D01*
X107365000Y-83058571D01*
X107007857Y-83058571D01*
D11*
%TO.C,C30*%
X118870000Y-73700000D02*
X118870000Y-73635000D01*
X118870000Y-75875000D02*
X118870000Y-75810000D01*
X122110000Y-73700000D02*
X122110000Y-73635000D01*
X122110000Y-75875000D02*
X122110000Y-75810000D01*
X122110000Y-73635000D02*
X118870000Y-73635000D01*
X122110000Y-75875000D02*
X118870000Y-75875000D01*
%TO.C,L14*%
X143990000Y-67175000D02*
G75*
G03*
X143990000Y-67175000I-4470000J0D01*
G01*
%TO.C,C31*%
X138150000Y-107665000D02*
X138150000Y-102725000D01*
X140890000Y-107665000D02*
X140890000Y-102725000D01*
X138150000Y-107665000D02*
X138465000Y-107665000D01*
X140575000Y-107665000D02*
X140890000Y-107665000D01*
X138150000Y-102725000D02*
X138465000Y-102725000D01*
X140575000Y-102725000D02*
X140890000Y-102725000D01*
%TO.C,D7*%
X110512019Y-78446253D02*
G75*
G02*
X112580000Y-78505772I1067981J1151253D01*
G01*
%TO.C,D6*%
X115187981Y-78683747D02*
G75*
G02*
X113120000Y-78624228I-1067981J-1151253D01*
G01*
%TO.C,C26*%
X141455241Y-87069000D02*
X141455241Y-86439000D01*
X141770241Y-86754000D02*
X141140241Y-86754000D01*
X135029000Y-85317000D02*
X135029000Y-84513000D01*
X135069000Y-85548000D02*
X135069000Y-84282000D01*
X135109000Y-85717000D02*
X135109000Y-84113000D01*
X135149000Y-85855000D02*
X135149000Y-83975000D01*
X135189000Y-85974000D02*
X135189000Y-83856000D01*
X135229000Y-86080000D02*
X135229000Y-83750000D01*
X135269000Y-86177000D02*
X135269000Y-83653000D01*
X135309000Y-86265000D02*
X135309000Y-83565000D01*
X135349000Y-86347000D02*
X135349000Y-83483000D01*
X135389000Y-86424000D02*
X135389000Y-83406000D01*
X135429000Y-86496000D02*
X135429000Y-83334000D01*
X135469000Y-86565000D02*
X135469000Y-83265000D01*
X135509000Y-86629000D02*
X135509000Y-83201000D01*
X135549000Y-86691000D02*
X135549000Y-83139000D01*
X135589000Y-86749000D02*
X135589000Y-83081000D01*
X135629000Y-86805000D02*
X135629000Y-83025000D01*
X135669000Y-86859000D02*
X135669000Y-82971000D01*
X135709000Y-86910000D02*
X135709000Y-82920000D01*
X135749000Y-86959000D02*
X135749000Y-82871000D01*
X135789000Y-87007000D02*
X135789000Y-82823000D01*
X135829000Y-87052000D02*
X135829000Y-82778000D01*
X135869000Y-87097000D02*
X135869000Y-82733000D01*
X135909000Y-87139000D02*
X135909000Y-82691000D01*
X135949000Y-87180000D02*
X135949000Y-82650000D01*
X135989000Y-83875000D02*
X135989000Y-82610000D01*
X135989000Y-87220000D02*
X135989000Y-85955000D01*
X136029000Y-83875000D02*
X136029000Y-82572000D01*
X136029000Y-87258000D02*
X136029000Y-85955000D01*
X136069000Y-83875000D02*
X136069000Y-82535000D01*
X136069000Y-87295000D02*
X136069000Y-85955000D01*
X136109000Y-83875000D02*
X136109000Y-82499000D01*
X136109000Y-87331000D02*
X136109000Y-85955000D01*
X136149000Y-83875000D02*
X136149000Y-82465000D01*
X136149000Y-87365000D02*
X136149000Y-85955000D01*
X136189000Y-83875000D02*
X136189000Y-82431000D01*
X136189000Y-87399000D02*
X136189000Y-85955000D01*
X136229000Y-83875000D02*
X136229000Y-82399000D01*
X136229000Y-87431000D02*
X136229000Y-85955000D01*
X136269000Y-83875000D02*
X136269000Y-82367000D01*
X136269000Y-87463000D02*
X136269000Y-85955000D01*
X136309000Y-83875000D02*
X136309000Y-82337000D01*
X136309000Y-87493000D02*
X136309000Y-85955000D01*
X136349000Y-83875000D02*
X136349000Y-82308000D01*
X136349000Y-87522000D02*
X136349000Y-85955000D01*
X136389000Y-83875000D02*
X136389000Y-82279000D01*
X136389000Y-87551000D02*
X136389000Y-85955000D01*
X136429000Y-83875000D02*
X136429000Y-82251000D01*
X136429000Y-87579000D02*
X136429000Y-85955000D01*
X136469000Y-83875000D02*
X136469000Y-82225000D01*
X136469000Y-87605000D02*
X136469000Y-85955000D01*
X136509000Y-83875000D02*
X136509000Y-82199000D01*
X136509000Y-87631000D02*
X136509000Y-85955000D01*
X136549000Y-83875000D02*
X136549000Y-82173000D01*
X136549000Y-87657000D02*
X136549000Y-85955000D01*
X136589000Y-83875000D02*
X136589000Y-82149000D01*
X136589000Y-87681000D02*
X136589000Y-85955000D01*
X136629000Y-83875000D02*
X136629000Y-82125000D01*
X136629000Y-87705000D02*
X136629000Y-85955000D01*
X136669000Y-83875000D02*
X136669000Y-82103000D01*
X136669000Y-87727000D02*
X136669000Y-85955000D01*
X136709000Y-83875000D02*
X136709000Y-82081000D01*
X136709000Y-87749000D02*
X136709000Y-85955000D01*
X136749000Y-83875000D02*
X136749000Y-82059000D01*
X136749000Y-87771000D02*
X136749000Y-85955000D01*
X136789000Y-83875000D02*
X136789000Y-82039000D01*
X136789000Y-87791000D02*
X136789000Y-85955000D01*
X136829000Y-83875000D02*
X136829000Y-82019000D01*
X136829000Y-87811000D02*
X136829000Y-85955000D01*
X136869000Y-83875000D02*
X136869000Y-81999000D01*
X136869000Y-87831000D02*
X136869000Y-85955000D01*
X136909000Y-83875000D02*
X136909000Y-81981000D01*
X136909000Y-87849000D02*
X136909000Y-85955000D01*
X136949000Y-83875000D02*
X136949000Y-81963000D01*
X136949000Y-87867000D02*
X136949000Y-85955000D01*
X136989000Y-83875000D02*
X136989000Y-81945000D01*
X136989000Y-87885000D02*
X136989000Y-85955000D01*
X137029000Y-83875000D02*
X137029000Y-81929000D01*
X137029000Y-87901000D02*
X137029000Y-85955000D01*
X137069000Y-83875000D02*
X137069000Y-81913000D01*
X137069000Y-87917000D02*
X137069000Y-85955000D01*
X137109000Y-83875000D02*
X137109000Y-81897000D01*
X137109000Y-87933000D02*
X137109000Y-85955000D01*
X137149000Y-83875000D02*
X137149000Y-81882000D01*
X137149000Y-87948000D02*
X137149000Y-85955000D01*
X137189000Y-83875000D02*
X137189000Y-81868000D01*
X137189000Y-87962000D02*
X137189000Y-85955000D01*
X137229000Y-83875000D02*
X137229000Y-81854000D01*
X137229000Y-87976000D02*
X137229000Y-85955000D01*
X137269000Y-83875000D02*
X137269000Y-81841000D01*
X137269000Y-87989000D02*
X137269000Y-85955000D01*
X137309000Y-83875000D02*
X137309000Y-81829000D01*
X137309000Y-88001000D02*
X137309000Y-85955000D01*
X137349000Y-83875000D02*
X137349000Y-81817000D01*
X137349000Y-88013000D02*
X137349000Y-85955000D01*
X137389000Y-83875000D02*
X137389000Y-81805000D01*
X137389000Y-88025000D02*
X137389000Y-85955000D01*
X137429000Y-83875000D02*
X137429000Y-81794000D01*
X137429000Y-88036000D02*
X137429000Y-85955000D01*
X137469000Y-83875000D02*
X137469000Y-81784000D01*
X137469000Y-88046000D02*
X137469000Y-85955000D01*
X137509000Y-83875000D02*
X137509000Y-81774000D01*
X137509000Y-88056000D02*
X137509000Y-85955000D01*
X137549000Y-83875000D02*
X137549000Y-81765000D01*
X137549000Y-88065000D02*
X137549000Y-85955000D01*
X137590000Y-83875000D02*
X137590000Y-81756000D01*
X137590000Y-88074000D02*
X137590000Y-85955000D01*
X137630000Y-83875000D02*
X137630000Y-81748000D01*
X137630000Y-88082000D02*
X137630000Y-85955000D01*
X137670000Y-83875000D02*
X137670000Y-81740000D01*
X137670000Y-88090000D02*
X137670000Y-85955000D01*
X137710000Y-83875000D02*
X137710000Y-81733000D01*
X137710000Y-88097000D02*
X137710000Y-85955000D01*
X137750000Y-83875000D02*
X137750000Y-81726000D01*
X137750000Y-88104000D02*
X137750000Y-85955000D01*
X137790000Y-83875000D02*
X137790000Y-81720000D01*
X137790000Y-88110000D02*
X137790000Y-85955000D01*
X137830000Y-83875000D02*
X137830000Y-81714000D01*
X137830000Y-88116000D02*
X137830000Y-85955000D01*
X137870000Y-83875000D02*
X137870000Y-81709000D01*
X137870000Y-88121000D02*
X137870000Y-85955000D01*
X137910000Y-83875000D02*
X137910000Y-81704000D01*
X137910000Y-88126000D02*
X137910000Y-85955000D01*
X137950000Y-83875000D02*
X137950000Y-81700000D01*
X137950000Y-88130000D02*
X137950000Y-85955000D01*
X137990000Y-83875000D02*
X137990000Y-81697000D01*
X137990000Y-88133000D02*
X137990000Y-85955000D01*
X138030000Y-83875000D02*
X138030000Y-81693000D01*
X138030000Y-88137000D02*
X138030000Y-85955000D01*
X138070000Y-88139000D02*
X138070000Y-81691000D01*
X138110000Y-88142000D02*
X138110000Y-81688000D01*
X138150000Y-88143000D02*
X138150000Y-81687000D01*
X138190000Y-88145000D02*
X138190000Y-81685000D01*
X138230000Y-88145000D02*
X138230000Y-81685000D01*
X138270000Y-88145000D02*
X138270000Y-81685000D01*
X141540000Y-84915000D02*
G75*
G03*
X141540000Y-84915000I-3270000J0D01*
G01*
%TO.C,C28*%
X114430000Y-101640000D02*
X114430000Y-101625000D01*
X114430000Y-103765000D02*
X114430000Y-103750000D01*
X118970000Y-101640000D02*
X118970000Y-101625000D01*
X118970000Y-103765000D02*
X118970000Y-103750000D01*
X118970000Y-101625000D02*
X114430000Y-101625000D01*
X118970000Y-103765000D02*
X114430000Y-103765000D01*
%TO.C,R14*%
X112500000Y-99535000D02*
X112500000Y-95695000D01*
X110660000Y-99535000D02*
X110660000Y-95695000D01*
%TO.C,L7*%
X172460000Y-102655000D02*
X177700000Y-102655000D01*
X172460000Y-112895000D02*
X177700000Y-112895000D01*
X177700000Y-109045000D02*
X177700000Y-102655000D01*
X177700000Y-112895000D02*
X177700000Y-111585000D01*
X172460000Y-103965000D02*
X172460000Y-102655000D01*
X172460000Y-112895000D02*
X172463800Y-106505000D01*
%TO.C,L3*%
X180200000Y-94995000D02*
X180200000Y-100235000D01*
X169960000Y-94995000D02*
X169960000Y-100235000D01*
X173810000Y-100235000D02*
X180200000Y-100235000D01*
X169960000Y-100235000D02*
X171270000Y-100235000D01*
X178890000Y-94995000D02*
X180200000Y-94995000D01*
X169960000Y-94995000D02*
X176350000Y-94998800D01*
%TO.C,L5*%
X147060000Y-102655000D02*
X152300000Y-102655000D01*
X147060000Y-112895000D02*
X152300000Y-112895000D01*
X152300000Y-109045000D02*
X152300000Y-102655000D01*
X152300000Y-112895000D02*
X152300000Y-111585000D01*
X147060000Y-103965000D02*
X147060000Y-102655000D01*
X147060000Y-112895000D02*
X147063800Y-106505000D01*
%TO.C,L1*%
X154800000Y-94995000D02*
X154800000Y-100235000D01*
X144560000Y-94995000D02*
X144560000Y-100235000D01*
X148410000Y-100235000D02*
X154800000Y-100235000D01*
X144560000Y-100235000D02*
X145870000Y-100235000D01*
X153490000Y-94995000D02*
X154800000Y-94995000D01*
X144560000Y-94995000D02*
X150950000Y-94998800D01*
%TO.C,C29*%
X132230000Y-75810000D02*
X132230000Y-75875000D01*
X132230000Y-73635000D02*
X132230000Y-73700000D01*
X128990000Y-75810000D02*
X128990000Y-75875000D01*
X128990000Y-73635000D02*
X128990000Y-73700000D01*
X128990000Y-75875000D02*
X132230000Y-75875000D01*
X128990000Y-73635000D02*
X132230000Y-73635000D01*
%TO.C,C25*%
X130415000Y-105505000D02*
X130430000Y-105505000D01*
X128290000Y-105505000D02*
X128305000Y-105505000D01*
X130415000Y-110045000D02*
X130430000Y-110045000D01*
X128290000Y-110045000D02*
X128305000Y-110045000D01*
X130430000Y-110045000D02*
X130430000Y-105505000D01*
X128290000Y-110045000D02*
X128290000Y-105505000D01*
%TO.C,C21*%
X131630000Y-80890000D02*
X131630000Y-80905000D01*
X131630000Y-78765000D02*
X131630000Y-78780000D01*
X127090000Y-80890000D02*
X127090000Y-80905000D01*
X127090000Y-78765000D02*
X127090000Y-78780000D01*
X127090000Y-80905000D02*
X131630000Y-80905000D01*
X127090000Y-78765000D02*
X131630000Y-78765000D01*
%TO.C,R12*%
X114660000Y-81005000D02*
X114660000Y-81335000D01*
X121200000Y-81005000D02*
X114660000Y-81005000D01*
X121200000Y-81335000D02*
X121200000Y-81005000D01*
X114660000Y-83745000D02*
X114660000Y-83415000D01*
X121200000Y-83745000D02*
X114660000Y-83745000D01*
X121200000Y-83415000D02*
X121200000Y-83745000D01*
%TO.C,R10*%
X126820000Y-106405000D02*
X126820000Y-106335000D01*
X128190000Y-107775000D02*
G75*
G03*
X128190000Y-107775000I-1370000J0D01*
G01*
%TO.C,Q5*%
X131900000Y-111655000D02*
X131900000Y-108841000D01*
X134440000Y-111655000D02*
X134440000Y-108841000D01*
X136980000Y-111655000D02*
X136980000Y-108825000D01*
X130320000Y-122895000D02*
X130320000Y-111655000D01*
X138560000Y-122895000D02*
X138560000Y-111655000D01*
X138560000Y-122895000D02*
X130320000Y-122895000D01*
X138560000Y-111655000D02*
X130320000Y-111655000D01*
%TO.C,C27*%
X168515000Y-74425000D02*
X168580000Y-74425000D01*
X166340000Y-74425000D02*
X166405000Y-74425000D01*
X168515000Y-77665000D02*
X168580000Y-77665000D01*
X166340000Y-77665000D02*
X166405000Y-77665000D01*
X168580000Y-77665000D02*
X168580000Y-74425000D01*
X166340000Y-77665000D02*
X166340000Y-74425000D01*
%TO.C,C19*%
X181215000Y-74425000D02*
X181280000Y-74425000D01*
X179040000Y-74425000D02*
X179105000Y-74425000D01*
X181215000Y-77665000D02*
X181280000Y-77665000D01*
X179040000Y-77665000D02*
X179105000Y-77665000D01*
X181280000Y-77665000D02*
X181280000Y-74425000D01*
X179040000Y-77665000D02*
X179040000Y-74425000D01*
%TO.C,C10*%
X155815000Y-74425000D02*
X155880000Y-74425000D01*
X153640000Y-74425000D02*
X153705000Y-74425000D01*
X155815000Y-77665000D02*
X155880000Y-77665000D01*
X153640000Y-77665000D02*
X153705000Y-77665000D01*
X155880000Y-77665000D02*
X155880000Y-74425000D01*
X153640000Y-77665000D02*
X153640000Y-74425000D01*
%TO.C,C1*%
X143115000Y-74425000D02*
X143180000Y-74425000D01*
X140940000Y-74425000D02*
X141005000Y-74425000D01*
X143115000Y-77665000D02*
X143180000Y-77665000D01*
X140940000Y-77665000D02*
X141005000Y-77665000D01*
X143180000Y-77665000D02*
X143180000Y-74425000D01*
X140940000Y-77665000D02*
X140940000Y-74425000D01*
%TO.C,J11*%
X190320000Y-65925000D02*
X188990000Y-65925000D01*
X188990000Y-65925000D02*
X188990000Y-64595000D01*
X188990000Y-63325000D02*
X188990000Y-60725000D01*
X191650000Y-60725000D02*
X188990000Y-60725000D01*
X191650000Y-63325000D02*
X191650000Y-60725000D01*
X191650000Y-63325000D02*
X188990000Y-63325000D01*
%TO.C,U1*%
X115680000Y-101485000D02*
X116930000Y-101485000D01*
X115680000Y-83585000D02*
X115680000Y-101485000D01*
X120180000Y-83585000D02*
X115680000Y-83585000D01*
X120180000Y-101485000D02*
X120180000Y-83585000D01*
X118930000Y-101485000D02*
X120180000Y-101485000D01*
X116930000Y-101485000D02*
G75*
G02*
X118930000Y-101485000I1000000J0D01*
G01*
%TO.C,T1*%
X137060000Y-100195000D02*
X133170000Y-100195000D01*
X135710000Y-89955000D02*
X131820000Y-89955000D01*
X131820000Y-89955000D02*
X131820000Y-96345000D01*
X137060000Y-93805000D02*
X137060000Y-100195000D01*
%TO.C,R16*%
X120120000Y-77295000D02*
X120740000Y-77295000D01*
X120120000Y-77295000D02*
G75*
G03*
X120120000Y-77295000I-920000J0D01*
G01*
%TO.C,R15*%
X124280000Y-114475000D02*
X124280000Y-113855000D01*
X125200000Y-115395000D02*
G75*
G03*
X125200000Y-115395000I-920000J0D01*
G01*
%TO.C,R13*%
X120820000Y-113475000D02*
X120820000Y-117315000D01*
X122660000Y-113475000D02*
X122660000Y-117315000D01*
%TO.C,R11*%
X164920000Y-126725000D02*
X164920000Y-126655000D01*
X166290000Y-128095000D02*
G75*
G03*
X166290000Y-128095000I-1370000J0D01*
G01*
%TO.C,R9*%
X132520000Y-106155000D02*
X136360000Y-106155000D01*
X132520000Y-104315000D02*
X136360000Y-104315000D01*
%TO.C,R8*%
X170000000Y-126925000D02*
X170000000Y-126995000D01*
X171370000Y-125555000D02*
G75*
G03*
X171370000Y-125555000I-1370000J0D01*
G01*
%TO.C,R7*%
X130960000Y-77295000D02*
X130010000Y-77295000D01*
X125220000Y-77295000D02*
X126170000Y-77295000D01*
X130010000Y-76375000D02*
X126170000Y-76375000D01*
X130010000Y-78215000D02*
X130010000Y-76375000D01*
X126170000Y-78215000D02*
X130010000Y-78215000D01*
X126170000Y-76375000D02*
X126170000Y-78215000D01*
%TO.C,R6*%
X182700000Y-126925000D02*
X182700000Y-126995000D01*
X184070000Y-125555000D02*
G75*
G03*
X184070000Y-125555000I-1370000J0D01*
G01*
%TO.C,R5*%
X177620000Y-126725000D02*
X177620000Y-126655000D01*
X178990000Y-128095000D02*
G75*
G03*
X178990000Y-128095000I-1370000J0D01*
G01*
%TO.C,R4*%
X157300000Y-126925000D02*
X157300000Y-126995000D01*
X158670000Y-125555000D02*
G75*
G03*
X158670000Y-125555000I-1370000J0D01*
G01*
%TO.C,R3*%
X152220000Y-126725000D02*
X152220000Y-126655000D01*
X153590000Y-128095000D02*
G75*
G03*
X153590000Y-128095000I-1370000J0D01*
G01*
%TO.C,R2*%
X144600000Y-126925000D02*
X144600000Y-126995000D01*
X145970000Y-125555000D02*
G75*
G03*
X145970000Y-125555000I-1370000J0D01*
G01*
%TO.C,R1*%
X139520000Y-126725000D02*
X139520000Y-126655000D01*
X140890000Y-128095000D02*
G75*
G03*
X140890000Y-128095000I-1370000J0D01*
G01*
%TO.C,Q11*%
X128620000Y-83065000D02*
X125020000Y-83065000D01*
X124495816Y-83792205D02*
G75*
G02*
X125020000Y-83065000I2324184J-1122795D01*
G01*
X124463600Y-86013807D02*
G75*
G03*
X126820000Y-87515000I2356400J1098807D01*
G01*
X129176400Y-86013807D02*
G75*
G02*
X126820000Y-87515000I-2356400J1098807D01*
G01*
X129144184Y-83792205D02*
G75*
G03*
X128620000Y-83065000I-2324184J-1122795D01*
G01*
%TO.C,Q10*%
X169310000Y-127355000D02*
X169310000Y-123755000D01*
X168582795Y-123230816D02*
G75*
G02*
X169310000Y-123755000I-1122795J-2324184D01*
G01*
X166361193Y-123198600D02*
G75*
G03*
X164860000Y-125555000I1098807J-2356400D01*
G01*
X166361193Y-127911400D02*
G75*
G02*
X164860000Y-125555000I1098807J2356400D01*
G01*
X168582795Y-127879184D02*
G75*
G03*
X169310000Y-127355000I-1122795J2324184D01*
G01*
%TO.C,Q9*%
X128620000Y-88145000D02*
X125020000Y-88145000D01*
X124495816Y-88872205D02*
G75*
G02*
X125020000Y-88145000I2324184J-1122795D01*
G01*
X124463600Y-91093807D02*
G75*
G03*
X126820000Y-92595000I2356400J1098807D01*
G01*
X129176400Y-91093807D02*
G75*
G02*
X126820000Y-92595000I-2356400J1098807D01*
G01*
X129144184Y-88872205D02*
G75*
G03*
X128620000Y-88145000I-2324184J-1122795D01*
G01*
%TO.C,Q8*%
X124970000Y-111055000D02*
X124970000Y-114655000D01*
X125697205Y-115179184D02*
G75*
G02*
X124970000Y-114655000I1122795J2324184D01*
G01*
X127918807Y-115211400D02*
G75*
G03*
X129420000Y-112855000I-1098807J2356400D01*
G01*
X127918807Y-110498600D02*
G75*
G02*
X129420000Y-112855000I-1098807J-2356400D01*
G01*
X125697205Y-110530816D02*
G75*
G03*
X124970000Y-111055000I1122795J-2324184D01*
G01*
%TO.C,Q7*%
X128620000Y-93225000D02*
X125020000Y-93225000D01*
X124495816Y-93952205D02*
G75*
G02*
X125020000Y-93225000I2324184J-1122795D01*
G01*
X124463600Y-96173807D02*
G75*
G03*
X126820000Y-97675000I2356400J1098807D01*
G01*
X129176400Y-96173807D02*
G75*
G02*
X126820000Y-97675000I-2356400J1098807D01*
G01*
X129144184Y-93952205D02*
G75*
G03*
X128620000Y-93225000I-2324184J-1122795D01*
G01*
%TO.C,Q6*%
X128620000Y-98305000D02*
X125020000Y-98305000D01*
X124495816Y-99032205D02*
G75*
G02*
X125020000Y-98305000I2324184J-1122795D01*
G01*
X124463600Y-101253807D02*
G75*
G03*
X126820000Y-102755000I2356400J1098807D01*
G01*
X129176400Y-101253807D02*
G75*
G02*
X126820000Y-102755000I-2356400J1098807D01*
G01*
X129144184Y-99032205D02*
G75*
G03*
X128620000Y-98305000I-2324184J-1122795D01*
G01*
%TO.C,Q4*%
X123540000Y-77985000D02*
X119940000Y-77985000D01*
X119415816Y-78712205D02*
G75*
G02*
X119940000Y-77985000I2324184J-1122795D01*
G01*
X119383600Y-80933807D02*
G75*
G03*
X121740000Y-82435000I2356400J1098807D01*
G01*
X124096400Y-80933807D02*
G75*
G02*
X121740000Y-82435000I-2356400J1098807D01*
G01*
X124064184Y-78712205D02*
G75*
G03*
X123540000Y-77985000I-2324184J-1122795D01*
G01*
%TO.C,Q3*%
X182010000Y-127355000D02*
X182010000Y-123755000D01*
X181282795Y-123230816D02*
G75*
G02*
X182010000Y-123755000I-1122795J-2324184D01*
G01*
X179061193Y-123198600D02*
G75*
G03*
X177560000Y-125555000I1098807J-2356400D01*
G01*
X179061193Y-127911400D02*
G75*
G02*
X177560000Y-125555000I1098807J2356400D01*
G01*
X181282795Y-127879184D02*
G75*
G03*
X182010000Y-127355000I-1122795J2324184D01*
G01*
%TO.C,Q2*%
X156610000Y-127355000D02*
X156610000Y-123755000D01*
X155882795Y-123230816D02*
G75*
G02*
X156610000Y-123755000I-1122795J-2324184D01*
G01*
X153661193Y-123198600D02*
G75*
G03*
X152160000Y-125555000I1098807J-2356400D01*
G01*
X153661193Y-127911400D02*
G75*
G02*
X152160000Y-125555000I1098807J2356400D01*
G01*
X155882795Y-127879184D02*
G75*
G03*
X156610000Y-127355000I-1122795J2324184D01*
G01*
%TO.C,Q1*%
X143910000Y-127355000D02*
X143910000Y-123755000D01*
X143182795Y-123230816D02*
G75*
G02*
X143910000Y-123755000I-1122795J-2324184D01*
G01*
X140961193Y-123198600D02*
G75*
G03*
X139460000Y-125555000I1098807J-2356400D01*
G01*
X140961193Y-127911400D02*
G75*
G02*
X139460000Y-125555000I1098807J2356400D01*
G01*
X143182795Y-127879184D02*
G75*
G03*
X143910000Y-127355000I-1122795J2324184D01*
G01*
%TO.C,L13*%
X170000000Y-63095000D02*
X170000000Y-63515000D01*
X170000000Y-71175000D02*
X170000000Y-70755000D01*
X168230000Y-63515000D02*
X168230000Y-70755000D01*
X171770000Y-63515000D02*
X168230000Y-63515000D01*
X171770000Y-70755000D02*
X171770000Y-63515000D01*
X168230000Y-70755000D02*
X171770000Y-70755000D01*
%TO.C,L12*%
X187860000Y-123055000D02*
X182620000Y-123055000D01*
X187860000Y-112815000D02*
X182620000Y-112815000D01*
X182620000Y-121745000D02*
X182620000Y-123055000D01*
X182620000Y-112815000D02*
X182620000Y-119205000D01*
X187860000Y-116665000D02*
X187860000Y-123055000D01*
X187860000Y-112815000D02*
X187856200Y-114099600D01*
%TO.C,L11*%
X167420000Y-120555000D02*
X167420000Y-115315000D01*
X177660000Y-120555000D02*
X177660000Y-115315000D01*
X168730000Y-115315000D02*
X167420000Y-115315000D01*
X177660000Y-115315000D02*
X171270000Y-115315000D01*
X173810000Y-120555000D02*
X167420000Y-120555000D01*
X177660000Y-120555000D02*
X176375400Y-120551200D01*
%TO.C,L10*%
X162460000Y-123055000D02*
X157220000Y-123055000D01*
X162460000Y-112815000D02*
X157220000Y-112815000D01*
X157220000Y-121745000D02*
X157220000Y-123055000D01*
X157220000Y-112815000D02*
X157220000Y-119205000D01*
X162460000Y-116665000D02*
X162460000Y-123055000D01*
X162460000Y-112815000D02*
X162456200Y-114099600D01*
%TO.C,L9*%
X142020000Y-120555000D02*
X142020000Y-115315000D01*
X152260000Y-120555000D02*
X152260000Y-115315000D01*
X143330000Y-115315000D02*
X142020000Y-115315000D01*
X152260000Y-115315000D02*
X145870000Y-115315000D01*
X148410000Y-120555000D02*
X142020000Y-120555000D01*
X152260000Y-120555000D02*
X150975400Y-120551200D01*
%TO.C,L8*%
X192900000Y-105155000D02*
X192900000Y-110395000D01*
X182660000Y-105155000D02*
X182660000Y-110395000D01*
X191590000Y-110395000D02*
X192900000Y-110395000D01*
X182660000Y-110395000D02*
X189050000Y-110395000D01*
X186510000Y-105155000D02*
X192900000Y-105155000D01*
X182660000Y-105155000D02*
X183944600Y-105158800D01*
%TO.C,L6*%
X167500000Y-105155000D02*
X167500000Y-110395000D01*
X157260000Y-105155000D02*
X157260000Y-110395000D01*
X166190000Y-110395000D02*
X167500000Y-110395000D01*
X157260000Y-110395000D02*
X163650000Y-110395000D01*
X161110000Y-105155000D02*
X167500000Y-105155000D01*
X157260000Y-105155000D02*
X158544600Y-105158800D01*
%TO.C,L4*%
X190400000Y-102735000D02*
X185160000Y-102735000D01*
X190400000Y-92495000D02*
X185160000Y-92495000D01*
X185160000Y-101425000D02*
X185160000Y-102735000D01*
X185160000Y-92495000D02*
X185160000Y-98885000D01*
X190400000Y-96345000D02*
X190400000Y-102735000D01*
X190400000Y-92495000D02*
X190396200Y-93779600D01*
%TO.C,L2*%
X165000000Y-102735000D02*
X159760000Y-102735000D01*
X165000000Y-92495000D02*
X159760000Y-92495000D01*
X159760000Y-101425000D02*
X159760000Y-102735000D01*
X159760000Y-92495000D02*
X159760000Y-98885000D01*
X165000000Y-96345000D02*
X165000000Y-102735000D01*
X165000000Y-92495000D02*
X164996200Y-93779600D01*
%TO.C,K4*%
X186027000Y-78565000D02*
X186027000Y-79581000D01*
X184122000Y-79581000D02*
X186027000Y-79581000D01*
X184122000Y-78565000D02*
X184122000Y-79581000D01*
X186027000Y-78565000D02*
X184122000Y-78565000D01*
X186662000Y-79073000D02*
X186027000Y-79073000D01*
X186662000Y-78438000D02*
X186662000Y-79073000D01*
X183400000Y-79073000D02*
X184122000Y-79073000D01*
X183400000Y-78795000D02*
X183400000Y-79073000D01*
X185646000Y-78565000D02*
X185011000Y-79581000D01*
X181300000Y-75995000D02*
X189100000Y-75995000D01*
X189100000Y-75995000D02*
X189100000Y-91195000D01*
X189100000Y-91195000D02*
X181300000Y-91195000D01*
X181300000Y-91195000D02*
X181300000Y-75995000D01*
X181100000Y-77895000D02*
X181100000Y-75795000D01*
X181100000Y-75795000D02*
X183300000Y-75795000D01*
%TO.C,K3*%
X173327000Y-78565000D02*
X173327000Y-79581000D01*
X171422000Y-79581000D02*
X173327000Y-79581000D01*
X171422000Y-78565000D02*
X171422000Y-79581000D01*
X173327000Y-78565000D02*
X171422000Y-78565000D01*
X173962000Y-79073000D02*
X173327000Y-79073000D01*
X173962000Y-78438000D02*
X173962000Y-79073000D01*
X170700000Y-79073000D02*
X171422000Y-79073000D01*
X170700000Y-78795000D02*
X170700000Y-79073000D01*
X172946000Y-78565000D02*
X172311000Y-79581000D01*
X168600000Y-75995000D02*
X176400000Y-75995000D01*
X176400000Y-75995000D02*
X176400000Y-91195000D01*
X176400000Y-91195000D02*
X168600000Y-91195000D01*
X168600000Y-91195000D02*
X168600000Y-75995000D01*
X168400000Y-77895000D02*
X168400000Y-75795000D01*
X168400000Y-75795000D02*
X170600000Y-75795000D01*
%TO.C,K2*%
X160627000Y-78565000D02*
X160627000Y-79581000D01*
X158722000Y-79581000D02*
X160627000Y-79581000D01*
X158722000Y-78565000D02*
X158722000Y-79581000D01*
X160627000Y-78565000D02*
X158722000Y-78565000D01*
X161262000Y-79073000D02*
X160627000Y-79073000D01*
X161262000Y-78438000D02*
X161262000Y-79073000D01*
X158000000Y-79073000D02*
X158722000Y-79073000D01*
X158000000Y-78795000D02*
X158000000Y-79073000D01*
X160246000Y-78565000D02*
X159611000Y-79581000D01*
X155900000Y-75995000D02*
X163700000Y-75995000D01*
X163700000Y-75995000D02*
X163700000Y-91195000D01*
X163700000Y-91195000D02*
X155900000Y-91195000D01*
X155900000Y-91195000D02*
X155900000Y-75995000D01*
X155700000Y-77895000D02*
X155700000Y-75795000D01*
X155700000Y-75795000D02*
X157900000Y-75795000D01*
%TO.C,K1*%
X147927000Y-78565000D02*
X147927000Y-79581000D01*
X146022000Y-79581000D02*
X147927000Y-79581000D01*
X146022000Y-78565000D02*
X146022000Y-79581000D01*
X147927000Y-78565000D02*
X146022000Y-78565000D01*
X148562000Y-79073000D02*
X147927000Y-79073000D01*
X148562000Y-78438000D02*
X148562000Y-79073000D01*
X145300000Y-79073000D02*
X146022000Y-79073000D01*
X145300000Y-78795000D02*
X145300000Y-79073000D01*
X147546000Y-78565000D02*
X146911000Y-79581000D01*
X143200000Y-75995000D02*
X151000000Y-75995000D01*
X151000000Y-75995000D02*
X151000000Y-91195000D01*
X151000000Y-91195000D02*
X143200000Y-91195000D01*
X143200000Y-91195000D02*
X143200000Y-75995000D01*
X143000000Y-77895000D02*
X143000000Y-75795000D01*
X143000000Y-75795000D02*
X145200000Y-75795000D01*
%TO.C,J7*%
X109040000Y-106445000D02*
X110370000Y-106445000D01*
X110370000Y-106445000D02*
X110370000Y-107775000D01*
X110370000Y-109045000D02*
X110370000Y-111645000D01*
X107710000Y-111645000D02*
X110370000Y-111645000D01*
X107710000Y-109045000D02*
X107710000Y-111645000D01*
X107710000Y-109045000D02*
X110370000Y-109045000D01*
%TO.C,J6*%
X109040000Y-78505000D02*
X110370000Y-78505000D01*
X110370000Y-78505000D02*
X110370000Y-79835000D01*
X110370000Y-81105000D02*
X110370000Y-83705000D01*
X107710000Y-83705000D02*
X110370000Y-83705000D01*
X107710000Y-81105000D02*
X107710000Y-83705000D01*
X107710000Y-81105000D02*
X110370000Y-81105000D01*
%TO.C,J3*%
X187300000Y-71945000D02*
X185200000Y-71945000D01*
X187600000Y-72245000D02*
X187600000Y-70645000D01*
X185900000Y-72245000D02*
X187600000Y-72245000D01*
X178100000Y-71945000D02*
X178100000Y-70145000D01*
X180200000Y-71945000D02*
X178100000Y-71945000D01*
X187300000Y-57245000D02*
X187300000Y-71945000D01*
X178100000Y-57245000D02*
X187300000Y-57245000D01*
X178100000Y-65745000D02*
X178100000Y-57245000D01*
%TO.C,J2*%
X135650000Y-133175000D02*
X135650000Y-131845000D01*
X135650000Y-131845000D02*
X136980000Y-131845000D01*
X138250000Y-131845000D02*
X156090000Y-131845000D01*
X156090000Y-134505000D02*
X156090000Y-131845000D01*
X138250000Y-134505000D02*
X156090000Y-134505000D01*
X138250000Y-134505000D02*
X138250000Y-131845000D01*
%TO.C,J1*%
X152220000Y-57175000D02*
X153220000Y-58175000D01*
X152220000Y-57175000D02*
X151220000Y-58175000D01*
X144720000Y-71975000D02*
X144720000Y-56975000D01*
X159720000Y-71975000D02*
X144720000Y-71975000D01*
X159720000Y-56975000D02*
X159720000Y-71975000D01*
X144720000Y-56975000D02*
X159720000Y-56975000D01*
%TO.C,D5*%
X171300000Y-73335000D02*
X171300000Y-76175000D01*
X171540000Y-73335000D02*
X171540000Y-76175000D01*
X171420000Y-73335000D02*
X171420000Y-76175000D01*
X174260000Y-76175000D02*
X174260000Y-75995000D01*
X170820000Y-76175000D02*
X174260000Y-76175000D01*
X170820000Y-75995000D02*
X170820000Y-76175000D01*
X174260000Y-73335000D02*
X174260000Y-73515000D01*
X170820000Y-73335000D02*
X174260000Y-73335000D01*
X170820000Y-73515000D02*
X170820000Y-73335000D01*
%TO.C,D4*%
X191776371Y-70869732D02*
G75*
G02*
X191834596Y-68555000I-1456371J1194732D01*
G01*
%TO.C,D3*%
X184000000Y-73335000D02*
X184000000Y-76175000D01*
X184240000Y-73335000D02*
X184240000Y-76175000D01*
X184120000Y-73335000D02*
X184120000Y-76175000D01*
X186960000Y-76175000D02*
X186960000Y-75995000D01*
X183520000Y-76175000D02*
X186960000Y-76175000D01*
X183520000Y-75995000D02*
X183520000Y-76175000D01*
X186960000Y-73335000D02*
X186960000Y-73515000D01*
X183520000Y-73335000D02*
X186960000Y-73335000D01*
X183520000Y-73515000D02*
X183520000Y-73335000D01*
%TO.C,D2*%
X158600000Y-73335000D02*
X158600000Y-76175000D01*
X158840000Y-73335000D02*
X158840000Y-76175000D01*
X158720000Y-73335000D02*
X158720000Y-76175000D01*
X161560000Y-76175000D02*
X161560000Y-75995000D01*
X158120000Y-76175000D02*
X161560000Y-76175000D01*
X158120000Y-75995000D02*
X158120000Y-76175000D01*
X161560000Y-73335000D02*
X161560000Y-73515000D01*
X158120000Y-73335000D02*
X161560000Y-73335000D01*
X158120000Y-73515000D02*
X158120000Y-73335000D01*
%TO.C,D1*%
X145900000Y-73065000D02*
X145900000Y-75905000D01*
X146140000Y-73065000D02*
X146140000Y-75905000D01*
X146020000Y-73065000D02*
X146020000Y-75905000D01*
X148860000Y-75905000D02*
X148860000Y-75725000D01*
X145420000Y-75905000D02*
X148860000Y-75905000D01*
X145420000Y-75725000D02*
X145420000Y-75905000D01*
X148860000Y-73065000D02*
X148860000Y-73245000D01*
X145420000Y-73065000D02*
X148860000Y-73065000D01*
X145420000Y-73245000D02*
X145420000Y-73065000D01*
%TO.C,C24*%
X139490000Y-60570000D02*
X139490000Y-60885000D01*
X139490000Y-58145000D02*
X139490000Y-58460000D01*
X134550000Y-60570000D02*
X134550000Y-60885000D01*
X134550000Y-58145000D02*
X134550000Y-58460000D01*
X134550000Y-60885000D02*
X139490000Y-60885000D01*
X134550000Y-58145000D02*
X139490000Y-58145000D01*
%TO.C,C23*%
X134810000Y-103750000D02*
X134810000Y-103815000D01*
X134810000Y-101575000D02*
X134810000Y-101640000D01*
X131570000Y-103750000D02*
X131570000Y-103815000D01*
X131570000Y-101575000D02*
X131570000Y-101640000D01*
X131570000Y-103815000D02*
X134810000Y-103815000D01*
X131570000Y-101575000D02*
X134810000Y-101575000D01*
%TO.C,C22*%
X163865000Y-72185000D02*
X163550000Y-72185000D01*
X166290000Y-72185000D02*
X165975000Y-72185000D01*
X163865000Y-67245000D02*
X163550000Y-67245000D01*
X166290000Y-67245000D02*
X165975000Y-67245000D01*
X163550000Y-67245000D02*
X163550000Y-72185000D01*
X166290000Y-67245000D02*
X166290000Y-72185000D01*
%TO.C,C20*%
X130845000Y-87425000D02*
X130530000Y-87425000D01*
X133270000Y-87425000D02*
X132955000Y-87425000D01*
X130845000Y-82485000D02*
X130530000Y-82485000D01*
X133270000Y-82485000D02*
X132955000Y-82485000D01*
X130530000Y-82485000D02*
X130530000Y-87425000D01*
X133270000Y-82485000D02*
X133270000Y-87425000D01*
%TO.C,C18*%
X185570000Y-113910000D02*
X185570000Y-113975000D01*
X185570000Y-111735000D02*
X185570000Y-111800000D01*
X182330000Y-113910000D02*
X182330000Y-113975000D01*
X182330000Y-111735000D02*
X182330000Y-111800000D01*
X182330000Y-113975000D02*
X185570000Y-113975000D01*
X182330000Y-111735000D02*
X185570000Y-111735000D01*
%TO.C,C17*%
X172870000Y-113910000D02*
X172870000Y-113975000D01*
X172870000Y-111735000D02*
X172870000Y-111800000D01*
X169630000Y-113910000D02*
X169630000Y-113975000D01*
X169630000Y-111735000D02*
X169630000Y-111800000D01*
X169630000Y-113975000D02*
X172870000Y-113975000D01*
X169630000Y-111735000D02*
X172870000Y-111735000D01*
%TO.C,C16*%
X160170000Y-113910000D02*
X160170000Y-113975000D01*
X160170000Y-111735000D02*
X160170000Y-111800000D01*
X156930000Y-113910000D02*
X156930000Y-113975000D01*
X156930000Y-111735000D02*
X156930000Y-111800000D01*
X156930000Y-113975000D02*
X160170000Y-113975000D01*
X156930000Y-111735000D02*
X160170000Y-111735000D01*
%TO.C,C15*%
X147470000Y-113910000D02*
X147470000Y-113975000D01*
X147470000Y-111735000D02*
X147470000Y-111800000D01*
X144230000Y-113910000D02*
X144230000Y-113975000D01*
X144230000Y-111735000D02*
X144230000Y-111800000D01*
X144230000Y-113975000D02*
X147470000Y-113975000D01*
X144230000Y-111735000D02*
X147470000Y-111735000D01*
%TO.C,C14*%
X189699000Y-111935000D02*
X188441000Y-111935000D01*
X189699000Y-113775000D02*
X188441000Y-113775000D01*
%TO.C,C13*%
X176999000Y-113205000D02*
X175741000Y-113205000D01*
X176999000Y-115045000D02*
X175741000Y-115045000D01*
%TO.C,C12*%
X164299000Y-111935000D02*
X163041000Y-111935000D01*
X164299000Y-113775000D02*
X163041000Y-113775000D01*
%TO.C,C11*%
X151599000Y-113205000D02*
X150341000Y-113205000D01*
X151599000Y-115045000D02*
X150341000Y-115045000D01*
%TO.C,C9*%
X188110000Y-103750000D02*
X188110000Y-103815000D01*
X188110000Y-101575000D02*
X188110000Y-101640000D01*
X184870000Y-103750000D02*
X184870000Y-103815000D01*
X184870000Y-101575000D02*
X184870000Y-101640000D01*
X184870000Y-103815000D02*
X188110000Y-103815000D01*
X184870000Y-101575000D02*
X188110000Y-101575000D01*
%TO.C,C8*%
X177990000Y-102480000D02*
X177990000Y-102545000D01*
X177990000Y-100305000D02*
X177990000Y-100370000D01*
X174750000Y-102480000D02*
X174750000Y-102545000D01*
X174750000Y-100305000D02*
X174750000Y-100370000D01*
X174750000Y-102545000D02*
X177990000Y-102545000D01*
X174750000Y-100305000D02*
X177990000Y-100305000D01*
%TO.C,C7*%
X162750000Y-103750000D02*
X162750000Y-103815000D01*
X162750000Y-101575000D02*
X162750000Y-101640000D01*
X159510000Y-103750000D02*
X159510000Y-103815000D01*
X159510000Y-101575000D02*
X159510000Y-101640000D01*
X159510000Y-103815000D02*
X162750000Y-103815000D01*
X159510000Y-101575000D02*
X162750000Y-101575000D01*
%TO.C,C6*%
X150301000Y-102345000D02*
X151559000Y-102345000D01*
X150301000Y-100505000D02*
X151559000Y-100505000D01*
%TO.C,C5*%
X187450000Y-91480000D02*
X187450000Y-91415000D01*
X187450000Y-93655000D02*
X187450000Y-93590000D01*
X190690000Y-91480000D02*
X190690000Y-91415000D01*
X190690000Y-93655000D02*
X190690000Y-93590000D01*
X190690000Y-91415000D02*
X187450000Y-91415000D01*
X190690000Y-93655000D02*
X187450000Y-93655000D01*
%TO.C,C4*%
X174750000Y-91480000D02*
X174750000Y-91415000D01*
X174750000Y-93655000D02*
X174750000Y-93590000D01*
X177990000Y-91480000D02*
X177990000Y-91415000D01*
X177990000Y-93655000D02*
X177990000Y-93590000D01*
X177990000Y-91415000D02*
X174750000Y-91415000D01*
X177990000Y-93655000D02*
X174750000Y-93655000D01*
%TO.C,C3*%
X161970000Y-91480000D02*
X161970000Y-91415000D01*
X161970000Y-93655000D02*
X161970000Y-93590000D01*
X165210000Y-91480000D02*
X165210000Y-91415000D01*
X165210000Y-93655000D02*
X165210000Y-93590000D01*
X165210000Y-91415000D02*
X161970000Y-91415000D01*
X165210000Y-93655000D02*
X161970000Y-93655000D01*
%TO.C,C2*%
X151599000Y-91615000D02*
X150341000Y-91615000D01*
X151599000Y-93455000D02*
X150341000Y-93455000D01*
%TO.C,C30*%
D12*
X116017142Y-75112142D02*
X115969523Y-75159761D01*
X115826666Y-75207380D01*
X115731428Y-75207380D01*
X115588571Y-75159761D01*
X115493333Y-75064523D01*
X115445714Y-74969285D01*
X115398095Y-74778809D01*
X115398095Y-74635952D01*
X115445714Y-74445476D01*
X115493333Y-74350238D01*
X115588571Y-74255000D01*
X115731428Y-74207380D01*
X115826666Y-74207380D01*
X115969523Y-74255000D01*
X116017142Y-74302619D01*
X116350476Y-74207380D02*
X116969523Y-74207380D01*
X116636190Y-74588333D01*
X116779047Y-74588333D01*
X116874285Y-74635952D01*
X116921904Y-74683571D01*
X116969523Y-74778809D01*
X116969523Y-75016904D01*
X116921904Y-75112142D01*
X116874285Y-75159761D01*
X116779047Y-75207380D01*
X116493333Y-75207380D01*
X116398095Y-75159761D01*
X116350476Y-75112142D01*
X117588571Y-74207380D02*
X117683809Y-74207380D01*
X117779047Y-74255000D01*
X117826666Y-74302619D01*
X117874285Y-74397857D01*
X117921904Y-74588333D01*
X117921904Y-74826428D01*
X117874285Y-75016904D01*
X117826666Y-75112142D01*
X117779047Y-75159761D01*
X117683809Y-75207380D01*
X117588571Y-75207380D01*
X117493333Y-75159761D01*
X117445714Y-75112142D01*
X117398095Y-75016904D01*
X117350476Y-74826428D01*
X117350476Y-74588333D01*
X117398095Y-74397857D01*
X117445714Y-74302619D01*
X117493333Y-74255000D01*
X117588571Y-74207380D01*
%TO.C,L14*%
X134372380Y-67817857D02*
X134372380Y-68294047D01*
X133372380Y-68294047D01*
X134372380Y-66960714D02*
X134372380Y-67532142D01*
X134372380Y-67246428D02*
X133372380Y-67246428D01*
X133515238Y-67341666D01*
X133610476Y-67436904D01*
X133658095Y-67532142D01*
X133705714Y-66103571D02*
X134372380Y-66103571D01*
X133324761Y-66341666D02*
X134039047Y-66579761D01*
X134039047Y-65960714D01*
%TO.C,C31*%
X139877142Y-105877857D02*
X139924761Y-105925476D01*
X139972380Y-106068333D01*
X139972380Y-106163571D01*
X139924761Y-106306428D01*
X139829523Y-106401666D01*
X139734285Y-106449285D01*
X139543809Y-106496904D01*
X139400952Y-106496904D01*
X139210476Y-106449285D01*
X139115238Y-106401666D01*
X139020000Y-106306428D01*
X138972380Y-106163571D01*
X138972380Y-106068333D01*
X139020000Y-105925476D01*
X139067619Y-105877857D01*
X138972380Y-105544523D02*
X138972380Y-104925476D01*
X139353333Y-105258809D01*
X139353333Y-105115952D01*
X139400952Y-105020714D01*
X139448571Y-104973095D01*
X139543809Y-104925476D01*
X139781904Y-104925476D01*
X139877142Y-104973095D01*
X139924761Y-105020714D01*
X139972380Y-105115952D01*
X139972380Y-105401666D01*
X139924761Y-105496904D01*
X139877142Y-105544523D01*
X139972380Y-103973095D02*
X139972380Y-104544523D01*
X139972380Y-104258809D02*
X138972380Y-104258809D01*
X139115238Y-104354047D01*
X139210476Y-104449285D01*
X139258095Y-104544523D01*
%TO.C,D7*%
X114641594Y-79303095D02*
X113641594Y-79303095D01*
X113641594Y-79065000D01*
X113689214Y-78922142D01*
X113784452Y-78826904D01*
X113879690Y-78779285D01*
X114070166Y-78731666D01*
X114213023Y-78731666D01*
X114403499Y-78779285D01*
X114498737Y-78826904D01*
X114593975Y-78922142D01*
X114641594Y-79065000D01*
X114641594Y-79303095D01*
X113641594Y-78398333D02*
X113641594Y-77731666D01*
X114641594Y-78160238D01*
X111746666Y-82073095D02*
X111746666Y-81596904D01*
X112032380Y-82168333D02*
X111032380Y-81835000D01*
X112032380Y-81501666D01*
%TO.C,D6*%
X111963166Y-79303095D02*
X110963166Y-79303095D01*
X110963166Y-79065000D01*
X111010786Y-78922142D01*
X111106024Y-78826904D01*
X111201262Y-78779285D01*
X111391738Y-78731666D01*
X111534595Y-78731666D01*
X111725071Y-78779285D01*
X111820309Y-78826904D01*
X111915547Y-78922142D01*
X111963166Y-79065000D01*
X111963166Y-79303095D01*
X110963166Y-77874523D02*
X110963166Y-78065000D01*
X111010786Y-78160238D01*
X111058405Y-78207857D01*
X111201262Y-78303095D01*
X111391738Y-78350714D01*
X111772690Y-78350714D01*
X111867928Y-78303095D01*
X111915547Y-78255476D01*
X111963166Y-78160238D01*
X111963166Y-77969761D01*
X111915547Y-77874523D01*
X111867928Y-77826904D01*
X111772690Y-77779285D01*
X111534595Y-77779285D01*
X111439357Y-77826904D01*
X111391738Y-77874523D01*
X111344119Y-77969761D01*
X111344119Y-78160238D01*
X111391738Y-78255476D01*
X111439357Y-78303095D01*
X111534595Y-78350714D01*
X114286666Y-75533095D02*
X114286666Y-75056904D01*
X114572380Y-75628333D02*
X113572380Y-75295000D01*
X114572380Y-74961666D01*
%TO.C,C26*%
X135067142Y-81462142D02*
X135019523Y-81509761D01*
X134876666Y-81557380D01*
X134781428Y-81557380D01*
X134638571Y-81509761D01*
X134543333Y-81414523D01*
X134495714Y-81319285D01*
X134448095Y-81128809D01*
X134448095Y-80985952D01*
X134495714Y-80795476D01*
X134543333Y-80700238D01*
X134638571Y-80605000D01*
X134781428Y-80557380D01*
X134876666Y-80557380D01*
X135019523Y-80605000D01*
X135067142Y-80652619D01*
X135448095Y-80652619D02*
X135495714Y-80605000D01*
X135590952Y-80557380D01*
X135829047Y-80557380D01*
X135924285Y-80605000D01*
X135971904Y-80652619D01*
X136019523Y-80747857D01*
X136019523Y-80843095D01*
X135971904Y-80985952D01*
X135400476Y-81557380D01*
X136019523Y-81557380D01*
X136876666Y-80557380D02*
X136686190Y-80557380D01*
X136590952Y-80605000D01*
X136543333Y-80652619D01*
X136448095Y-80795476D01*
X136400476Y-80985952D01*
X136400476Y-81366904D01*
X136448095Y-81462142D01*
X136495714Y-81509761D01*
X136590952Y-81557380D01*
X136781428Y-81557380D01*
X136876666Y-81509761D01*
X136924285Y-81462142D01*
X136971904Y-81366904D01*
X136971904Y-81128809D01*
X136924285Y-81033571D01*
X136876666Y-80985952D01*
X136781428Y-80938333D01*
X136590952Y-80938333D01*
X136495714Y-80985952D01*
X136448095Y-81033571D01*
X136400476Y-81128809D01*
%TO.C,C28*%
X116057142Y-103052142D02*
X116009523Y-103099761D01*
X115866666Y-103147380D01*
X115771428Y-103147380D01*
X115628571Y-103099761D01*
X115533333Y-103004523D01*
X115485714Y-102909285D01*
X115438095Y-102718809D01*
X115438095Y-102575952D01*
X115485714Y-102385476D01*
X115533333Y-102290238D01*
X115628571Y-102195000D01*
X115771428Y-102147380D01*
X115866666Y-102147380D01*
X116009523Y-102195000D01*
X116057142Y-102242619D01*
X116438095Y-102242619D02*
X116485714Y-102195000D01*
X116580952Y-102147380D01*
X116819047Y-102147380D01*
X116914285Y-102195000D01*
X116961904Y-102242619D01*
X117009523Y-102337857D01*
X117009523Y-102433095D01*
X116961904Y-102575952D01*
X116390476Y-103147380D01*
X117009523Y-103147380D01*
X117580952Y-102575952D02*
X117485714Y-102528333D01*
X117438095Y-102480714D01*
X117390476Y-102385476D01*
X117390476Y-102337857D01*
X117438095Y-102242619D01*
X117485714Y-102195000D01*
X117580952Y-102147380D01*
X117771428Y-102147380D01*
X117866666Y-102195000D01*
X117914285Y-102242619D01*
X117961904Y-102337857D01*
X117961904Y-102385476D01*
X117914285Y-102480714D01*
X117866666Y-102528333D01*
X117771428Y-102575952D01*
X117580952Y-102575952D01*
X117485714Y-102623571D01*
X117438095Y-102671190D01*
X117390476Y-102766428D01*
X117390476Y-102956904D01*
X117438095Y-103052142D01*
X117485714Y-103099761D01*
X117580952Y-103147380D01*
X117771428Y-103147380D01*
X117866666Y-103099761D01*
X117914285Y-103052142D01*
X117961904Y-102956904D01*
X117961904Y-102766428D01*
X117914285Y-102671190D01*
X117866666Y-102623571D01*
X117771428Y-102575952D01*
%TO.C,R14*%
X112032380Y-98257857D02*
X111556190Y-98591190D01*
X112032380Y-98829285D02*
X111032380Y-98829285D01*
X111032380Y-98448333D01*
X111080000Y-98353095D01*
X111127619Y-98305476D01*
X111222857Y-98257857D01*
X111365714Y-98257857D01*
X111460952Y-98305476D01*
X111508571Y-98353095D01*
X111556190Y-98448333D01*
X111556190Y-98829285D01*
X112032380Y-97305476D02*
X112032380Y-97876904D01*
X112032380Y-97591190D02*
X111032380Y-97591190D01*
X111175238Y-97686428D01*
X111270476Y-97781666D01*
X111318095Y-97876904D01*
X111365714Y-96448333D02*
X112032380Y-96448333D01*
X110984761Y-96686428D02*
X111699047Y-96924523D01*
X111699047Y-96305476D01*
%TO.C,L7*%
X175532380Y-107941666D02*
X175532380Y-108417857D01*
X174532380Y-108417857D01*
X174532380Y-107703571D02*
X174532380Y-107036904D01*
X175532380Y-107465476D01*
%TO.C,L3*%
X174913333Y-98067380D02*
X174437142Y-98067380D01*
X174437142Y-97067380D01*
X175151428Y-97067380D02*
X175770476Y-97067380D01*
X175437142Y-97448333D01*
X175580000Y-97448333D01*
X175675238Y-97495952D01*
X175722857Y-97543571D01*
X175770476Y-97638809D01*
X175770476Y-97876904D01*
X175722857Y-97972142D01*
X175675238Y-98019761D01*
X175580000Y-98067380D01*
X175294285Y-98067380D01*
X175199047Y-98019761D01*
X175151428Y-97972142D01*
%TO.C,L5*%
X150132380Y-107941666D02*
X150132380Y-108417857D01*
X149132380Y-108417857D01*
X149132380Y-107132142D02*
X149132380Y-107608333D01*
X149608571Y-107655952D01*
X149560952Y-107608333D01*
X149513333Y-107513095D01*
X149513333Y-107275000D01*
X149560952Y-107179761D01*
X149608571Y-107132142D01*
X149703809Y-107084523D01*
X149941904Y-107084523D01*
X150037142Y-107132142D01*
X150084761Y-107179761D01*
X150132380Y-107275000D01*
X150132380Y-107513095D01*
X150084761Y-107608333D01*
X150037142Y-107655952D01*
%TO.C,L1*%
X149513333Y-98067380D02*
X149037142Y-98067380D01*
X149037142Y-97067380D01*
X150370476Y-98067380D02*
X149799047Y-98067380D01*
X150084761Y-98067380D02*
X150084761Y-97067380D01*
X149989523Y-97210238D01*
X149894285Y-97305476D01*
X149799047Y-97353095D01*
%TO.C,C29*%
X129967142Y-72862142D02*
X129919523Y-72909761D01*
X129776666Y-72957380D01*
X129681428Y-72957380D01*
X129538571Y-72909761D01*
X129443333Y-72814523D01*
X129395714Y-72719285D01*
X129348095Y-72528809D01*
X129348095Y-72385952D01*
X129395714Y-72195476D01*
X129443333Y-72100238D01*
X129538571Y-72005000D01*
X129681428Y-71957380D01*
X129776666Y-71957380D01*
X129919523Y-72005000D01*
X129967142Y-72052619D01*
X130348095Y-72052619D02*
X130395714Y-72005000D01*
X130490952Y-71957380D01*
X130729047Y-71957380D01*
X130824285Y-72005000D01*
X130871904Y-72052619D01*
X130919523Y-72147857D01*
X130919523Y-72243095D01*
X130871904Y-72385952D01*
X130300476Y-72957380D01*
X130919523Y-72957380D01*
X131395714Y-72957380D02*
X131586190Y-72957380D01*
X131681428Y-72909761D01*
X131729047Y-72862142D01*
X131824285Y-72719285D01*
X131871904Y-72528809D01*
X131871904Y-72147857D01*
X131824285Y-72052619D01*
X131776666Y-72005000D01*
X131681428Y-71957380D01*
X131490952Y-71957380D01*
X131395714Y-72005000D01*
X131348095Y-72052619D01*
X131300476Y-72147857D01*
X131300476Y-72385952D01*
X131348095Y-72481190D01*
X131395714Y-72528809D01*
X131490952Y-72576428D01*
X131681428Y-72576428D01*
X131776666Y-72528809D01*
X131824285Y-72481190D01*
X131871904Y-72385952D01*
%TO.C,C25*%
X129717142Y-108417857D02*
X129764761Y-108465476D01*
X129812380Y-108608333D01*
X129812380Y-108703571D01*
X129764761Y-108846428D01*
X129669523Y-108941666D01*
X129574285Y-108989285D01*
X129383809Y-109036904D01*
X129240952Y-109036904D01*
X129050476Y-108989285D01*
X128955238Y-108941666D01*
X128860000Y-108846428D01*
X128812380Y-108703571D01*
X128812380Y-108608333D01*
X128860000Y-108465476D01*
X128907619Y-108417857D01*
X128907619Y-108036904D02*
X128860000Y-107989285D01*
X128812380Y-107894047D01*
X128812380Y-107655952D01*
X128860000Y-107560714D01*
X128907619Y-107513095D01*
X129002857Y-107465476D01*
X129098095Y-107465476D01*
X129240952Y-107513095D01*
X129812380Y-108084523D01*
X129812380Y-107465476D01*
X128812380Y-106560714D02*
X128812380Y-107036904D01*
X129288571Y-107084523D01*
X129240952Y-107036904D01*
X129193333Y-106941666D01*
X129193333Y-106703571D01*
X129240952Y-106608333D01*
X129288571Y-106560714D01*
X129383809Y-106513095D01*
X129621904Y-106513095D01*
X129717142Y-106560714D01*
X129764761Y-106608333D01*
X129812380Y-106703571D01*
X129812380Y-106941666D01*
X129764761Y-107036904D01*
X129717142Y-107084523D01*
%TO.C,C21*%
X128717142Y-80192142D02*
X128669523Y-80239761D01*
X128526666Y-80287380D01*
X128431428Y-80287380D01*
X128288571Y-80239761D01*
X128193333Y-80144523D01*
X128145714Y-80049285D01*
X128098095Y-79858809D01*
X128098095Y-79715952D01*
X128145714Y-79525476D01*
X128193333Y-79430238D01*
X128288571Y-79335000D01*
X128431428Y-79287380D01*
X128526666Y-79287380D01*
X128669523Y-79335000D01*
X128717142Y-79382619D01*
X129098095Y-79382619D02*
X129145714Y-79335000D01*
X129240952Y-79287380D01*
X129479047Y-79287380D01*
X129574285Y-79335000D01*
X129621904Y-79382619D01*
X129669523Y-79477857D01*
X129669523Y-79573095D01*
X129621904Y-79715952D01*
X129050476Y-80287380D01*
X129669523Y-80287380D01*
X130621904Y-80287380D02*
X130050476Y-80287380D01*
X130336190Y-80287380D02*
X130336190Y-79287380D01*
X130240952Y-79430238D01*
X130145714Y-79525476D01*
X130050476Y-79573095D01*
%TO.C,R12*%
X117287142Y-82827380D02*
X116953809Y-82351190D01*
X116715714Y-82827380D02*
X116715714Y-81827380D01*
X117096666Y-81827380D01*
X117191904Y-81875000D01*
X117239523Y-81922619D01*
X117287142Y-82017857D01*
X117287142Y-82160714D01*
X117239523Y-82255952D01*
X117191904Y-82303571D01*
X117096666Y-82351190D01*
X116715714Y-82351190D01*
X118239523Y-82827380D02*
X117668095Y-82827380D01*
X117953809Y-82827380D02*
X117953809Y-81827380D01*
X117858571Y-81970238D01*
X117763333Y-82065476D01*
X117668095Y-82113095D01*
X118620476Y-81922619D02*
X118668095Y-81875000D01*
X118763333Y-81827380D01*
X119001428Y-81827380D01*
X119096666Y-81875000D01*
X119144285Y-81922619D01*
X119191904Y-82017857D01*
X119191904Y-82113095D01*
X119144285Y-82255952D01*
X118572857Y-82827380D01*
X119191904Y-82827380D01*
%TO.C,R10*%
X124902380Y-105877857D02*
X124426190Y-106211190D01*
X124902380Y-106449285D02*
X123902380Y-106449285D01*
X123902380Y-106068333D01*
X123950000Y-105973095D01*
X123997619Y-105925476D01*
X124092857Y-105877857D01*
X124235714Y-105877857D01*
X124330952Y-105925476D01*
X124378571Y-105973095D01*
X124426190Y-106068333D01*
X124426190Y-106449285D01*
X124902380Y-104925476D02*
X124902380Y-105496904D01*
X124902380Y-105211190D02*
X123902380Y-105211190D01*
X124045238Y-105306428D01*
X124140476Y-105401666D01*
X124188095Y-105496904D01*
X123902380Y-104306428D02*
X123902380Y-104211190D01*
X123950000Y-104115952D01*
X123997619Y-104068333D01*
X124092857Y-104020714D01*
X124283333Y-103973095D01*
X124521428Y-103973095D01*
X124711904Y-104020714D01*
X124807142Y-104068333D01*
X124854761Y-104115952D01*
X124902380Y-104211190D01*
X124902380Y-104306428D01*
X124854761Y-104401666D01*
X124807142Y-104449285D01*
X124711904Y-104496904D01*
X124521428Y-104544523D01*
X124283333Y-104544523D01*
X124092857Y-104496904D01*
X123997619Y-104449285D01*
X123950000Y-104401666D01*
X123902380Y-104306428D01*
%TO.C,Q5*%
X134344761Y-124442619D02*
X134249523Y-124395000D01*
X134154285Y-124299761D01*
X134011428Y-124156904D01*
X133916190Y-124109285D01*
X133820952Y-124109285D01*
X133868571Y-124347380D02*
X133773333Y-124299761D01*
X133678095Y-124204523D01*
X133630476Y-124014047D01*
X133630476Y-123680714D01*
X133678095Y-123490238D01*
X133773333Y-123395000D01*
X133868571Y-123347380D01*
X134059047Y-123347380D01*
X134154285Y-123395000D01*
X134249523Y-123490238D01*
X134297142Y-123680714D01*
X134297142Y-124014047D01*
X134249523Y-124204523D01*
X134154285Y-124299761D01*
X134059047Y-124347380D01*
X133868571Y-124347380D01*
X135201904Y-123347380D02*
X134725714Y-123347380D01*
X134678095Y-123823571D01*
X134725714Y-123775952D01*
X134820952Y-123728333D01*
X135059047Y-123728333D01*
X135154285Y-123775952D01*
X135201904Y-123823571D01*
X135249523Y-123918809D01*
X135249523Y-124156904D01*
X135201904Y-124252142D01*
X135154285Y-124299761D01*
X135059047Y-124347380D01*
X134820952Y-124347380D01*
X134725714Y-124299761D01*
X134678095Y-124252142D01*
%TO.C,C27*%
X165567142Y-76687857D02*
X165614761Y-76735476D01*
X165662380Y-76878333D01*
X165662380Y-76973571D01*
X165614761Y-77116428D01*
X165519523Y-77211666D01*
X165424285Y-77259285D01*
X165233809Y-77306904D01*
X165090952Y-77306904D01*
X164900476Y-77259285D01*
X164805238Y-77211666D01*
X164710000Y-77116428D01*
X164662380Y-76973571D01*
X164662380Y-76878333D01*
X164710000Y-76735476D01*
X164757619Y-76687857D01*
X164757619Y-76306904D02*
X164710000Y-76259285D01*
X164662380Y-76164047D01*
X164662380Y-75925952D01*
X164710000Y-75830714D01*
X164757619Y-75783095D01*
X164852857Y-75735476D01*
X164948095Y-75735476D01*
X165090952Y-75783095D01*
X165662380Y-76354523D01*
X165662380Y-75735476D01*
X164662380Y-75402142D02*
X164662380Y-74735476D01*
X165662380Y-75164047D01*
%TO.C,C19*%
X178267142Y-76687857D02*
X178314761Y-76735476D01*
X178362380Y-76878333D01*
X178362380Y-76973571D01*
X178314761Y-77116428D01*
X178219523Y-77211666D01*
X178124285Y-77259285D01*
X177933809Y-77306904D01*
X177790952Y-77306904D01*
X177600476Y-77259285D01*
X177505238Y-77211666D01*
X177410000Y-77116428D01*
X177362380Y-76973571D01*
X177362380Y-76878333D01*
X177410000Y-76735476D01*
X177457619Y-76687857D01*
X178362380Y-75735476D02*
X178362380Y-76306904D01*
X178362380Y-76021190D02*
X177362380Y-76021190D01*
X177505238Y-76116428D01*
X177600476Y-76211666D01*
X177648095Y-76306904D01*
X178362380Y-75259285D02*
X178362380Y-75068809D01*
X178314761Y-74973571D01*
X178267142Y-74925952D01*
X178124285Y-74830714D01*
X177933809Y-74783095D01*
X177552857Y-74783095D01*
X177457619Y-74830714D01*
X177410000Y-74878333D01*
X177362380Y-74973571D01*
X177362380Y-75164047D01*
X177410000Y-75259285D01*
X177457619Y-75306904D01*
X177552857Y-75354523D01*
X177790952Y-75354523D01*
X177886190Y-75306904D01*
X177933809Y-75259285D01*
X177981428Y-75164047D01*
X177981428Y-74973571D01*
X177933809Y-74878333D01*
X177886190Y-74830714D01*
X177790952Y-74783095D01*
%TO.C,C10*%
X152867142Y-76687857D02*
X152914761Y-76735476D01*
X152962380Y-76878333D01*
X152962380Y-76973571D01*
X152914761Y-77116428D01*
X152819523Y-77211666D01*
X152724285Y-77259285D01*
X152533809Y-77306904D01*
X152390952Y-77306904D01*
X152200476Y-77259285D01*
X152105238Y-77211666D01*
X152010000Y-77116428D01*
X151962380Y-76973571D01*
X151962380Y-76878333D01*
X152010000Y-76735476D01*
X152057619Y-76687857D01*
X152962380Y-75735476D02*
X152962380Y-76306904D01*
X152962380Y-76021190D02*
X151962380Y-76021190D01*
X152105238Y-76116428D01*
X152200476Y-76211666D01*
X152248095Y-76306904D01*
X151962380Y-75116428D02*
X151962380Y-75021190D01*
X152010000Y-74925952D01*
X152057619Y-74878333D01*
X152152857Y-74830714D01*
X152343333Y-74783095D01*
X152581428Y-74783095D01*
X152771904Y-74830714D01*
X152867142Y-74878333D01*
X152914761Y-74925952D01*
X152962380Y-75021190D01*
X152962380Y-75116428D01*
X152914761Y-75211666D01*
X152867142Y-75259285D01*
X152771904Y-75306904D01*
X152581428Y-75354523D01*
X152343333Y-75354523D01*
X152152857Y-75306904D01*
X152057619Y-75259285D01*
X152010000Y-75211666D01*
X151962380Y-75116428D01*
%TO.C,C1*%
X140167142Y-76211666D02*
X140214761Y-76259285D01*
X140262380Y-76402142D01*
X140262380Y-76497380D01*
X140214761Y-76640238D01*
X140119523Y-76735476D01*
X140024285Y-76783095D01*
X139833809Y-76830714D01*
X139690952Y-76830714D01*
X139500476Y-76783095D01*
X139405238Y-76735476D01*
X139310000Y-76640238D01*
X139262380Y-76497380D01*
X139262380Y-76402142D01*
X139310000Y-76259285D01*
X139357619Y-76211666D01*
X140262380Y-75259285D02*
X140262380Y-75830714D01*
X140262380Y-75545000D02*
X139262380Y-75545000D01*
X139405238Y-75640238D01*
X139500476Y-75735476D01*
X139548095Y-75830714D01*
%TO.C,J11*%
X189510476Y-66817380D02*
X189510476Y-67531666D01*
X189462857Y-67674523D01*
X189367619Y-67769761D01*
X189224761Y-67817380D01*
X189129523Y-67817380D01*
X190510476Y-67817380D02*
X189939047Y-67817380D01*
X190224761Y-67817380D02*
X190224761Y-66817380D01*
X190129523Y-66960238D01*
X190034285Y-67055476D01*
X189939047Y-67103095D01*
X191462857Y-67817380D02*
X190891428Y-67817380D01*
X191177142Y-67817380D02*
X191177142Y-66817380D01*
X191081904Y-66960238D01*
X190986666Y-67055476D01*
X190891428Y-67103095D01*
%TO.C,U1*%
X117168095Y-91987380D02*
X117168095Y-92796904D01*
X117215714Y-92892142D01*
X117263333Y-92939761D01*
X117358571Y-92987380D01*
X117549047Y-92987380D01*
X117644285Y-92939761D01*
X117691904Y-92892142D01*
X117739523Y-92796904D01*
X117739523Y-91987380D01*
X118739523Y-92987380D02*
X118168095Y-92987380D01*
X118453809Y-92987380D02*
X118453809Y-91987380D01*
X118358571Y-92130238D01*
X118263333Y-92225476D01*
X118168095Y-92273095D01*
%TO.C,T1*%
X133892380Y-95836904D02*
X133892380Y-95265476D01*
X134892380Y-95551190D02*
X133892380Y-95551190D01*
X134892380Y-94408333D02*
X134892380Y-94979761D01*
X134892380Y-94694047D02*
X133892380Y-94694047D01*
X134035238Y-94789285D01*
X134130476Y-94884523D01*
X134178095Y-94979761D01*
%TO.C,R16*%
X116017142Y-77747380D02*
X115683809Y-77271190D01*
X115445714Y-77747380D02*
X115445714Y-76747380D01*
X115826666Y-76747380D01*
X115921904Y-76795000D01*
X115969523Y-76842619D01*
X116017142Y-76937857D01*
X116017142Y-77080714D01*
X115969523Y-77175952D01*
X115921904Y-77223571D01*
X115826666Y-77271190D01*
X115445714Y-77271190D01*
X116969523Y-77747380D02*
X116398095Y-77747380D01*
X116683809Y-77747380D02*
X116683809Y-76747380D01*
X116588571Y-76890238D01*
X116493333Y-76985476D01*
X116398095Y-77033095D01*
X117826666Y-76747380D02*
X117636190Y-76747380D01*
X117540952Y-76795000D01*
X117493333Y-76842619D01*
X117398095Y-76985476D01*
X117350476Y-77175952D01*
X117350476Y-77556904D01*
X117398095Y-77652142D01*
X117445714Y-77699761D01*
X117540952Y-77747380D01*
X117731428Y-77747380D01*
X117826666Y-77699761D01*
X117874285Y-77652142D01*
X117921904Y-77556904D01*
X117921904Y-77318809D01*
X117874285Y-77223571D01*
X117826666Y-77175952D01*
X117731428Y-77128333D01*
X117540952Y-77128333D01*
X117445714Y-77175952D01*
X117398095Y-77223571D01*
X117350476Y-77318809D01*
%TO.C,R15*%
X124732380Y-118577857D02*
X124256190Y-118911190D01*
X124732380Y-119149285D02*
X123732380Y-119149285D01*
X123732380Y-118768333D01*
X123780000Y-118673095D01*
X123827619Y-118625476D01*
X123922857Y-118577857D01*
X124065714Y-118577857D01*
X124160952Y-118625476D01*
X124208571Y-118673095D01*
X124256190Y-118768333D01*
X124256190Y-119149285D01*
X124732380Y-117625476D02*
X124732380Y-118196904D01*
X124732380Y-117911190D02*
X123732380Y-117911190D01*
X123875238Y-118006428D01*
X123970476Y-118101666D01*
X124018095Y-118196904D01*
X123732380Y-116720714D02*
X123732380Y-117196904D01*
X124208571Y-117244523D01*
X124160952Y-117196904D01*
X124113333Y-117101666D01*
X124113333Y-116863571D01*
X124160952Y-116768333D01*
X124208571Y-116720714D01*
X124303809Y-116673095D01*
X124541904Y-116673095D01*
X124637142Y-116720714D01*
X124684761Y-116768333D01*
X124732380Y-116863571D01*
X124732380Y-117101666D01*
X124684761Y-117196904D01*
X124637142Y-117244523D01*
%TO.C,R13*%
X122192380Y-116037857D02*
X121716190Y-116371190D01*
X122192380Y-116609285D02*
X121192380Y-116609285D01*
X121192380Y-116228333D01*
X121240000Y-116133095D01*
X121287619Y-116085476D01*
X121382857Y-116037857D01*
X121525714Y-116037857D01*
X121620952Y-116085476D01*
X121668571Y-116133095D01*
X121716190Y-116228333D01*
X121716190Y-116609285D01*
X122192380Y-115085476D02*
X122192380Y-115656904D01*
X122192380Y-115371190D02*
X121192380Y-115371190D01*
X121335238Y-115466428D01*
X121430476Y-115561666D01*
X121478095Y-115656904D01*
X121192380Y-114752142D02*
X121192380Y-114133095D01*
X121573333Y-114466428D01*
X121573333Y-114323571D01*
X121620952Y-114228333D01*
X121668571Y-114180714D01*
X121763809Y-114133095D01*
X122001904Y-114133095D01*
X122097142Y-114180714D01*
X122144761Y-114228333D01*
X122192380Y-114323571D01*
X122192380Y-114609285D01*
X122144761Y-114704523D01*
X122097142Y-114752142D01*
%TO.C,R11*%
X163002380Y-127467857D02*
X162526190Y-127801190D01*
X163002380Y-128039285D02*
X162002380Y-128039285D01*
X162002380Y-127658333D01*
X162050000Y-127563095D01*
X162097619Y-127515476D01*
X162192857Y-127467857D01*
X162335714Y-127467857D01*
X162430952Y-127515476D01*
X162478571Y-127563095D01*
X162526190Y-127658333D01*
X162526190Y-128039285D01*
X163002380Y-126515476D02*
X163002380Y-127086904D01*
X163002380Y-126801190D02*
X162002380Y-126801190D01*
X162145238Y-126896428D01*
X162240476Y-126991666D01*
X162288095Y-127086904D01*
X163002380Y-125563095D02*
X163002380Y-126134523D01*
X163002380Y-125848809D02*
X162002380Y-125848809D01*
X162145238Y-125944047D01*
X162240476Y-126039285D01*
X162288095Y-126134523D01*
%TO.C,R9*%
X134273333Y-105687380D02*
X133940000Y-105211190D01*
X133701904Y-105687380D02*
X133701904Y-104687380D01*
X134082857Y-104687380D01*
X134178095Y-104735000D01*
X134225714Y-104782619D01*
X134273333Y-104877857D01*
X134273333Y-105020714D01*
X134225714Y-105115952D01*
X134178095Y-105163571D01*
X134082857Y-105211190D01*
X133701904Y-105211190D01*
X134749523Y-105687380D02*
X134940000Y-105687380D01*
X135035238Y-105639761D01*
X135082857Y-105592142D01*
X135178095Y-105449285D01*
X135225714Y-105258809D01*
X135225714Y-104877857D01*
X135178095Y-104782619D01*
X135130476Y-104735000D01*
X135035238Y-104687380D01*
X134844761Y-104687380D01*
X134749523Y-104735000D01*
X134701904Y-104782619D01*
X134654285Y-104877857D01*
X134654285Y-105115952D01*
X134701904Y-105211190D01*
X134749523Y-105258809D01*
X134844761Y-105306428D01*
X135035238Y-105306428D01*
X135130476Y-105258809D01*
X135178095Y-105211190D01*
X135225714Y-105115952D01*
%TO.C,R8*%
X172822380Y-126991666D02*
X172346190Y-127325000D01*
X172822380Y-127563095D02*
X171822380Y-127563095D01*
X171822380Y-127182142D01*
X171870000Y-127086904D01*
X171917619Y-127039285D01*
X172012857Y-126991666D01*
X172155714Y-126991666D01*
X172250952Y-127039285D01*
X172298571Y-127086904D01*
X172346190Y-127182142D01*
X172346190Y-127563095D01*
X172250952Y-126420238D02*
X172203333Y-126515476D01*
X172155714Y-126563095D01*
X172060476Y-126610714D01*
X172012857Y-126610714D01*
X171917619Y-126563095D01*
X171870000Y-126515476D01*
X171822380Y-126420238D01*
X171822380Y-126229761D01*
X171870000Y-126134523D01*
X171917619Y-126086904D01*
X172012857Y-126039285D01*
X172060476Y-126039285D01*
X172155714Y-126086904D01*
X172203333Y-126134523D01*
X172250952Y-126229761D01*
X172250952Y-126420238D01*
X172298571Y-126515476D01*
X172346190Y-126563095D01*
X172441428Y-126610714D01*
X172631904Y-126610714D01*
X172727142Y-126563095D01*
X172774761Y-126515476D01*
X172822380Y-126420238D01*
X172822380Y-126229761D01*
X172774761Y-126134523D01*
X172727142Y-126086904D01*
X172631904Y-126039285D01*
X172441428Y-126039285D01*
X172346190Y-126086904D01*
X172298571Y-126134523D01*
X172250952Y-126229761D01*
%TO.C,R7*%
X127923333Y-77747380D02*
X127590000Y-77271190D01*
X127351904Y-77747380D02*
X127351904Y-76747380D01*
X127732857Y-76747380D01*
X127828095Y-76795000D01*
X127875714Y-76842619D01*
X127923333Y-76937857D01*
X127923333Y-77080714D01*
X127875714Y-77175952D01*
X127828095Y-77223571D01*
X127732857Y-77271190D01*
X127351904Y-77271190D01*
X128256666Y-76747380D02*
X128923333Y-76747380D01*
X128494761Y-77747380D01*
%TO.C,R6*%
X185522380Y-126991666D02*
X185046190Y-127325000D01*
X185522380Y-127563095D02*
X184522380Y-127563095D01*
X184522380Y-127182142D01*
X184570000Y-127086904D01*
X184617619Y-127039285D01*
X184712857Y-126991666D01*
X184855714Y-126991666D01*
X184950952Y-127039285D01*
X184998571Y-127086904D01*
X185046190Y-127182142D01*
X185046190Y-127563095D01*
X184522380Y-126134523D02*
X184522380Y-126325000D01*
X184570000Y-126420238D01*
X184617619Y-126467857D01*
X184760476Y-126563095D01*
X184950952Y-126610714D01*
X185331904Y-126610714D01*
X185427142Y-126563095D01*
X185474761Y-126515476D01*
X185522380Y-126420238D01*
X185522380Y-126229761D01*
X185474761Y-126134523D01*
X185427142Y-126086904D01*
X185331904Y-126039285D01*
X185093809Y-126039285D01*
X184998571Y-126086904D01*
X184950952Y-126134523D01*
X184903333Y-126229761D01*
X184903333Y-126420238D01*
X184950952Y-126515476D01*
X184998571Y-126563095D01*
X185093809Y-126610714D01*
%TO.C,R5*%
X175702380Y-126991666D02*
X175226190Y-127325000D01*
X175702380Y-127563095D02*
X174702380Y-127563095D01*
X174702380Y-127182142D01*
X174750000Y-127086904D01*
X174797619Y-127039285D01*
X174892857Y-126991666D01*
X175035714Y-126991666D01*
X175130952Y-127039285D01*
X175178571Y-127086904D01*
X175226190Y-127182142D01*
X175226190Y-127563095D01*
X174702380Y-126086904D02*
X174702380Y-126563095D01*
X175178571Y-126610714D01*
X175130952Y-126563095D01*
X175083333Y-126467857D01*
X175083333Y-126229761D01*
X175130952Y-126134523D01*
X175178571Y-126086904D01*
X175273809Y-126039285D01*
X175511904Y-126039285D01*
X175607142Y-126086904D01*
X175654761Y-126134523D01*
X175702380Y-126229761D01*
X175702380Y-126467857D01*
X175654761Y-126563095D01*
X175607142Y-126610714D01*
%TO.C,R4*%
X160122380Y-126991666D02*
X159646190Y-127325000D01*
X160122380Y-127563095D02*
X159122380Y-127563095D01*
X159122380Y-127182142D01*
X159170000Y-127086904D01*
X159217619Y-127039285D01*
X159312857Y-126991666D01*
X159455714Y-126991666D01*
X159550952Y-127039285D01*
X159598571Y-127086904D01*
X159646190Y-127182142D01*
X159646190Y-127563095D01*
X159455714Y-126134523D02*
X160122380Y-126134523D01*
X159074761Y-126372619D02*
X159789047Y-126610714D01*
X159789047Y-125991666D01*
%TO.C,R3*%
X150302380Y-126991666D02*
X149826190Y-127325000D01*
X150302380Y-127563095D02*
X149302380Y-127563095D01*
X149302380Y-127182142D01*
X149350000Y-127086904D01*
X149397619Y-127039285D01*
X149492857Y-126991666D01*
X149635714Y-126991666D01*
X149730952Y-127039285D01*
X149778571Y-127086904D01*
X149826190Y-127182142D01*
X149826190Y-127563095D01*
X149302380Y-126658333D02*
X149302380Y-126039285D01*
X149683333Y-126372619D01*
X149683333Y-126229761D01*
X149730952Y-126134523D01*
X149778571Y-126086904D01*
X149873809Y-126039285D01*
X150111904Y-126039285D01*
X150207142Y-126086904D01*
X150254761Y-126134523D01*
X150302380Y-126229761D01*
X150302380Y-126515476D01*
X150254761Y-126610714D01*
X150207142Y-126658333D01*
%TO.C,R2*%
X147422380Y-126991666D02*
X146946190Y-127325000D01*
X147422380Y-127563095D02*
X146422380Y-127563095D01*
X146422380Y-127182142D01*
X146470000Y-127086904D01*
X146517619Y-127039285D01*
X146612857Y-126991666D01*
X146755714Y-126991666D01*
X146850952Y-127039285D01*
X146898571Y-127086904D01*
X146946190Y-127182142D01*
X146946190Y-127563095D01*
X146517619Y-126610714D02*
X146470000Y-126563095D01*
X146422380Y-126467857D01*
X146422380Y-126229761D01*
X146470000Y-126134523D01*
X146517619Y-126086904D01*
X146612857Y-126039285D01*
X146708095Y-126039285D01*
X146850952Y-126086904D01*
X147422380Y-126658333D01*
X147422380Y-126039285D01*
%TO.C,R1*%
X137602380Y-126991666D02*
X137126190Y-127325000D01*
X137602380Y-127563095D02*
X136602380Y-127563095D01*
X136602380Y-127182142D01*
X136650000Y-127086904D01*
X136697619Y-127039285D01*
X136792857Y-126991666D01*
X136935714Y-126991666D01*
X137030952Y-127039285D01*
X137078571Y-127086904D01*
X137126190Y-127182142D01*
X137126190Y-127563095D01*
X137602380Y-126039285D02*
X137602380Y-126610714D01*
X137602380Y-126325000D02*
X136602380Y-126325000D01*
X136745238Y-126420238D01*
X136840476Y-126515476D01*
X136888095Y-126610714D01*
%TO.C,Q11*%
X126248571Y-88002619D02*
X126153333Y-87955000D01*
X126058095Y-87859761D01*
X125915238Y-87716904D01*
X125820000Y-87669285D01*
X125724761Y-87669285D01*
X125772380Y-87907380D02*
X125677142Y-87859761D01*
X125581904Y-87764523D01*
X125534285Y-87574047D01*
X125534285Y-87240714D01*
X125581904Y-87050238D01*
X125677142Y-86955000D01*
X125772380Y-86907380D01*
X125962857Y-86907380D01*
X126058095Y-86955000D01*
X126153333Y-87050238D01*
X126200952Y-87240714D01*
X126200952Y-87574047D01*
X126153333Y-87764523D01*
X126058095Y-87859761D01*
X125962857Y-87907380D01*
X125772380Y-87907380D01*
X127153333Y-87907380D02*
X126581904Y-87907380D01*
X126867619Y-87907380D02*
X126867619Y-86907380D01*
X126772380Y-87050238D01*
X126677142Y-87145476D01*
X126581904Y-87193095D01*
X128105714Y-87907380D02*
X127534285Y-87907380D01*
X127820000Y-87907380D02*
X127820000Y-86907380D01*
X127724761Y-87050238D01*
X127629523Y-87145476D01*
X127534285Y-87193095D01*
%TO.C,Q10*%
X165467619Y-123586428D02*
X165420000Y-123681666D01*
X165324761Y-123776904D01*
X165181904Y-123919761D01*
X165134285Y-124015000D01*
X165134285Y-124110238D01*
X165372380Y-124062619D02*
X165324761Y-124157857D01*
X165229523Y-124253095D01*
X165039047Y-124300714D01*
X164705714Y-124300714D01*
X164515238Y-124253095D01*
X164420000Y-124157857D01*
X164372380Y-124062619D01*
X164372380Y-123872142D01*
X164420000Y-123776904D01*
X164515238Y-123681666D01*
X164705714Y-123634047D01*
X165039047Y-123634047D01*
X165229523Y-123681666D01*
X165324761Y-123776904D01*
X165372380Y-123872142D01*
X165372380Y-124062619D01*
X165372380Y-122681666D02*
X165372380Y-123253095D01*
X165372380Y-122967380D02*
X164372380Y-122967380D01*
X164515238Y-123062619D01*
X164610476Y-123157857D01*
X164658095Y-123253095D01*
X164372380Y-122062619D02*
X164372380Y-121967380D01*
X164420000Y-121872142D01*
X164467619Y-121824523D01*
X164562857Y-121776904D01*
X164753333Y-121729285D01*
X164991428Y-121729285D01*
X165181904Y-121776904D01*
X165277142Y-121824523D01*
X165324761Y-121872142D01*
X165372380Y-121967380D01*
X165372380Y-122062619D01*
X165324761Y-122157857D01*
X165277142Y-122205476D01*
X165181904Y-122253095D01*
X164991428Y-122300714D01*
X164753333Y-122300714D01*
X164562857Y-122253095D01*
X164467619Y-122205476D01*
X164420000Y-122157857D01*
X164372380Y-122062619D01*
%TO.C,Q9*%
X126724761Y-93082619D02*
X126629523Y-93035000D01*
X126534285Y-92939761D01*
X126391428Y-92796904D01*
X126296190Y-92749285D01*
X126200952Y-92749285D01*
X126248571Y-92987380D02*
X126153333Y-92939761D01*
X126058095Y-92844523D01*
X126010476Y-92654047D01*
X126010476Y-92320714D01*
X126058095Y-92130238D01*
X126153333Y-92035000D01*
X126248571Y-91987380D01*
X126439047Y-91987380D01*
X126534285Y-92035000D01*
X126629523Y-92130238D01*
X126677142Y-92320714D01*
X126677142Y-92654047D01*
X126629523Y-92844523D01*
X126534285Y-92939761D01*
X126439047Y-92987380D01*
X126248571Y-92987380D01*
X127153333Y-92987380D02*
X127343809Y-92987380D01*
X127439047Y-92939761D01*
X127486666Y-92892142D01*
X127581904Y-92749285D01*
X127629523Y-92558809D01*
X127629523Y-92177857D01*
X127581904Y-92082619D01*
X127534285Y-92035000D01*
X127439047Y-91987380D01*
X127248571Y-91987380D01*
X127153333Y-92035000D01*
X127105714Y-92082619D01*
X127058095Y-92177857D01*
X127058095Y-92415952D01*
X127105714Y-92511190D01*
X127153333Y-92558809D01*
X127248571Y-92606428D01*
X127439047Y-92606428D01*
X127534285Y-92558809D01*
X127581904Y-92511190D01*
X127629523Y-92415952D01*
%TO.C,Q8*%
X127367619Y-118030238D02*
X127320000Y-118125476D01*
X127224761Y-118220714D01*
X127081904Y-118363571D01*
X127034285Y-118458809D01*
X127034285Y-118554047D01*
X127272380Y-118506428D02*
X127224761Y-118601666D01*
X127129523Y-118696904D01*
X126939047Y-118744523D01*
X126605714Y-118744523D01*
X126415238Y-118696904D01*
X126320000Y-118601666D01*
X126272380Y-118506428D01*
X126272380Y-118315952D01*
X126320000Y-118220714D01*
X126415238Y-118125476D01*
X126605714Y-118077857D01*
X126939047Y-118077857D01*
X127129523Y-118125476D01*
X127224761Y-118220714D01*
X127272380Y-118315952D01*
X127272380Y-118506428D01*
X126700952Y-117506428D02*
X126653333Y-117601666D01*
X126605714Y-117649285D01*
X126510476Y-117696904D01*
X126462857Y-117696904D01*
X126367619Y-117649285D01*
X126320000Y-117601666D01*
X126272380Y-117506428D01*
X126272380Y-117315952D01*
X126320000Y-117220714D01*
X126367619Y-117173095D01*
X126462857Y-117125476D01*
X126510476Y-117125476D01*
X126605714Y-117173095D01*
X126653333Y-117220714D01*
X126700952Y-117315952D01*
X126700952Y-117506428D01*
X126748571Y-117601666D01*
X126796190Y-117649285D01*
X126891428Y-117696904D01*
X127081904Y-117696904D01*
X127177142Y-117649285D01*
X127224761Y-117601666D01*
X127272380Y-117506428D01*
X127272380Y-117315952D01*
X127224761Y-117220714D01*
X127177142Y-117173095D01*
X127081904Y-117125476D01*
X126891428Y-117125476D01*
X126796190Y-117173095D01*
X126748571Y-117220714D01*
X126700952Y-117315952D01*
%TO.C,Q7*%
X126724761Y-98162619D02*
X126629523Y-98115000D01*
X126534285Y-98019761D01*
X126391428Y-97876904D01*
X126296190Y-97829285D01*
X126200952Y-97829285D01*
X126248571Y-98067380D02*
X126153333Y-98019761D01*
X126058095Y-97924523D01*
X126010476Y-97734047D01*
X126010476Y-97400714D01*
X126058095Y-97210238D01*
X126153333Y-97115000D01*
X126248571Y-97067380D01*
X126439047Y-97067380D01*
X126534285Y-97115000D01*
X126629523Y-97210238D01*
X126677142Y-97400714D01*
X126677142Y-97734047D01*
X126629523Y-97924523D01*
X126534285Y-98019761D01*
X126439047Y-98067380D01*
X126248571Y-98067380D01*
X127010476Y-97067380D02*
X127677142Y-97067380D01*
X127248571Y-98067380D01*
%TO.C,Q6*%
X126724761Y-103302619D02*
X126629523Y-103255000D01*
X126534285Y-103159761D01*
X126391428Y-103016904D01*
X126296190Y-102969285D01*
X126200952Y-102969285D01*
X126248571Y-103207380D02*
X126153333Y-103159761D01*
X126058095Y-103064523D01*
X126010476Y-102874047D01*
X126010476Y-102540714D01*
X126058095Y-102350238D01*
X126153333Y-102255000D01*
X126248571Y-102207380D01*
X126439047Y-102207380D01*
X126534285Y-102255000D01*
X126629523Y-102350238D01*
X126677142Y-102540714D01*
X126677142Y-102874047D01*
X126629523Y-103064523D01*
X126534285Y-103159761D01*
X126439047Y-103207380D01*
X126248571Y-103207380D01*
X127534285Y-102207380D02*
X127343809Y-102207380D01*
X127248571Y-102255000D01*
X127200952Y-102302619D01*
X127105714Y-102445476D01*
X127058095Y-102635952D01*
X127058095Y-103016904D01*
X127105714Y-103112142D01*
X127153333Y-103159761D01*
X127248571Y-103207380D01*
X127439047Y-103207380D01*
X127534285Y-103159761D01*
X127581904Y-103112142D01*
X127629523Y-103016904D01*
X127629523Y-102778809D01*
X127581904Y-102683571D01*
X127534285Y-102635952D01*
X127439047Y-102588333D01*
X127248571Y-102588333D01*
X127153333Y-102635952D01*
X127105714Y-102683571D01*
X127058095Y-102778809D01*
%TO.C,Q4*%
X116564761Y-80382619D02*
X116469523Y-80335000D01*
X116374285Y-80239761D01*
X116231428Y-80096904D01*
X116136190Y-80049285D01*
X116040952Y-80049285D01*
X116088571Y-80287380D02*
X115993333Y-80239761D01*
X115898095Y-80144523D01*
X115850476Y-79954047D01*
X115850476Y-79620714D01*
X115898095Y-79430238D01*
X115993333Y-79335000D01*
X116088571Y-79287380D01*
X116279047Y-79287380D01*
X116374285Y-79335000D01*
X116469523Y-79430238D01*
X116517142Y-79620714D01*
X116517142Y-79954047D01*
X116469523Y-80144523D01*
X116374285Y-80239761D01*
X116279047Y-80287380D01*
X116088571Y-80287380D01*
X117374285Y-79620714D02*
X117374285Y-80287380D01*
X117136190Y-79239761D02*
X116898095Y-79954047D01*
X117517142Y-79954047D01*
%TO.C,Q3*%
X178167619Y-123110238D02*
X178120000Y-123205476D01*
X178024761Y-123300714D01*
X177881904Y-123443571D01*
X177834285Y-123538809D01*
X177834285Y-123634047D01*
X178072380Y-123586428D02*
X178024761Y-123681666D01*
X177929523Y-123776904D01*
X177739047Y-123824523D01*
X177405714Y-123824523D01*
X177215238Y-123776904D01*
X177120000Y-123681666D01*
X177072380Y-123586428D01*
X177072380Y-123395952D01*
X177120000Y-123300714D01*
X177215238Y-123205476D01*
X177405714Y-123157857D01*
X177739047Y-123157857D01*
X177929523Y-123205476D01*
X178024761Y-123300714D01*
X178072380Y-123395952D01*
X178072380Y-123586428D01*
X177072380Y-122824523D02*
X177072380Y-122205476D01*
X177453333Y-122538809D01*
X177453333Y-122395952D01*
X177500952Y-122300714D01*
X177548571Y-122253095D01*
X177643809Y-122205476D01*
X177881904Y-122205476D01*
X177977142Y-122253095D01*
X178024761Y-122300714D01*
X178072380Y-122395952D01*
X178072380Y-122681666D01*
X178024761Y-122776904D01*
X177977142Y-122824523D01*
%TO.C,Q2*%
X152767619Y-123110238D02*
X152720000Y-123205476D01*
X152624761Y-123300714D01*
X152481904Y-123443571D01*
X152434285Y-123538809D01*
X152434285Y-123634047D01*
X152672380Y-123586428D02*
X152624761Y-123681666D01*
X152529523Y-123776904D01*
X152339047Y-123824523D01*
X152005714Y-123824523D01*
X151815238Y-123776904D01*
X151720000Y-123681666D01*
X151672380Y-123586428D01*
X151672380Y-123395952D01*
X151720000Y-123300714D01*
X151815238Y-123205476D01*
X152005714Y-123157857D01*
X152339047Y-123157857D01*
X152529523Y-123205476D01*
X152624761Y-123300714D01*
X152672380Y-123395952D01*
X152672380Y-123586428D01*
X151767619Y-122776904D02*
X151720000Y-122729285D01*
X151672380Y-122634047D01*
X151672380Y-122395952D01*
X151720000Y-122300714D01*
X151767619Y-122253095D01*
X151862857Y-122205476D01*
X151958095Y-122205476D01*
X152100952Y-122253095D01*
X152672380Y-122824523D01*
X152672380Y-122205476D01*
%TO.C,Q1*%
X140067619Y-123110238D02*
X140020000Y-123205476D01*
X139924761Y-123300714D01*
X139781904Y-123443571D01*
X139734285Y-123538809D01*
X139734285Y-123634047D01*
X139972380Y-123586428D02*
X139924761Y-123681666D01*
X139829523Y-123776904D01*
X139639047Y-123824523D01*
X139305714Y-123824523D01*
X139115238Y-123776904D01*
X139020000Y-123681666D01*
X138972380Y-123586428D01*
X138972380Y-123395952D01*
X139020000Y-123300714D01*
X139115238Y-123205476D01*
X139305714Y-123157857D01*
X139639047Y-123157857D01*
X139829523Y-123205476D01*
X139924761Y-123300714D01*
X139972380Y-123395952D01*
X139972380Y-123586428D01*
X139972380Y-122205476D02*
X139972380Y-122776904D01*
X139972380Y-122491190D02*
X138972380Y-122491190D01*
X139115238Y-122586428D01*
X139210476Y-122681666D01*
X139258095Y-122776904D01*
%TO.C,L13*%
X170452380Y-67777857D02*
X170452380Y-68254047D01*
X169452380Y-68254047D01*
X170452380Y-66920714D02*
X170452380Y-67492142D01*
X170452380Y-67206428D02*
X169452380Y-67206428D01*
X169595238Y-67301666D01*
X169690476Y-67396904D01*
X169738095Y-67492142D01*
X169452380Y-66587380D02*
X169452380Y-65968333D01*
X169833333Y-66301666D01*
X169833333Y-66158809D01*
X169880952Y-66063571D01*
X169928571Y-66015952D01*
X170023809Y-65968333D01*
X170261904Y-65968333D01*
X170357142Y-66015952D01*
X170404761Y-66063571D01*
X170452380Y-66158809D01*
X170452380Y-66444523D01*
X170404761Y-66539761D01*
X170357142Y-66587380D01*
%TO.C,L12*%
X185692380Y-118577857D02*
X185692380Y-119054047D01*
X184692380Y-119054047D01*
X185692380Y-117720714D02*
X185692380Y-118292142D01*
X185692380Y-118006428D02*
X184692380Y-118006428D01*
X184835238Y-118101666D01*
X184930476Y-118196904D01*
X184978095Y-118292142D01*
X184787619Y-117339761D02*
X184740000Y-117292142D01*
X184692380Y-117196904D01*
X184692380Y-116958809D01*
X184740000Y-116863571D01*
X184787619Y-116815952D01*
X184882857Y-116768333D01*
X184978095Y-116768333D01*
X185120952Y-116815952D01*
X185692380Y-117387380D01*
X185692380Y-116768333D01*
%TO.C,L11*%
X171897142Y-118387380D02*
X171420952Y-118387380D01*
X171420952Y-117387380D01*
X172754285Y-118387380D02*
X172182857Y-118387380D01*
X172468571Y-118387380D02*
X172468571Y-117387380D01*
X172373333Y-117530238D01*
X172278095Y-117625476D01*
X172182857Y-117673095D01*
X173706666Y-118387380D02*
X173135238Y-118387380D01*
X173420952Y-118387380D02*
X173420952Y-117387380D01*
X173325714Y-117530238D01*
X173230476Y-117625476D01*
X173135238Y-117673095D01*
%TO.C,L10*%
X160292380Y-118577857D02*
X160292380Y-119054047D01*
X159292380Y-119054047D01*
X160292380Y-117720714D02*
X160292380Y-118292142D01*
X160292380Y-118006428D02*
X159292380Y-118006428D01*
X159435238Y-118101666D01*
X159530476Y-118196904D01*
X159578095Y-118292142D01*
X159292380Y-117101666D02*
X159292380Y-117006428D01*
X159340000Y-116911190D01*
X159387619Y-116863571D01*
X159482857Y-116815952D01*
X159673333Y-116768333D01*
X159911428Y-116768333D01*
X160101904Y-116815952D01*
X160197142Y-116863571D01*
X160244761Y-116911190D01*
X160292380Y-117006428D01*
X160292380Y-117101666D01*
X160244761Y-117196904D01*
X160197142Y-117244523D01*
X160101904Y-117292142D01*
X159911428Y-117339761D01*
X159673333Y-117339761D01*
X159482857Y-117292142D01*
X159387619Y-117244523D01*
X159340000Y-117196904D01*
X159292380Y-117101666D01*
%TO.C,L9*%
X146973333Y-118387380D02*
X146497142Y-118387380D01*
X146497142Y-117387380D01*
X147354285Y-118387380D02*
X147544761Y-118387380D01*
X147640000Y-118339761D01*
X147687619Y-118292142D01*
X147782857Y-118149285D01*
X147830476Y-117958809D01*
X147830476Y-117577857D01*
X147782857Y-117482619D01*
X147735238Y-117435000D01*
X147640000Y-117387380D01*
X147449523Y-117387380D01*
X147354285Y-117435000D01*
X147306666Y-117482619D01*
X147259047Y-117577857D01*
X147259047Y-117815952D01*
X147306666Y-117911190D01*
X147354285Y-117958809D01*
X147449523Y-118006428D01*
X147640000Y-118006428D01*
X147735238Y-117958809D01*
X147782857Y-117911190D01*
X147830476Y-117815952D01*
%TO.C,L8*%
X187613333Y-108227380D02*
X187137142Y-108227380D01*
X187137142Y-107227380D01*
X188089523Y-107655952D02*
X187994285Y-107608333D01*
X187946666Y-107560714D01*
X187899047Y-107465476D01*
X187899047Y-107417857D01*
X187946666Y-107322619D01*
X187994285Y-107275000D01*
X188089523Y-107227380D01*
X188280000Y-107227380D01*
X188375238Y-107275000D01*
X188422857Y-107322619D01*
X188470476Y-107417857D01*
X188470476Y-107465476D01*
X188422857Y-107560714D01*
X188375238Y-107608333D01*
X188280000Y-107655952D01*
X188089523Y-107655952D01*
X187994285Y-107703571D01*
X187946666Y-107751190D01*
X187899047Y-107846428D01*
X187899047Y-108036904D01*
X187946666Y-108132142D01*
X187994285Y-108179761D01*
X188089523Y-108227380D01*
X188280000Y-108227380D01*
X188375238Y-108179761D01*
X188422857Y-108132142D01*
X188470476Y-108036904D01*
X188470476Y-107846428D01*
X188422857Y-107751190D01*
X188375238Y-107703571D01*
X188280000Y-107655952D01*
%TO.C,L6*%
X162213333Y-108227380D02*
X161737142Y-108227380D01*
X161737142Y-107227380D01*
X162975238Y-107227380D02*
X162784761Y-107227380D01*
X162689523Y-107275000D01*
X162641904Y-107322619D01*
X162546666Y-107465476D01*
X162499047Y-107655952D01*
X162499047Y-108036904D01*
X162546666Y-108132142D01*
X162594285Y-108179761D01*
X162689523Y-108227380D01*
X162880000Y-108227380D01*
X162975238Y-108179761D01*
X163022857Y-108132142D01*
X163070476Y-108036904D01*
X163070476Y-107798809D01*
X163022857Y-107703571D01*
X162975238Y-107655952D01*
X162880000Y-107608333D01*
X162689523Y-107608333D01*
X162594285Y-107655952D01*
X162546666Y-107703571D01*
X162499047Y-107798809D01*
%TO.C,L4*%
X188232380Y-97781666D02*
X188232380Y-98257857D01*
X187232380Y-98257857D01*
X187565714Y-97019761D02*
X188232380Y-97019761D01*
X187184761Y-97257857D02*
X187899047Y-97495952D01*
X187899047Y-96876904D01*
%TO.C,L2*%
X162832380Y-97781666D02*
X162832380Y-98257857D01*
X161832380Y-98257857D01*
X161927619Y-97495952D02*
X161880000Y-97448333D01*
X161832380Y-97353095D01*
X161832380Y-97115000D01*
X161880000Y-97019761D01*
X161927619Y-96972142D01*
X162022857Y-96924523D01*
X162118095Y-96924523D01*
X162260952Y-96972142D01*
X162832380Y-97543571D01*
X162832380Y-96924523D01*
%TO.C,K4*%
X184501904Y-84097380D02*
X184501904Y-83097380D01*
X185073333Y-84097380D02*
X184644761Y-83525952D01*
X185073333Y-83097380D02*
X184501904Y-83668809D01*
X185930476Y-83430714D02*
X185930476Y-84097380D01*
X185692380Y-83049761D02*
X185454285Y-83764047D01*
X186073333Y-83764047D01*
%TO.C,K3*%
X171801904Y-84097380D02*
X171801904Y-83097380D01*
X172373333Y-84097380D02*
X171944761Y-83525952D01*
X172373333Y-83097380D02*
X171801904Y-83668809D01*
X172706666Y-83097380D02*
X173325714Y-83097380D01*
X172992380Y-83478333D01*
X173135238Y-83478333D01*
X173230476Y-83525952D01*
X173278095Y-83573571D01*
X173325714Y-83668809D01*
X173325714Y-83906904D01*
X173278095Y-84002142D01*
X173230476Y-84049761D01*
X173135238Y-84097380D01*
X172849523Y-84097380D01*
X172754285Y-84049761D01*
X172706666Y-84002142D01*
%TO.C,K2*%
X159101904Y-84097380D02*
X159101904Y-83097380D01*
X159673333Y-84097380D02*
X159244761Y-83525952D01*
X159673333Y-83097380D02*
X159101904Y-83668809D01*
X160054285Y-83192619D02*
X160101904Y-83145000D01*
X160197142Y-83097380D01*
X160435238Y-83097380D01*
X160530476Y-83145000D01*
X160578095Y-83192619D01*
X160625714Y-83287857D01*
X160625714Y-83383095D01*
X160578095Y-83525952D01*
X160006666Y-84097380D01*
X160625714Y-84097380D01*
%TO.C,K1*%
X146401904Y-84097380D02*
X146401904Y-83097380D01*
X146973333Y-84097380D02*
X146544761Y-83525952D01*
X146973333Y-83097380D02*
X146401904Y-83668809D01*
X147925714Y-84097380D02*
X147354285Y-84097380D01*
X147640000Y-84097380D02*
X147640000Y-83097380D01*
X147544761Y-83240238D01*
X147449523Y-83335476D01*
X147354285Y-83383095D01*
%TO.C,J7*%
X108706666Y-104457380D02*
X108706666Y-105171666D01*
X108659047Y-105314523D01*
X108563809Y-105409761D01*
X108420952Y-105457380D01*
X108325714Y-105457380D01*
X109087619Y-104457380D02*
X109754285Y-104457380D01*
X109325714Y-105457380D01*
%TO.C,J6*%
X108706666Y-76517380D02*
X108706666Y-77231666D01*
X108659047Y-77374523D01*
X108563809Y-77469761D01*
X108420952Y-77517380D01*
X108325714Y-77517380D01*
X109611428Y-76517380D02*
X109420952Y-76517380D01*
X109325714Y-76565000D01*
X109278095Y-76612619D01*
X109182857Y-76755476D01*
X109135238Y-76945952D01*
X109135238Y-77326904D01*
X109182857Y-77422142D01*
X109230476Y-77469761D01*
X109325714Y-77517380D01*
X109516190Y-77517380D01*
X109611428Y-77469761D01*
X109659047Y-77422142D01*
X109706666Y-77326904D01*
X109706666Y-77088809D01*
X109659047Y-76993571D01*
X109611428Y-76945952D01*
X109516190Y-76898333D01*
X109325714Y-76898333D01*
X109230476Y-76945952D01*
X109182857Y-76993571D01*
X109135238Y-77088809D01*
%TO.C,J3*%
X182366666Y-62777380D02*
X182366666Y-63491666D01*
X182319047Y-63634523D01*
X182223809Y-63729761D01*
X182080952Y-63777380D01*
X181985714Y-63777380D01*
X182747619Y-62777380D02*
X183366666Y-62777380D01*
X183033333Y-63158333D01*
X183176190Y-63158333D01*
X183271428Y-63205952D01*
X183319047Y-63253571D01*
X183366666Y-63348809D01*
X183366666Y-63586904D01*
X183319047Y-63682142D01*
X183271428Y-63729761D01*
X183176190Y-63777380D01*
X182890476Y-63777380D01*
X182795238Y-63729761D01*
X182747619Y-63682142D01*
%TO.C,J2*%
X133662380Y-133508333D02*
X134376666Y-133508333D01*
X134519523Y-133555952D01*
X134614761Y-133651190D01*
X134662380Y-133794047D01*
X134662380Y-133889285D01*
X133757619Y-133079761D02*
X133710000Y-133032142D01*
X133662380Y-132936904D01*
X133662380Y-132698809D01*
X133710000Y-132603571D01*
X133757619Y-132555952D01*
X133852857Y-132508333D01*
X133948095Y-132508333D01*
X134090952Y-132555952D01*
X134662380Y-133127380D01*
X134662380Y-132508333D01*
%TO.C,J1*%
X151886666Y-64047380D02*
X151886666Y-64761666D01*
X151839047Y-64904523D01*
X151743809Y-64999761D01*
X151600952Y-65047380D01*
X151505714Y-65047380D01*
X152886666Y-65047380D02*
X152315238Y-65047380D01*
X152600952Y-65047380D02*
X152600952Y-64047380D01*
X152505714Y-64190238D01*
X152410476Y-64285476D01*
X152315238Y-64333095D01*
%TO.C,D5*%
X171801904Y-75207380D02*
X171801904Y-74207380D01*
X172040000Y-74207380D01*
X172182857Y-74255000D01*
X172278095Y-74350238D01*
X172325714Y-74445476D01*
X172373333Y-74635952D01*
X172373333Y-74778809D01*
X172325714Y-74969285D01*
X172278095Y-75064523D01*
X172182857Y-75159761D01*
X172040000Y-75207380D01*
X171801904Y-75207380D01*
X173278095Y-74207380D02*
X172801904Y-74207380D01*
X172754285Y-74683571D01*
X172801904Y-74635952D01*
X172897142Y-74588333D01*
X173135238Y-74588333D01*
X173230476Y-74635952D01*
X173278095Y-74683571D01*
X173325714Y-74778809D01*
X173325714Y-75016904D01*
X173278095Y-75112142D01*
X173230476Y-75159761D01*
X173135238Y-75207380D01*
X172897142Y-75207380D01*
X172801904Y-75159761D01*
X172754285Y-75112142D01*
X169738095Y-73207380D02*
X169738095Y-72207380D01*
X170309523Y-73207380D02*
X169880952Y-72635952D01*
X170309523Y-72207380D02*
X169738095Y-72778809D01*
%TO.C,D4*%
X190851904Y-72667380D02*
X190851904Y-71667380D01*
X191090000Y-71667380D01*
X191232857Y-71715000D01*
X191328095Y-71810238D01*
X191375714Y-71905476D01*
X191423333Y-72095952D01*
X191423333Y-72238809D01*
X191375714Y-72429285D01*
X191328095Y-72524523D01*
X191232857Y-72619761D01*
X191090000Y-72667380D01*
X190851904Y-72667380D01*
X192280476Y-72000714D02*
X192280476Y-72667380D01*
X192042380Y-71619761D02*
X191804285Y-72334047D01*
X192423333Y-72334047D01*
X194741904Y-69841666D02*
X195218095Y-69841666D01*
X194646666Y-70127380D02*
X194980000Y-69127380D01*
X195313333Y-70127380D01*
%TO.C,D3*%
X184501904Y-75207380D02*
X184501904Y-74207380D01*
X184740000Y-74207380D01*
X184882857Y-74255000D01*
X184978095Y-74350238D01*
X185025714Y-74445476D01*
X185073333Y-74635952D01*
X185073333Y-74778809D01*
X185025714Y-74969285D01*
X184978095Y-75064523D01*
X184882857Y-75159761D01*
X184740000Y-75207380D01*
X184501904Y-75207380D01*
X185406666Y-74207380D02*
X186025714Y-74207380D01*
X185692380Y-74588333D01*
X185835238Y-74588333D01*
X185930476Y-74635952D01*
X185978095Y-74683571D01*
X186025714Y-74778809D01*
X186025714Y-75016904D01*
X185978095Y-75112142D01*
X185930476Y-75159761D01*
X185835238Y-75207380D01*
X185549523Y-75207380D01*
X185454285Y-75159761D01*
X185406666Y-75112142D01*
X182438095Y-73207380D02*
X182438095Y-72207380D01*
X183009523Y-73207380D02*
X182580952Y-72635952D01*
X183009523Y-72207380D02*
X182438095Y-72778809D01*
%TO.C,D2*%
X159101904Y-75207380D02*
X159101904Y-74207380D01*
X159340000Y-74207380D01*
X159482857Y-74255000D01*
X159578095Y-74350238D01*
X159625714Y-74445476D01*
X159673333Y-74635952D01*
X159673333Y-74778809D01*
X159625714Y-74969285D01*
X159578095Y-75064523D01*
X159482857Y-75159761D01*
X159340000Y-75207380D01*
X159101904Y-75207380D01*
X160054285Y-74302619D02*
X160101904Y-74255000D01*
X160197142Y-74207380D01*
X160435238Y-74207380D01*
X160530476Y-74255000D01*
X160578095Y-74302619D01*
X160625714Y-74397857D01*
X160625714Y-74493095D01*
X160578095Y-74635952D01*
X160006666Y-75207380D01*
X160625714Y-75207380D01*
X157038095Y-73207380D02*
X157038095Y-72207380D01*
X157609523Y-73207380D02*
X157180952Y-72635952D01*
X157609523Y-72207380D02*
X157038095Y-72778809D01*
%TO.C,D1*%
X146401904Y-74937380D02*
X146401904Y-73937380D01*
X146640000Y-73937380D01*
X146782857Y-73985000D01*
X146878095Y-74080238D01*
X146925714Y-74175476D01*
X146973333Y-74365952D01*
X146973333Y-74508809D01*
X146925714Y-74699285D01*
X146878095Y-74794523D01*
X146782857Y-74889761D01*
X146640000Y-74937380D01*
X146401904Y-74937380D01*
X147925714Y-74937380D02*
X147354285Y-74937380D01*
X147640000Y-74937380D02*
X147640000Y-73937380D01*
X147544761Y-74080238D01*
X147449523Y-74175476D01*
X147354285Y-74223095D01*
X144338095Y-72937380D02*
X144338095Y-71937380D01*
X144909523Y-72937380D02*
X144480952Y-72365952D01*
X144909523Y-71937380D02*
X144338095Y-72508809D01*
%TO.C,C24*%
X136417142Y-59872142D02*
X136369523Y-59919761D01*
X136226666Y-59967380D01*
X136131428Y-59967380D01*
X135988571Y-59919761D01*
X135893333Y-59824523D01*
X135845714Y-59729285D01*
X135798095Y-59538809D01*
X135798095Y-59395952D01*
X135845714Y-59205476D01*
X135893333Y-59110238D01*
X135988571Y-59015000D01*
X136131428Y-58967380D01*
X136226666Y-58967380D01*
X136369523Y-59015000D01*
X136417142Y-59062619D01*
X136798095Y-59062619D02*
X136845714Y-59015000D01*
X136940952Y-58967380D01*
X137179047Y-58967380D01*
X137274285Y-59015000D01*
X137321904Y-59062619D01*
X137369523Y-59157857D01*
X137369523Y-59253095D01*
X137321904Y-59395952D01*
X136750476Y-59967380D01*
X137369523Y-59967380D01*
X138226666Y-59300714D02*
X138226666Y-59967380D01*
X137988571Y-58919761D02*
X137750476Y-59634047D01*
X138369523Y-59634047D01*
%TO.C,C23*%
X128717142Y-103052142D02*
X128669523Y-103099761D01*
X128526666Y-103147380D01*
X128431428Y-103147380D01*
X128288571Y-103099761D01*
X128193333Y-103004523D01*
X128145714Y-102909285D01*
X128098095Y-102718809D01*
X128098095Y-102575952D01*
X128145714Y-102385476D01*
X128193333Y-102290238D01*
X128288571Y-102195000D01*
X128431428Y-102147380D01*
X128526666Y-102147380D01*
X128669523Y-102195000D01*
X128717142Y-102242619D01*
X129098095Y-102242619D02*
X129145714Y-102195000D01*
X129240952Y-102147380D01*
X129479047Y-102147380D01*
X129574285Y-102195000D01*
X129621904Y-102242619D01*
X129669523Y-102337857D01*
X129669523Y-102433095D01*
X129621904Y-102575952D01*
X129050476Y-103147380D01*
X129669523Y-103147380D01*
X130002857Y-102147380D02*
X130621904Y-102147380D01*
X130288571Y-102528333D01*
X130431428Y-102528333D01*
X130526666Y-102575952D01*
X130574285Y-102623571D01*
X130621904Y-102718809D01*
X130621904Y-102956904D01*
X130574285Y-103052142D01*
X130526666Y-103099761D01*
X130431428Y-103147380D01*
X130145714Y-103147380D01*
X130050476Y-103099761D01*
X130002857Y-103052142D01*
%TO.C,C22*%
X165277142Y-70317857D02*
X165324761Y-70365476D01*
X165372380Y-70508333D01*
X165372380Y-70603571D01*
X165324761Y-70746428D01*
X165229523Y-70841666D01*
X165134285Y-70889285D01*
X164943809Y-70936904D01*
X164800952Y-70936904D01*
X164610476Y-70889285D01*
X164515238Y-70841666D01*
X164420000Y-70746428D01*
X164372380Y-70603571D01*
X164372380Y-70508333D01*
X164420000Y-70365476D01*
X164467619Y-70317857D01*
X164467619Y-69936904D02*
X164420000Y-69889285D01*
X164372380Y-69794047D01*
X164372380Y-69555952D01*
X164420000Y-69460714D01*
X164467619Y-69413095D01*
X164562857Y-69365476D01*
X164658095Y-69365476D01*
X164800952Y-69413095D01*
X165372380Y-69984523D01*
X165372380Y-69365476D01*
X164467619Y-68984523D02*
X164420000Y-68936904D01*
X164372380Y-68841666D01*
X164372380Y-68603571D01*
X164420000Y-68508333D01*
X164467619Y-68460714D01*
X164562857Y-68413095D01*
X164658095Y-68413095D01*
X164800952Y-68460714D01*
X165372380Y-69032142D01*
X165372380Y-68413095D01*
%TO.C,C20*%
X132257142Y-85557857D02*
X132304761Y-85605476D01*
X132352380Y-85748333D01*
X132352380Y-85843571D01*
X132304761Y-85986428D01*
X132209523Y-86081666D01*
X132114285Y-86129285D01*
X131923809Y-86176904D01*
X131780952Y-86176904D01*
X131590476Y-86129285D01*
X131495238Y-86081666D01*
X131400000Y-85986428D01*
X131352380Y-85843571D01*
X131352380Y-85748333D01*
X131400000Y-85605476D01*
X131447619Y-85557857D01*
X131447619Y-85176904D02*
X131400000Y-85129285D01*
X131352380Y-85034047D01*
X131352380Y-84795952D01*
X131400000Y-84700714D01*
X131447619Y-84653095D01*
X131542857Y-84605476D01*
X131638095Y-84605476D01*
X131780952Y-84653095D01*
X132352380Y-85224523D01*
X132352380Y-84605476D01*
X131352380Y-83986428D02*
X131352380Y-83891190D01*
X131400000Y-83795952D01*
X131447619Y-83748333D01*
X131542857Y-83700714D01*
X131733333Y-83653095D01*
X131971428Y-83653095D01*
X132161904Y-83700714D01*
X132257142Y-83748333D01*
X132304761Y-83795952D01*
X132352380Y-83891190D01*
X132352380Y-83986428D01*
X132304761Y-84081666D01*
X132257142Y-84129285D01*
X132161904Y-84176904D01*
X131971428Y-84224523D01*
X131733333Y-84224523D01*
X131542857Y-84176904D01*
X131447619Y-84129285D01*
X131400000Y-84081666D01*
X131352380Y-83986428D01*
%TO.C,C18*%
X182057142Y-110962142D02*
X182009523Y-111009761D01*
X181866666Y-111057380D01*
X181771428Y-111057380D01*
X181628571Y-111009761D01*
X181533333Y-110914523D01*
X181485714Y-110819285D01*
X181438095Y-110628809D01*
X181438095Y-110485952D01*
X181485714Y-110295476D01*
X181533333Y-110200238D01*
X181628571Y-110105000D01*
X181771428Y-110057380D01*
X181866666Y-110057380D01*
X182009523Y-110105000D01*
X182057142Y-110152619D01*
X183009523Y-111057380D02*
X182438095Y-111057380D01*
X182723809Y-111057380D02*
X182723809Y-110057380D01*
X182628571Y-110200238D01*
X182533333Y-110295476D01*
X182438095Y-110343095D01*
X183580952Y-110485952D02*
X183485714Y-110438333D01*
X183438095Y-110390714D01*
X183390476Y-110295476D01*
X183390476Y-110247857D01*
X183438095Y-110152619D01*
X183485714Y-110105000D01*
X183580952Y-110057380D01*
X183771428Y-110057380D01*
X183866666Y-110105000D01*
X183914285Y-110152619D01*
X183961904Y-110247857D01*
X183961904Y-110295476D01*
X183914285Y-110390714D01*
X183866666Y-110438333D01*
X183771428Y-110485952D01*
X183580952Y-110485952D01*
X183485714Y-110533571D01*
X183438095Y-110581190D01*
X183390476Y-110676428D01*
X183390476Y-110866904D01*
X183438095Y-110962142D01*
X183485714Y-111009761D01*
X183580952Y-111057380D01*
X183771428Y-111057380D01*
X183866666Y-111009761D01*
X183914285Y-110962142D01*
X183961904Y-110866904D01*
X183961904Y-110676428D01*
X183914285Y-110581190D01*
X183866666Y-110533571D01*
X183771428Y-110485952D01*
%TO.C,C17*%
X170607142Y-110962142D02*
X170559523Y-111009761D01*
X170416666Y-111057380D01*
X170321428Y-111057380D01*
X170178571Y-111009761D01*
X170083333Y-110914523D01*
X170035714Y-110819285D01*
X169988095Y-110628809D01*
X169988095Y-110485952D01*
X170035714Y-110295476D01*
X170083333Y-110200238D01*
X170178571Y-110105000D01*
X170321428Y-110057380D01*
X170416666Y-110057380D01*
X170559523Y-110105000D01*
X170607142Y-110152619D01*
X171559523Y-111057380D02*
X170988095Y-111057380D01*
X171273809Y-111057380D02*
X171273809Y-110057380D01*
X171178571Y-110200238D01*
X171083333Y-110295476D01*
X170988095Y-110343095D01*
X171892857Y-110057380D02*
X172559523Y-110057380D01*
X172130952Y-111057380D01*
%TO.C,C16*%
X156657142Y-110962142D02*
X156609523Y-111009761D01*
X156466666Y-111057380D01*
X156371428Y-111057380D01*
X156228571Y-111009761D01*
X156133333Y-110914523D01*
X156085714Y-110819285D01*
X156038095Y-110628809D01*
X156038095Y-110485952D01*
X156085714Y-110295476D01*
X156133333Y-110200238D01*
X156228571Y-110105000D01*
X156371428Y-110057380D01*
X156466666Y-110057380D01*
X156609523Y-110105000D01*
X156657142Y-110152619D01*
X157609523Y-111057380D02*
X157038095Y-111057380D01*
X157323809Y-111057380D02*
X157323809Y-110057380D01*
X157228571Y-110200238D01*
X157133333Y-110295476D01*
X157038095Y-110343095D01*
X158466666Y-110057380D02*
X158276190Y-110057380D01*
X158180952Y-110105000D01*
X158133333Y-110152619D01*
X158038095Y-110295476D01*
X157990476Y-110485952D01*
X157990476Y-110866904D01*
X158038095Y-110962142D01*
X158085714Y-111009761D01*
X158180952Y-111057380D01*
X158371428Y-111057380D01*
X158466666Y-111009761D01*
X158514285Y-110962142D01*
X158561904Y-110866904D01*
X158561904Y-110628809D01*
X158514285Y-110533571D01*
X158466666Y-110485952D01*
X158371428Y-110438333D01*
X158180952Y-110438333D01*
X158085714Y-110485952D01*
X158038095Y-110533571D01*
X157990476Y-110628809D01*
%TO.C,C15*%
X145207142Y-110962142D02*
X145159523Y-111009761D01*
X145016666Y-111057380D01*
X144921428Y-111057380D01*
X144778571Y-111009761D01*
X144683333Y-110914523D01*
X144635714Y-110819285D01*
X144588095Y-110628809D01*
X144588095Y-110485952D01*
X144635714Y-110295476D01*
X144683333Y-110200238D01*
X144778571Y-110105000D01*
X144921428Y-110057380D01*
X145016666Y-110057380D01*
X145159523Y-110105000D01*
X145207142Y-110152619D01*
X146159523Y-111057380D02*
X145588095Y-111057380D01*
X145873809Y-111057380D02*
X145873809Y-110057380D01*
X145778571Y-110200238D01*
X145683333Y-110295476D01*
X145588095Y-110343095D01*
X147064285Y-110057380D02*
X146588095Y-110057380D01*
X146540476Y-110533571D01*
X146588095Y-110485952D01*
X146683333Y-110438333D01*
X146921428Y-110438333D01*
X147016666Y-110485952D01*
X147064285Y-110533571D01*
X147111904Y-110628809D01*
X147111904Y-110866904D01*
X147064285Y-110962142D01*
X147016666Y-111009761D01*
X146921428Y-111057380D01*
X146683333Y-111057380D01*
X146588095Y-111009761D01*
X146540476Y-110962142D01*
%TO.C,C14*%
X189677142Y-115262142D02*
X189629523Y-115309761D01*
X189486666Y-115357380D01*
X189391428Y-115357380D01*
X189248571Y-115309761D01*
X189153333Y-115214523D01*
X189105714Y-115119285D01*
X189058095Y-114928809D01*
X189058095Y-114785952D01*
X189105714Y-114595476D01*
X189153333Y-114500238D01*
X189248571Y-114405000D01*
X189391428Y-114357380D01*
X189486666Y-114357380D01*
X189629523Y-114405000D01*
X189677142Y-114452619D01*
X190629523Y-115357380D02*
X190058095Y-115357380D01*
X190343809Y-115357380D02*
X190343809Y-114357380D01*
X190248571Y-114500238D01*
X190153333Y-114595476D01*
X190058095Y-114643095D01*
X191486666Y-114690714D02*
X191486666Y-115357380D01*
X191248571Y-114309761D02*
X191010476Y-115024047D01*
X191629523Y-115024047D01*
%TO.C,C13*%
X175727142Y-116532142D02*
X175679523Y-116579761D01*
X175536666Y-116627380D01*
X175441428Y-116627380D01*
X175298571Y-116579761D01*
X175203333Y-116484523D01*
X175155714Y-116389285D01*
X175108095Y-116198809D01*
X175108095Y-116055952D01*
X175155714Y-115865476D01*
X175203333Y-115770238D01*
X175298571Y-115675000D01*
X175441428Y-115627380D01*
X175536666Y-115627380D01*
X175679523Y-115675000D01*
X175727142Y-115722619D01*
X176679523Y-116627380D02*
X176108095Y-116627380D01*
X176393809Y-116627380D02*
X176393809Y-115627380D01*
X176298571Y-115770238D01*
X176203333Y-115865476D01*
X176108095Y-115913095D01*
X177012857Y-115627380D02*
X177631904Y-115627380D01*
X177298571Y-116008333D01*
X177441428Y-116008333D01*
X177536666Y-116055952D01*
X177584285Y-116103571D01*
X177631904Y-116198809D01*
X177631904Y-116436904D01*
X177584285Y-116532142D01*
X177536666Y-116579761D01*
X177441428Y-116627380D01*
X177155714Y-116627380D01*
X177060476Y-116579761D01*
X177012857Y-116532142D01*
%TO.C,C12*%
X164277142Y-115262142D02*
X164229523Y-115309761D01*
X164086666Y-115357380D01*
X163991428Y-115357380D01*
X163848571Y-115309761D01*
X163753333Y-115214523D01*
X163705714Y-115119285D01*
X163658095Y-114928809D01*
X163658095Y-114785952D01*
X163705714Y-114595476D01*
X163753333Y-114500238D01*
X163848571Y-114405000D01*
X163991428Y-114357380D01*
X164086666Y-114357380D01*
X164229523Y-114405000D01*
X164277142Y-114452619D01*
X165229523Y-115357380D02*
X164658095Y-115357380D01*
X164943809Y-115357380D02*
X164943809Y-114357380D01*
X164848571Y-114500238D01*
X164753333Y-114595476D01*
X164658095Y-114643095D01*
X165610476Y-114452619D02*
X165658095Y-114405000D01*
X165753333Y-114357380D01*
X165991428Y-114357380D01*
X166086666Y-114405000D01*
X166134285Y-114452619D01*
X166181904Y-114547857D01*
X166181904Y-114643095D01*
X166134285Y-114785952D01*
X165562857Y-115357380D01*
X166181904Y-115357380D01*
%TO.C,C11*%
X150327142Y-116532142D02*
X150279523Y-116579761D01*
X150136666Y-116627380D01*
X150041428Y-116627380D01*
X149898571Y-116579761D01*
X149803333Y-116484523D01*
X149755714Y-116389285D01*
X149708095Y-116198809D01*
X149708095Y-116055952D01*
X149755714Y-115865476D01*
X149803333Y-115770238D01*
X149898571Y-115675000D01*
X150041428Y-115627380D01*
X150136666Y-115627380D01*
X150279523Y-115675000D01*
X150327142Y-115722619D01*
X151279523Y-116627380D02*
X150708095Y-116627380D01*
X150993809Y-116627380D02*
X150993809Y-115627380D01*
X150898571Y-115770238D01*
X150803333Y-115865476D01*
X150708095Y-115913095D01*
X152231904Y-116627380D02*
X151660476Y-116627380D01*
X151946190Y-116627380D02*
X151946190Y-115627380D01*
X151850952Y-115770238D01*
X151755714Y-115865476D01*
X151660476Y-115913095D01*
%TO.C,C9*%
X190153333Y-103052142D02*
X190105714Y-103099761D01*
X189962857Y-103147380D01*
X189867619Y-103147380D01*
X189724761Y-103099761D01*
X189629523Y-103004523D01*
X189581904Y-102909285D01*
X189534285Y-102718809D01*
X189534285Y-102575952D01*
X189581904Y-102385476D01*
X189629523Y-102290238D01*
X189724761Y-102195000D01*
X189867619Y-102147380D01*
X189962857Y-102147380D01*
X190105714Y-102195000D01*
X190153333Y-102242619D01*
X190629523Y-103147380D02*
X190820000Y-103147380D01*
X190915238Y-103099761D01*
X190962857Y-103052142D01*
X191058095Y-102909285D01*
X191105714Y-102718809D01*
X191105714Y-102337857D01*
X191058095Y-102242619D01*
X191010476Y-102195000D01*
X190915238Y-102147380D01*
X190724761Y-102147380D01*
X190629523Y-102195000D01*
X190581904Y-102242619D01*
X190534285Y-102337857D01*
X190534285Y-102575952D01*
X190581904Y-102671190D01*
X190629523Y-102718809D01*
X190724761Y-102766428D01*
X190915238Y-102766428D01*
X191010476Y-102718809D01*
X191058095Y-102671190D01*
X191105714Y-102575952D01*
%TO.C,C8*%
X179993333Y-101782142D02*
X179945714Y-101829761D01*
X179802857Y-101877380D01*
X179707619Y-101877380D01*
X179564761Y-101829761D01*
X179469523Y-101734523D01*
X179421904Y-101639285D01*
X179374285Y-101448809D01*
X179374285Y-101305952D01*
X179421904Y-101115476D01*
X179469523Y-101020238D01*
X179564761Y-100925000D01*
X179707619Y-100877380D01*
X179802857Y-100877380D01*
X179945714Y-100925000D01*
X179993333Y-100972619D01*
X180564761Y-101305952D02*
X180469523Y-101258333D01*
X180421904Y-101210714D01*
X180374285Y-101115476D01*
X180374285Y-101067857D01*
X180421904Y-100972619D01*
X180469523Y-100925000D01*
X180564761Y-100877380D01*
X180755238Y-100877380D01*
X180850476Y-100925000D01*
X180898095Y-100972619D01*
X180945714Y-101067857D01*
X180945714Y-101115476D01*
X180898095Y-101210714D01*
X180850476Y-101258333D01*
X180755238Y-101305952D01*
X180564761Y-101305952D01*
X180469523Y-101353571D01*
X180421904Y-101401190D01*
X180374285Y-101496428D01*
X180374285Y-101686904D01*
X180421904Y-101782142D01*
X180469523Y-101829761D01*
X180564761Y-101877380D01*
X180755238Y-101877380D01*
X180850476Y-101829761D01*
X180898095Y-101782142D01*
X180945714Y-101686904D01*
X180945714Y-101496428D01*
X180898095Y-101401190D01*
X180850476Y-101353571D01*
X180755238Y-101305952D01*
%TO.C,C7*%
X164753333Y-103052142D02*
X164705714Y-103099761D01*
X164562857Y-103147380D01*
X164467619Y-103147380D01*
X164324761Y-103099761D01*
X164229523Y-103004523D01*
X164181904Y-102909285D01*
X164134285Y-102718809D01*
X164134285Y-102575952D01*
X164181904Y-102385476D01*
X164229523Y-102290238D01*
X164324761Y-102195000D01*
X164467619Y-102147380D01*
X164562857Y-102147380D01*
X164705714Y-102195000D01*
X164753333Y-102242619D01*
X165086666Y-102147380D02*
X165753333Y-102147380D01*
X165324761Y-103147380D01*
%TO.C,C6*%
X154593333Y-101782142D02*
X154545714Y-101829761D01*
X154402857Y-101877380D01*
X154307619Y-101877380D01*
X154164761Y-101829761D01*
X154069523Y-101734523D01*
X154021904Y-101639285D01*
X153974285Y-101448809D01*
X153974285Y-101305952D01*
X154021904Y-101115476D01*
X154069523Y-101020238D01*
X154164761Y-100925000D01*
X154307619Y-100877380D01*
X154402857Y-100877380D01*
X154545714Y-100925000D01*
X154593333Y-100972619D01*
X155450476Y-100877380D02*
X155260000Y-100877380D01*
X155164761Y-100925000D01*
X155117142Y-100972619D01*
X155021904Y-101115476D01*
X154974285Y-101305952D01*
X154974285Y-101686904D01*
X155021904Y-101782142D01*
X155069523Y-101829761D01*
X155164761Y-101877380D01*
X155355238Y-101877380D01*
X155450476Y-101829761D01*
X155498095Y-101782142D01*
X155545714Y-101686904D01*
X155545714Y-101448809D01*
X155498095Y-101353571D01*
X155450476Y-101305952D01*
X155355238Y-101258333D01*
X155164761Y-101258333D01*
X155069523Y-101305952D01*
X155021904Y-101353571D01*
X154974285Y-101448809D01*
%TO.C,C5*%
X184993333Y-92852142D02*
X184945714Y-92899761D01*
X184802857Y-92947380D01*
X184707619Y-92947380D01*
X184564761Y-92899761D01*
X184469523Y-92804523D01*
X184421904Y-92709285D01*
X184374285Y-92518809D01*
X184374285Y-92375952D01*
X184421904Y-92185476D01*
X184469523Y-92090238D01*
X184564761Y-91995000D01*
X184707619Y-91947380D01*
X184802857Y-91947380D01*
X184945714Y-91995000D01*
X184993333Y-92042619D01*
X185898095Y-91947380D02*
X185421904Y-91947380D01*
X185374285Y-92423571D01*
X185421904Y-92375952D01*
X185517142Y-92328333D01*
X185755238Y-92328333D01*
X185850476Y-92375952D01*
X185898095Y-92423571D01*
X185945714Y-92518809D01*
X185945714Y-92756904D01*
X185898095Y-92852142D01*
X185850476Y-92899761D01*
X185755238Y-92947380D01*
X185517142Y-92947380D01*
X185421904Y-92899761D01*
X185374285Y-92852142D01*
%TO.C,C4*%
X172373333Y-92892142D02*
X172325714Y-92939761D01*
X172182857Y-92987380D01*
X172087619Y-92987380D01*
X171944761Y-92939761D01*
X171849523Y-92844523D01*
X171801904Y-92749285D01*
X171754285Y-92558809D01*
X171754285Y-92415952D01*
X171801904Y-92225476D01*
X171849523Y-92130238D01*
X171944761Y-92035000D01*
X172087619Y-91987380D01*
X172182857Y-91987380D01*
X172325714Y-92035000D01*
X172373333Y-92082619D01*
X173230476Y-92320714D02*
X173230476Y-92987380D01*
X172992380Y-91939761D02*
X172754285Y-92654047D01*
X173373333Y-92654047D01*
%TO.C,C3*%
X159593333Y-92852142D02*
X159545714Y-92899761D01*
X159402857Y-92947380D01*
X159307619Y-92947380D01*
X159164761Y-92899761D01*
X159069523Y-92804523D01*
X159021904Y-92709285D01*
X158974285Y-92518809D01*
X158974285Y-92375952D01*
X159021904Y-92185476D01*
X159069523Y-92090238D01*
X159164761Y-91995000D01*
X159307619Y-91947380D01*
X159402857Y-91947380D01*
X159545714Y-91995000D01*
X159593333Y-92042619D01*
X159926666Y-91947380D02*
X160545714Y-91947380D01*
X160212380Y-92328333D01*
X160355238Y-92328333D01*
X160450476Y-92375952D01*
X160498095Y-92423571D01*
X160545714Y-92518809D01*
X160545714Y-92756904D01*
X160498095Y-92852142D01*
X160450476Y-92899761D01*
X160355238Y-92947380D01*
X160069523Y-92947380D01*
X159974285Y-92899761D01*
X159926666Y-92852142D01*
%TO.C,C2*%
X146973333Y-92892142D02*
X146925714Y-92939761D01*
X146782857Y-92987380D01*
X146687619Y-92987380D01*
X146544761Y-92939761D01*
X146449523Y-92844523D01*
X146401904Y-92749285D01*
X146354285Y-92558809D01*
X146354285Y-92415952D01*
X146401904Y-92225476D01*
X146449523Y-92130238D01*
X146544761Y-92035000D01*
X146687619Y-91987380D01*
X146782857Y-91987380D01*
X146925714Y-92035000D01*
X146973333Y-92082619D01*
X147354285Y-92082619D02*
X147401904Y-92035000D01*
X147497142Y-91987380D01*
X147735238Y-91987380D01*
X147830476Y-92035000D01*
X147878095Y-92082619D01*
X147925714Y-92177857D01*
X147925714Y-92273095D01*
X147878095Y-92415952D01*
X147306666Y-92987380D01*
X147925714Y-92987380D01*
%TD*%
M02*
