%TF.GenerationSoftware,KiCad,Pcbnew,5.1.6-c6e7f7d~86~ubuntu18.04.1*%
%TF.CreationDate,2020-05-15T23:17:01+02:00*%
%TF.ProjectId,pa,70612e6b-6963-4616-945f-706362585858,rev?*%
%TF.SameCoordinates,Original*%
%TF.FileFunction,Legend,Top*%
%TF.FilePolarity,Positive*%
%FSLAX46Y46*%
G04 Gerber Fmt 4.6, Leading zero omitted, Abs format (unit mm)*
G04 Created by KiCad (PCBNEW 5.1.6-c6e7f7d~86~ubuntu18.04.1) date 2020-05-15 23:17:01*
%MOMM*%
%LPD*%
G01*
G04 APERTURE LIST*
%ADD10C,0.300000*%
%ADD11C,0.120000*%
%ADD12C,0.150000*%
G04 APERTURE END LIST*
D10*
X142401428Y-53208571D02*
X141544285Y-53208571D01*
X141972857Y-53208571D02*
X141972857Y-51708571D01*
X141830000Y-51922857D01*
X141687142Y-52065714D01*
X141544285Y-52137142D01*
X142972857Y-51851428D02*
X143044285Y-51780000D01*
X143187142Y-51708571D01*
X143544285Y-51708571D01*
X143687142Y-51780000D01*
X143758571Y-51851428D01*
X143830000Y-51994285D01*
X143830000Y-52137142D01*
X143758571Y-52351428D01*
X142901428Y-53208571D01*
X143830000Y-53208571D01*
X144258571Y-51708571D02*
X144758571Y-53208571D01*
X145258571Y-51708571D01*
X161681428Y-57507857D02*
X160538571Y-57507857D01*
X161110000Y-56936428D02*
X161110000Y-58079285D01*
X160717142Y-55815000D02*
X160860000Y-55886428D01*
X161074285Y-55886428D01*
X161288571Y-55815000D01*
X161431428Y-55672142D01*
X161502857Y-55529285D01*
X161574285Y-55243571D01*
X161574285Y-55029285D01*
X161502857Y-54743571D01*
X161431428Y-54600714D01*
X161288571Y-54457857D01*
X161074285Y-54386428D01*
X160931428Y-54386428D01*
X160717142Y-54457857D01*
X160645714Y-54529285D01*
X160645714Y-55029285D01*
X160931428Y-55029285D01*
X86129285Y-56865714D02*
X86057857Y-56937142D01*
X85843571Y-57008571D01*
X85700714Y-57008571D01*
X85486428Y-56937142D01*
X85343571Y-56794285D01*
X85272142Y-56651428D01*
X85200714Y-56365714D01*
X85200714Y-56151428D01*
X85272142Y-55865714D01*
X85343571Y-55722857D01*
X85486428Y-55580000D01*
X85700714Y-55508571D01*
X85843571Y-55508571D01*
X86057857Y-55580000D01*
X86129285Y-55651428D01*
X86629285Y-55508571D02*
X86986428Y-57008571D01*
X87272142Y-55937142D01*
X87557857Y-57008571D01*
X87915000Y-55508571D01*
X89415000Y-55508571D02*
X90272142Y-55508571D01*
X89843571Y-57008571D02*
X89843571Y-55508571D01*
X91629285Y-57008571D02*
X91129285Y-56294285D01*
X90772142Y-57008571D02*
X90772142Y-55508571D01*
X91343571Y-55508571D01*
X91486428Y-55580000D01*
X91557857Y-55651428D01*
X91629285Y-55794285D01*
X91629285Y-56008571D01*
X91557857Y-56151428D01*
X91486428Y-56222857D01*
X91343571Y-56294285D01*
X90772142Y-56294285D01*
X92129285Y-55508571D02*
X93129285Y-57008571D01*
X93129285Y-55508571D02*
X92129285Y-57008571D01*
X94843571Y-56437142D02*
X95986428Y-56437142D01*
X97843571Y-57008571D02*
X97843571Y-55508571D01*
X98415000Y-55508571D01*
X98557857Y-55580000D01*
X98629285Y-55651428D01*
X98700714Y-55794285D01*
X98700714Y-56008571D01*
X98629285Y-56151428D01*
X98557857Y-56222857D01*
X98415000Y-56294285D01*
X97843571Y-56294285D01*
X99272142Y-56580000D02*
X99986428Y-56580000D01*
X99129285Y-57008571D02*
X99629285Y-55508571D01*
X100129285Y-57008571D01*
X86915000Y-58987142D02*
X88057857Y-58987142D01*
X90772142Y-59558571D02*
X90272142Y-58844285D01*
X89915000Y-59558571D02*
X89915000Y-58058571D01*
X90486428Y-58058571D01*
X90629285Y-58130000D01*
X90700714Y-58201428D01*
X90772142Y-58344285D01*
X90772142Y-58558571D01*
X90700714Y-58701428D01*
X90629285Y-58772857D01*
X90486428Y-58844285D01*
X89915000Y-58844285D01*
X91986428Y-59487142D02*
X91843571Y-59558571D01*
X91557857Y-59558571D01*
X91415000Y-59487142D01*
X91343571Y-59344285D01*
X91343571Y-58772857D01*
X91415000Y-58630000D01*
X91557857Y-58558571D01*
X91843571Y-58558571D01*
X91986428Y-58630000D01*
X92057857Y-58772857D01*
X92057857Y-58915714D01*
X91343571Y-59058571D01*
X92557857Y-58558571D02*
X92915000Y-59558571D01*
X93272142Y-58558571D01*
X93843571Y-59415714D02*
X93915000Y-59487142D01*
X93843571Y-59558571D01*
X93772142Y-59487142D01*
X93843571Y-59415714D01*
X93843571Y-59558571D01*
X95629285Y-58201428D02*
X95700714Y-58130000D01*
X95843571Y-58058571D01*
X96200714Y-58058571D01*
X96343571Y-58130000D01*
X96415000Y-58201428D01*
X96486428Y-58344285D01*
X96486428Y-58487142D01*
X96415000Y-58701428D01*
X95557857Y-59558571D01*
X96486428Y-59558571D01*
X98272142Y-58987142D02*
X99415000Y-58987142D01*
X83915000Y-62680000D02*
X83843571Y-62608571D01*
X83700714Y-62394285D01*
X83629285Y-62251428D01*
X83557857Y-62037142D01*
X83486428Y-61680000D01*
X83486428Y-61394285D01*
X83557857Y-61037142D01*
X83629285Y-60822857D01*
X83700714Y-60680000D01*
X83843571Y-60465714D01*
X83915000Y-60394285D01*
X85129285Y-62037142D02*
X84986428Y-62108571D01*
X84700714Y-62108571D01*
X84557857Y-62037142D01*
X84486428Y-61965714D01*
X84415000Y-61822857D01*
X84415000Y-61394285D01*
X84486428Y-61251428D01*
X84557857Y-61180000D01*
X84700714Y-61108571D01*
X84986428Y-61108571D01*
X85129285Y-61180000D01*
X85629285Y-62680000D02*
X85700714Y-62608571D01*
X85843571Y-62394285D01*
X85915000Y-62251428D01*
X85986428Y-62037142D01*
X86057857Y-61680000D01*
X86057857Y-61394285D01*
X85986428Y-61037142D01*
X85915000Y-60822857D01*
X85843571Y-60680000D01*
X85700714Y-60465714D01*
X85629285Y-60394285D01*
X87843571Y-60751428D02*
X87915000Y-60680000D01*
X88057857Y-60608571D01*
X88415000Y-60608571D01*
X88557857Y-60680000D01*
X88629285Y-60751428D01*
X88700714Y-60894285D01*
X88700714Y-61037142D01*
X88629285Y-61251428D01*
X87772142Y-62108571D01*
X88700714Y-62108571D01*
X89629285Y-60608571D02*
X89772142Y-60608571D01*
X89915000Y-60680000D01*
X89986428Y-60751428D01*
X90057857Y-60894285D01*
X90129285Y-61180000D01*
X90129285Y-61537142D01*
X90057857Y-61822857D01*
X89986428Y-61965714D01*
X89915000Y-62037142D01*
X89772142Y-62108571D01*
X89629285Y-62108571D01*
X89486428Y-62037142D01*
X89415000Y-61965714D01*
X89343571Y-61822857D01*
X89272142Y-61537142D01*
X89272142Y-61180000D01*
X89343571Y-60894285D01*
X89415000Y-60751428D01*
X89486428Y-60680000D01*
X89629285Y-60608571D01*
X90700714Y-60751428D02*
X90772142Y-60680000D01*
X90915000Y-60608571D01*
X91272142Y-60608571D01*
X91415000Y-60680000D01*
X91486428Y-60751428D01*
X91557857Y-60894285D01*
X91557857Y-61037142D01*
X91486428Y-61251428D01*
X90629285Y-62108571D01*
X91557857Y-62108571D01*
X92486428Y-60608571D02*
X92629285Y-60608571D01*
X92772142Y-60680000D01*
X92843571Y-60751428D01*
X92915000Y-60894285D01*
X92986428Y-61180000D01*
X92986428Y-61537142D01*
X92915000Y-61822857D01*
X92843571Y-61965714D01*
X92772142Y-62037142D01*
X92629285Y-62108571D01*
X92486428Y-62108571D01*
X92343571Y-62037142D01*
X92272142Y-61965714D01*
X92200714Y-61822857D01*
X92129285Y-61537142D01*
X92129285Y-61180000D01*
X92200714Y-60894285D01*
X92272142Y-60751428D01*
X92343571Y-60680000D01*
X92486428Y-60608571D01*
X94772142Y-62108571D02*
X94772142Y-60608571D01*
X95129285Y-60608571D01*
X95343571Y-60680000D01*
X95486428Y-60822857D01*
X95557857Y-60965714D01*
X95629285Y-61251428D01*
X95629285Y-61465714D01*
X95557857Y-61751428D01*
X95486428Y-61894285D01*
X95343571Y-62037142D01*
X95129285Y-62108571D01*
X94772142Y-62108571D01*
X96272142Y-62108571D02*
X96272142Y-60608571D01*
X96772142Y-61680000D01*
X97272142Y-60608571D01*
X97272142Y-62108571D01*
X97843571Y-60608571D02*
X98772142Y-60608571D01*
X98272142Y-61180000D01*
X98486428Y-61180000D01*
X98629285Y-61251428D01*
X98700714Y-61322857D01*
X98772142Y-61465714D01*
X98772142Y-61822857D01*
X98700714Y-61965714D01*
X98629285Y-62037142D01*
X98486428Y-62108571D01*
X98057857Y-62108571D01*
X97915000Y-62037142D01*
X97843571Y-61965714D01*
X99415000Y-62108571D02*
X99415000Y-60608571D01*
X99915000Y-61680000D01*
X100415000Y-60608571D01*
X100415000Y-62108571D01*
X101057857Y-61680000D02*
X101772142Y-61680000D01*
X100915000Y-62108571D02*
X101415000Y-60608571D01*
X101915000Y-62108571D01*
X102200714Y-60608571D02*
X103057857Y-60608571D01*
X102629285Y-62108571D02*
X102629285Y-60608571D01*
X104373571Y-123292857D02*
X104373571Y-124007142D01*
X105087857Y-124078571D01*
X105016428Y-124007142D01*
X104945000Y-123864285D01*
X104945000Y-123507142D01*
X105016428Y-123364285D01*
X105087857Y-123292857D01*
X105230714Y-123221428D01*
X105587857Y-123221428D01*
X105730714Y-123292857D01*
X105802142Y-123364285D01*
X105873571Y-123507142D01*
X105873571Y-123864285D01*
X105802142Y-124007142D01*
X105730714Y-124078571D01*
X106995000Y-123257142D02*
X106923571Y-123400000D01*
X106923571Y-123614285D01*
X106995000Y-123828571D01*
X107137857Y-123971428D01*
X107280714Y-124042857D01*
X107566428Y-124114285D01*
X107780714Y-124114285D01*
X108066428Y-124042857D01*
X108209285Y-123971428D01*
X108352142Y-123828571D01*
X108423571Y-123614285D01*
X108423571Y-123471428D01*
X108352142Y-123257142D01*
X108280714Y-123185714D01*
X107780714Y-123185714D01*
X107780714Y-123471428D01*
X109473571Y-124078571D02*
X109473571Y-123221428D01*
X110973571Y-123650000D02*
X109473571Y-123650000D01*
X113523571Y-124042857D02*
X112023571Y-124042857D01*
X113523571Y-123185714D02*
X112666428Y-123828571D01*
X112023571Y-123185714D02*
X112880714Y-124042857D01*
X116073571Y-123221428D02*
X116073571Y-124078571D01*
X116073571Y-123650000D02*
X114573571Y-123650000D01*
X114787857Y-123792857D01*
X114930714Y-123935714D01*
X115002142Y-124078571D01*
X117266428Y-124078571D02*
X117195000Y-124007142D01*
X117123571Y-123864285D01*
X117123571Y-123507142D01*
X117195000Y-123364285D01*
X117266428Y-123292857D01*
X117409285Y-123221428D01*
X117552142Y-123221428D01*
X117766428Y-123292857D01*
X118623571Y-124150000D01*
X118623571Y-123221428D01*
X120173571Y-123364285D02*
X121173571Y-123364285D01*
X119602142Y-123721428D02*
X120673571Y-124078571D01*
X120673571Y-123150000D01*
X122866428Y-123792857D02*
X122795000Y-123935714D01*
X122723571Y-124007142D01*
X122580714Y-124078571D01*
X122509285Y-124078571D01*
X122366428Y-124007142D01*
X122295000Y-123935714D01*
X122223571Y-123792857D01*
X122223571Y-123507142D01*
X122295000Y-123364285D01*
X122366428Y-123292857D01*
X122509285Y-123221428D01*
X122580714Y-123221428D01*
X122723571Y-123292857D01*
X122795000Y-123364285D01*
X122866428Y-123507142D01*
X122866428Y-123792857D01*
X122937857Y-123935714D01*
X123009285Y-124007142D01*
X123152142Y-124078571D01*
X123437857Y-124078571D01*
X123580714Y-124007142D01*
X123652142Y-123935714D01*
X123723571Y-123792857D01*
X123723571Y-123507142D01*
X123652142Y-123364285D01*
X123580714Y-123292857D01*
X123437857Y-123221428D01*
X123152142Y-123221428D01*
X123009285Y-123292857D01*
X122937857Y-123364285D01*
X122866428Y-123507142D01*
X79957142Y-99963571D02*
X80814285Y-99963571D01*
X80385714Y-101463571D02*
X80385714Y-99963571D01*
X81171428Y-99963571D02*
X82171428Y-101463571D01*
X82171428Y-99963571D02*
X81171428Y-101463571D01*
X79957142Y-102585000D02*
X79814285Y-102513571D01*
X79600000Y-102513571D01*
X79385714Y-102585000D01*
X79242857Y-102727857D01*
X79171428Y-102870714D01*
X79100000Y-103156428D01*
X79100000Y-103370714D01*
X79171428Y-103656428D01*
X79242857Y-103799285D01*
X79385714Y-103942142D01*
X79600000Y-104013571D01*
X79742857Y-104013571D01*
X79957142Y-103942142D01*
X80028571Y-103870714D01*
X80028571Y-103370714D01*
X79742857Y-103370714D01*
X80671428Y-104013571D02*
X80671428Y-102513571D01*
X81528571Y-104013571D01*
X81528571Y-102513571D01*
X82242857Y-104013571D02*
X82242857Y-102513571D01*
X82600000Y-102513571D01*
X82814285Y-102585000D01*
X82957142Y-102727857D01*
X83028571Y-102870714D01*
X83100000Y-103156428D01*
X83100000Y-103370714D01*
X83028571Y-103656428D01*
X82957142Y-103799285D01*
X82814285Y-103942142D01*
X82600000Y-104013571D01*
X82242857Y-104013571D01*
X73865000Y-73523571D02*
X73365000Y-72809285D01*
X73007857Y-73523571D02*
X73007857Y-72023571D01*
X73579285Y-72023571D01*
X73722142Y-72095000D01*
X73793571Y-72166428D01*
X73865000Y-72309285D01*
X73865000Y-72523571D01*
X73793571Y-72666428D01*
X73722142Y-72737857D01*
X73579285Y-72809285D01*
X73007857Y-72809285D01*
X74365000Y-72023571D02*
X75365000Y-73523571D01*
X75365000Y-72023571D02*
X74365000Y-73523571D01*
X72972142Y-74645000D02*
X72829285Y-74573571D01*
X72615000Y-74573571D01*
X72400714Y-74645000D01*
X72257857Y-74787857D01*
X72186428Y-74930714D01*
X72115000Y-75216428D01*
X72115000Y-75430714D01*
X72186428Y-75716428D01*
X72257857Y-75859285D01*
X72400714Y-76002142D01*
X72615000Y-76073571D01*
X72757857Y-76073571D01*
X72972142Y-76002142D01*
X73043571Y-75930714D01*
X73043571Y-75430714D01*
X72757857Y-75430714D01*
X73686428Y-76073571D02*
X73686428Y-74573571D01*
X74543571Y-76073571D01*
X74543571Y-74573571D01*
X75257857Y-76073571D02*
X75257857Y-74573571D01*
X75615000Y-74573571D01*
X75829285Y-74645000D01*
X75972142Y-74787857D01*
X76043571Y-74930714D01*
X76115000Y-75216428D01*
X76115000Y-75430714D01*
X76043571Y-75716428D01*
X75972142Y-75859285D01*
X75829285Y-76002142D01*
X75615000Y-76073571D01*
X75257857Y-76073571D01*
D11*
%TO.C,C30*%
X91475000Y-103660000D02*
X91410000Y-103660000D01*
X93650000Y-103660000D02*
X93585000Y-103660000D01*
X91475000Y-100420000D02*
X91410000Y-100420000D01*
X93650000Y-100420000D02*
X93585000Y-100420000D01*
X91410000Y-100420000D02*
X91410000Y-103660000D01*
X93650000Y-100420000D02*
X93650000Y-103660000D01*
%TO.C,C26*%
X109790000Y-77930000D02*
G75*
G03*
X109790000Y-77930000I-3270000J0D01*
G01*
X106520000Y-81160000D02*
X106520000Y-74700000D01*
X106480000Y-81160000D02*
X106480000Y-74700000D01*
X106440000Y-81160000D02*
X106440000Y-74700000D01*
X106400000Y-81158000D02*
X106400000Y-74702000D01*
X106360000Y-81157000D02*
X106360000Y-74703000D01*
X106320000Y-81154000D02*
X106320000Y-74706000D01*
X106280000Y-81152000D02*
X106280000Y-78970000D01*
X106280000Y-76890000D02*
X106280000Y-74708000D01*
X106240000Y-81148000D02*
X106240000Y-78970000D01*
X106240000Y-76890000D02*
X106240000Y-74712000D01*
X106200000Y-81145000D02*
X106200000Y-78970000D01*
X106200000Y-76890000D02*
X106200000Y-74715000D01*
X106160000Y-81141000D02*
X106160000Y-78970000D01*
X106160000Y-76890000D02*
X106160000Y-74719000D01*
X106120000Y-81136000D02*
X106120000Y-78970000D01*
X106120000Y-76890000D02*
X106120000Y-74724000D01*
X106080000Y-81131000D02*
X106080000Y-78970000D01*
X106080000Y-76890000D02*
X106080000Y-74729000D01*
X106040000Y-81125000D02*
X106040000Y-78970000D01*
X106040000Y-76890000D02*
X106040000Y-74735000D01*
X106000000Y-81119000D02*
X106000000Y-78970000D01*
X106000000Y-76890000D02*
X106000000Y-74741000D01*
X105960000Y-81112000D02*
X105960000Y-78970000D01*
X105960000Y-76890000D02*
X105960000Y-74748000D01*
X105920000Y-81105000D02*
X105920000Y-78970000D01*
X105920000Y-76890000D02*
X105920000Y-74755000D01*
X105880000Y-81097000D02*
X105880000Y-78970000D01*
X105880000Y-76890000D02*
X105880000Y-74763000D01*
X105840000Y-81089000D02*
X105840000Y-78970000D01*
X105840000Y-76890000D02*
X105840000Y-74771000D01*
X105799000Y-81080000D02*
X105799000Y-78970000D01*
X105799000Y-76890000D02*
X105799000Y-74780000D01*
X105759000Y-81071000D02*
X105759000Y-78970000D01*
X105759000Y-76890000D02*
X105759000Y-74789000D01*
X105719000Y-81061000D02*
X105719000Y-78970000D01*
X105719000Y-76890000D02*
X105719000Y-74799000D01*
X105679000Y-81051000D02*
X105679000Y-78970000D01*
X105679000Y-76890000D02*
X105679000Y-74809000D01*
X105639000Y-81040000D02*
X105639000Y-78970000D01*
X105639000Y-76890000D02*
X105639000Y-74820000D01*
X105599000Y-81028000D02*
X105599000Y-78970000D01*
X105599000Y-76890000D02*
X105599000Y-74832000D01*
X105559000Y-81016000D02*
X105559000Y-78970000D01*
X105559000Y-76890000D02*
X105559000Y-74844000D01*
X105519000Y-81004000D02*
X105519000Y-78970000D01*
X105519000Y-76890000D02*
X105519000Y-74856000D01*
X105479000Y-80991000D02*
X105479000Y-78970000D01*
X105479000Y-76890000D02*
X105479000Y-74869000D01*
X105439000Y-80977000D02*
X105439000Y-78970000D01*
X105439000Y-76890000D02*
X105439000Y-74883000D01*
X105399000Y-80963000D02*
X105399000Y-78970000D01*
X105399000Y-76890000D02*
X105399000Y-74897000D01*
X105359000Y-80948000D02*
X105359000Y-78970000D01*
X105359000Y-76890000D02*
X105359000Y-74912000D01*
X105319000Y-80932000D02*
X105319000Y-78970000D01*
X105319000Y-76890000D02*
X105319000Y-74928000D01*
X105279000Y-80916000D02*
X105279000Y-78970000D01*
X105279000Y-76890000D02*
X105279000Y-74944000D01*
X105239000Y-80900000D02*
X105239000Y-78970000D01*
X105239000Y-76890000D02*
X105239000Y-74960000D01*
X105199000Y-80882000D02*
X105199000Y-78970000D01*
X105199000Y-76890000D02*
X105199000Y-74978000D01*
X105159000Y-80864000D02*
X105159000Y-78970000D01*
X105159000Y-76890000D02*
X105159000Y-74996000D01*
X105119000Y-80846000D02*
X105119000Y-78970000D01*
X105119000Y-76890000D02*
X105119000Y-75014000D01*
X105079000Y-80826000D02*
X105079000Y-78970000D01*
X105079000Y-76890000D02*
X105079000Y-75034000D01*
X105039000Y-80806000D02*
X105039000Y-78970000D01*
X105039000Y-76890000D02*
X105039000Y-75054000D01*
X104999000Y-80786000D02*
X104999000Y-78970000D01*
X104999000Y-76890000D02*
X104999000Y-75074000D01*
X104959000Y-80764000D02*
X104959000Y-78970000D01*
X104959000Y-76890000D02*
X104959000Y-75096000D01*
X104919000Y-80742000D02*
X104919000Y-78970000D01*
X104919000Y-76890000D02*
X104919000Y-75118000D01*
X104879000Y-80720000D02*
X104879000Y-78970000D01*
X104879000Y-76890000D02*
X104879000Y-75140000D01*
X104839000Y-80696000D02*
X104839000Y-78970000D01*
X104839000Y-76890000D02*
X104839000Y-75164000D01*
X104799000Y-80672000D02*
X104799000Y-78970000D01*
X104799000Y-76890000D02*
X104799000Y-75188000D01*
X104759000Y-80646000D02*
X104759000Y-78970000D01*
X104759000Y-76890000D02*
X104759000Y-75214000D01*
X104719000Y-80620000D02*
X104719000Y-78970000D01*
X104719000Y-76890000D02*
X104719000Y-75240000D01*
X104679000Y-80594000D02*
X104679000Y-78970000D01*
X104679000Y-76890000D02*
X104679000Y-75266000D01*
X104639000Y-80566000D02*
X104639000Y-78970000D01*
X104639000Y-76890000D02*
X104639000Y-75294000D01*
X104599000Y-80537000D02*
X104599000Y-78970000D01*
X104599000Y-76890000D02*
X104599000Y-75323000D01*
X104559000Y-80508000D02*
X104559000Y-78970000D01*
X104559000Y-76890000D02*
X104559000Y-75352000D01*
X104519000Y-80478000D02*
X104519000Y-78970000D01*
X104519000Y-76890000D02*
X104519000Y-75382000D01*
X104479000Y-80446000D02*
X104479000Y-78970000D01*
X104479000Y-76890000D02*
X104479000Y-75414000D01*
X104439000Y-80414000D02*
X104439000Y-78970000D01*
X104439000Y-76890000D02*
X104439000Y-75446000D01*
X104399000Y-80380000D02*
X104399000Y-78970000D01*
X104399000Y-76890000D02*
X104399000Y-75480000D01*
X104359000Y-80346000D02*
X104359000Y-78970000D01*
X104359000Y-76890000D02*
X104359000Y-75514000D01*
X104319000Y-80310000D02*
X104319000Y-78970000D01*
X104319000Y-76890000D02*
X104319000Y-75550000D01*
X104279000Y-80273000D02*
X104279000Y-78970000D01*
X104279000Y-76890000D02*
X104279000Y-75587000D01*
X104239000Y-80235000D02*
X104239000Y-78970000D01*
X104239000Y-76890000D02*
X104239000Y-75625000D01*
X104199000Y-80195000D02*
X104199000Y-75665000D01*
X104159000Y-80154000D02*
X104159000Y-75706000D01*
X104119000Y-80112000D02*
X104119000Y-75748000D01*
X104079000Y-80067000D02*
X104079000Y-75793000D01*
X104039000Y-80022000D02*
X104039000Y-75838000D01*
X103999000Y-79974000D02*
X103999000Y-75886000D01*
X103959000Y-79925000D02*
X103959000Y-75935000D01*
X103919000Y-79874000D02*
X103919000Y-75986000D01*
X103879000Y-79820000D02*
X103879000Y-76040000D01*
X103839000Y-79764000D02*
X103839000Y-76096000D01*
X103799000Y-79706000D02*
X103799000Y-76154000D01*
X103759000Y-79644000D02*
X103759000Y-76216000D01*
X103719000Y-79580000D02*
X103719000Y-76280000D01*
X103679000Y-79511000D02*
X103679000Y-76349000D01*
X103639000Y-79439000D02*
X103639000Y-76421000D01*
X103599000Y-79362000D02*
X103599000Y-76498000D01*
X103559000Y-79280000D02*
X103559000Y-76580000D01*
X103519000Y-79192000D02*
X103519000Y-76668000D01*
X103479000Y-79095000D02*
X103479000Y-76765000D01*
X103439000Y-78989000D02*
X103439000Y-76871000D01*
X103399000Y-78870000D02*
X103399000Y-76990000D01*
X103359000Y-78732000D02*
X103359000Y-77128000D01*
X103319000Y-78563000D02*
X103319000Y-77297000D01*
X103279000Y-78332000D02*
X103279000Y-77528000D01*
X110020241Y-79769000D02*
X109390241Y-79769000D01*
X109705241Y-80084000D02*
X109705241Y-79454000D01*
%TO.C,C28*%
X87220000Y-96780000D02*
X82680000Y-96780000D01*
X87220000Y-94640000D02*
X82680000Y-94640000D01*
X87220000Y-96780000D02*
X87220000Y-96765000D01*
X87220000Y-94655000D02*
X87220000Y-94640000D01*
X82680000Y-96780000D02*
X82680000Y-96765000D01*
X82680000Y-94655000D02*
X82680000Y-94640000D01*
%TO.C,R14*%
X78910000Y-92550000D02*
X78910000Y-88710000D01*
X80750000Y-92550000D02*
X80750000Y-88710000D01*
%TO.C,L7*%
X140710000Y-105910000D02*
X140713800Y-99520000D01*
X140710000Y-96980000D02*
X140710000Y-95670000D01*
X145950000Y-105910000D02*
X145950000Y-104600000D01*
X145950000Y-102060000D02*
X145950000Y-95670000D01*
X140710000Y-105910000D02*
X145950000Y-105910000D01*
X140710000Y-95670000D02*
X145950000Y-95670000D01*
%TO.C,L3*%
X138210000Y-88010000D02*
X144600000Y-88013800D01*
X147140000Y-88010000D02*
X148450000Y-88010000D01*
X138210000Y-93250000D02*
X139520000Y-93250000D01*
X142060000Y-93250000D02*
X148450000Y-93250000D01*
X138210000Y-88010000D02*
X138210000Y-93250000D01*
X148450000Y-88010000D02*
X148450000Y-93250000D01*
%TO.C,L5*%
X115310000Y-105910000D02*
X115313800Y-99520000D01*
X115310000Y-96980000D02*
X115310000Y-95670000D01*
X120550000Y-105910000D02*
X120550000Y-104600000D01*
X120550000Y-102060000D02*
X120550000Y-95670000D01*
X115310000Y-105910000D02*
X120550000Y-105910000D01*
X115310000Y-95670000D02*
X120550000Y-95670000D01*
%TO.C,L1*%
X112810000Y-88010000D02*
X119200000Y-88013800D01*
X121740000Y-88010000D02*
X123050000Y-88010000D01*
X112810000Y-93250000D02*
X114120000Y-93250000D01*
X116660000Y-93250000D02*
X123050000Y-93250000D01*
X112810000Y-88010000D02*
X112810000Y-93250000D01*
X123050000Y-88010000D02*
X123050000Y-93250000D01*
%TO.C,C29*%
X97240000Y-66650000D02*
X100480000Y-66650000D01*
X97240000Y-68890000D02*
X100480000Y-68890000D01*
X97240000Y-66650000D02*
X97240000Y-66715000D01*
X97240000Y-68825000D02*
X97240000Y-68890000D01*
X100480000Y-66650000D02*
X100480000Y-66715000D01*
X100480000Y-68825000D02*
X100480000Y-68890000D01*
%TO.C,C25*%
X96540000Y-103060000D02*
X96540000Y-98520000D01*
X98680000Y-103060000D02*
X98680000Y-98520000D01*
X96540000Y-103060000D02*
X96555000Y-103060000D01*
X98665000Y-103060000D02*
X98680000Y-103060000D01*
X96540000Y-98520000D02*
X96555000Y-98520000D01*
X98665000Y-98520000D02*
X98680000Y-98520000D01*
%TO.C,C21*%
X95340000Y-71780000D02*
X99880000Y-71780000D01*
X95340000Y-73920000D02*
X99880000Y-73920000D01*
X95340000Y-71780000D02*
X95340000Y-71795000D01*
X95340000Y-73905000D02*
X95340000Y-73920000D01*
X99880000Y-71780000D02*
X99880000Y-71795000D01*
X99880000Y-73905000D02*
X99880000Y-73920000D01*
%TO.C,R12*%
X89450000Y-76430000D02*
X89450000Y-76760000D01*
X89450000Y-76760000D02*
X82910000Y-76760000D01*
X82910000Y-76760000D02*
X82910000Y-76430000D01*
X89450000Y-74350000D02*
X89450000Y-74020000D01*
X89450000Y-74020000D02*
X82910000Y-74020000D01*
X82910000Y-74020000D02*
X82910000Y-74350000D01*
%TO.C,R10*%
X96440000Y-100790000D02*
G75*
G03*
X96440000Y-100790000I-1370000J0D01*
G01*
X95070000Y-99420000D02*
X95070000Y-99350000D01*
%TO.C,Q5*%
X106810000Y-104670000D02*
X98570000Y-104670000D01*
X106810000Y-115910000D02*
X98570000Y-115910000D01*
X106810000Y-115910000D02*
X106810000Y-104670000D01*
X98570000Y-115910000D02*
X98570000Y-104670000D01*
X105230000Y-104670000D02*
X105230000Y-101840000D01*
X102690000Y-104670000D02*
X102690000Y-101856000D01*
X100150000Y-104670000D02*
X100150000Y-101856000D01*
%TO.C,C27*%
X134590000Y-70680000D02*
X134590000Y-67440000D01*
X136830000Y-70680000D02*
X136830000Y-67440000D01*
X134590000Y-70680000D02*
X134655000Y-70680000D01*
X136765000Y-70680000D02*
X136830000Y-70680000D01*
X134590000Y-67440000D02*
X134655000Y-67440000D01*
X136765000Y-67440000D02*
X136830000Y-67440000D01*
%TO.C,C19*%
X147290000Y-70680000D02*
X147290000Y-67440000D01*
X149530000Y-70680000D02*
X149530000Y-67440000D01*
X147290000Y-70680000D02*
X147355000Y-70680000D01*
X149465000Y-70680000D02*
X149530000Y-70680000D01*
X147290000Y-67440000D02*
X147355000Y-67440000D01*
X149465000Y-67440000D02*
X149530000Y-67440000D01*
%TO.C,C10*%
X121890000Y-70680000D02*
X121890000Y-67440000D01*
X124130000Y-70680000D02*
X124130000Y-67440000D01*
X121890000Y-70680000D02*
X121955000Y-70680000D01*
X124065000Y-70680000D02*
X124130000Y-70680000D01*
X121890000Y-67440000D02*
X121955000Y-67440000D01*
X124065000Y-67440000D02*
X124130000Y-67440000D01*
%TO.C,C1*%
X109190000Y-70680000D02*
X109190000Y-67440000D01*
X111430000Y-70680000D02*
X111430000Y-67440000D01*
X109190000Y-70680000D02*
X109255000Y-70680000D01*
X111365000Y-70680000D02*
X111430000Y-70680000D01*
X109190000Y-67440000D02*
X109255000Y-67440000D01*
X111365000Y-67440000D02*
X111430000Y-67440000D01*
%TO.C,J11*%
X159900000Y-56340000D02*
X157240000Y-56340000D01*
X159900000Y-56340000D02*
X159900000Y-53740000D01*
X159900000Y-53740000D02*
X157240000Y-53740000D01*
X157240000Y-56340000D02*
X157240000Y-53740000D01*
X157240000Y-58940000D02*
X157240000Y-57610000D01*
X158570000Y-58940000D02*
X157240000Y-58940000D01*
%TO.C,U1*%
X87180000Y-94500000D02*
X88430000Y-94500000D01*
X88430000Y-94500000D02*
X88430000Y-76600000D01*
X88430000Y-76600000D02*
X83930000Y-76600000D01*
X83930000Y-76600000D02*
X83930000Y-94500000D01*
X83930000Y-94500000D02*
X85180000Y-94500000D01*
X85180000Y-94500000D02*
G75*
G02*
X87180000Y-94500000I1000000J0D01*
G01*
%TO.C,T1*%
X105310000Y-86820000D02*
X105310000Y-93210000D01*
X100070000Y-82970000D02*
X100070000Y-89360000D01*
X103960000Y-82970000D02*
X100070000Y-82970000D01*
X105310000Y-93210000D02*
X101420000Y-93210000D01*
%TO.C,R16*%
X88370000Y-70310000D02*
G75*
G03*
X88370000Y-70310000I-920000J0D01*
G01*
X88370000Y-70310000D02*
X88990000Y-70310000D01*
%TO.C,R15*%
X93450000Y-108410000D02*
G75*
G03*
X93450000Y-108410000I-920000J0D01*
G01*
X92530000Y-107490000D02*
X92530000Y-106870000D01*
%TO.C,R13*%
X90910000Y-106490000D02*
X90910000Y-110330000D01*
X89070000Y-106490000D02*
X89070000Y-110330000D01*
%TO.C,R11*%
X134540000Y-121110000D02*
G75*
G03*
X134540000Y-121110000I-1370000J0D01*
G01*
X133170000Y-119740000D02*
X133170000Y-119670000D01*
%TO.C,R9*%
X100770000Y-97330000D02*
X104610000Y-97330000D01*
X100770000Y-99170000D02*
X104610000Y-99170000D01*
%TO.C,R8*%
X139620000Y-118570000D02*
G75*
G03*
X139620000Y-118570000I-1370000J0D01*
G01*
X138250000Y-119940000D02*
X138250000Y-120010000D01*
%TO.C,R7*%
X94420000Y-69390000D02*
X94420000Y-71230000D01*
X94420000Y-71230000D02*
X98260000Y-71230000D01*
X98260000Y-71230000D02*
X98260000Y-69390000D01*
X98260000Y-69390000D02*
X94420000Y-69390000D01*
X93470000Y-70310000D02*
X94420000Y-70310000D01*
X99210000Y-70310000D02*
X98260000Y-70310000D01*
%TO.C,R6*%
X152320000Y-118570000D02*
G75*
G03*
X152320000Y-118570000I-1370000J0D01*
G01*
X150950000Y-119940000D02*
X150950000Y-120010000D01*
%TO.C,R5*%
X147240000Y-121110000D02*
G75*
G03*
X147240000Y-121110000I-1370000J0D01*
G01*
X145870000Y-119740000D02*
X145870000Y-119670000D01*
%TO.C,R4*%
X126920000Y-118570000D02*
G75*
G03*
X126920000Y-118570000I-1370000J0D01*
G01*
X125550000Y-119940000D02*
X125550000Y-120010000D01*
%TO.C,R3*%
X121840000Y-121110000D02*
G75*
G03*
X121840000Y-121110000I-1370000J0D01*
G01*
X120470000Y-119740000D02*
X120470000Y-119670000D01*
%TO.C,R2*%
X114220000Y-118570000D02*
G75*
G03*
X114220000Y-118570000I-1370000J0D01*
G01*
X112850000Y-119940000D02*
X112850000Y-120010000D01*
%TO.C,R1*%
X109140000Y-121110000D02*
G75*
G03*
X109140000Y-121110000I-1370000J0D01*
G01*
X107770000Y-119740000D02*
X107770000Y-119670000D01*
%TO.C,Q11*%
X96870000Y-76080000D02*
X93270000Y-76080000D01*
X92745816Y-76807205D02*
G75*
G02*
X93270000Y-76080000I2324184J-1122795D01*
G01*
X92713600Y-79028807D02*
G75*
G03*
X95070000Y-80530000I2356400J1098807D01*
G01*
X97426400Y-79028807D02*
G75*
G02*
X95070000Y-80530000I-2356400J1098807D01*
G01*
X97394184Y-76807205D02*
G75*
G03*
X96870000Y-76080000I-2324184J-1122795D01*
G01*
%TO.C,Q10*%
X137560000Y-120370000D02*
X137560000Y-116770000D01*
X136832795Y-116245816D02*
G75*
G02*
X137560000Y-116770000I-1122795J-2324184D01*
G01*
X134611193Y-116213600D02*
G75*
G03*
X133110000Y-118570000I1098807J-2356400D01*
G01*
X134611193Y-120926400D02*
G75*
G02*
X133110000Y-118570000I1098807J2356400D01*
G01*
X136832795Y-120894184D02*
G75*
G03*
X137560000Y-120370000I-1122795J2324184D01*
G01*
%TO.C,Q9*%
X96870000Y-81160000D02*
X93270000Y-81160000D01*
X92745816Y-81887205D02*
G75*
G02*
X93270000Y-81160000I2324184J-1122795D01*
G01*
X92713600Y-84108807D02*
G75*
G03*
X95070000Y-85610000I2356400J1098807D01*
G01*
X97426400Y-84108807D02*
G75*
G02*
X95070000Y-85610000I-2356400J1098807D01*
G01*
X97394184Y-81887205D02*
G75*
G03*
X96870000Y-81160000I-2324184J-1122795D01*
G01*
%TO.C,Q8*%
X93220000Y-104070000D02*
X93220000Y-107670000D01*
X93947205Y-108194184D02*
G75*
G02*
X93220000Y-107670000I1122795J2324184D01*
G01*
X96168807Y-108226400D02*
G75*
G03*
X97670000Y-105870000I-1098807J2356400D01*
G01*
X96168807Y-103513600D02*
G75*
G02*
X97670000Y-105870000I-1098807J-2356400D01*
G01*
X93947205Y-103545816D02*
G75*
G03*
X93220000Y-104070000I1122795J-2324184D01*
G01*
%TO.C,Q7*%
X96870000Y-86240000D02*
X93270000Y-86240000D01*
X92745816Y-86967205D02*
G75*
G02*
X93270000Y-86240000I2324184J-1122795D01*
G01*
X92713600Y-89188807D02*
G75*
G03*
X95070000Y-90690000I2356400J1098807D01*
G01*
X97426400Y-89188807D02*
G75*
G02*
X95070000Y-90690000I-2356400J1098807D01*
G01*
X97394184Y-86967205D02*
G75*
G03*
X96870000Y-86240000I-2324184J-1122795D01*
G01*
%TO.C,Q6*%
X96870000Y-91320000D02*
X93270000Y-91320000D01*
X92745816Y-92047205D02*
G75*
G02*
X93270000Y-91320000I2324184J-1122795D01*
G01*
X92713600Y-94268807D02*
G75*
G03*
X95070000Y-95770000I2356400J1098807D01*
G01*
X97426400Y-94268807D02*
G75*
G02*
X95070000Y-95770000I-2356400J1098807D01*
G01*
X97394184Y-92047205D02*
G75*
G03*
X96870000Y-91320000I-2324184J-1122795D01*
G01*
%TO.C,Q4*%
X91790000Y-71000000D02*
X88190000Y-71000000D01*
X87665816Y-71727205D02*
G75*
G02*
X88190000Y-71000000I2324184J-1122795D01*
G01*
X87633600Y-73948807D02*
G75*
G03*
X89990000Y-75450000I2356400J1098807D01*
G01*
X92346400Y-73948807D02*
G75*
G02*
X89990000Y-75450000I-2356400J1098807D01*
G01*
X92314184Y-71727205D02*
G75*
G03*
X91790000Y-71000000I-2324184J-1122795D01*
G01*
%TO.C,Q3*%
X150260000Y-120370000D02*
X150260000Y-116770000D01*
X149532795Y-116245816D02*
G75*
G02*
X150260000Y-116770000I-1122795J-2324184D01*
G01*
X147311193Y-116213600D02*
G75*
G03*
X145810000Y-118570000I1098807J-2356400D01*
G01*
X147311193Y-120926400D02*
G75*
G02*
X145810000Y-118570000I1098807J2356400D01*
G01*
X149532795Y-120894184D02*
G75*
G03*
X150260000Y-120370000I-1122795J2324184D01*
G01*
%TO.C,Q2*%
X124860000Y-120370000D02*
X124860000Y-116770000D01*
X124132795Y-116245816D02*
G75*
G02*
X124860000Y-116770000I-1122795J-2324184D01*
G01*
X121911193Y-116213600D02*
G75*
G03*
X120410000Y-118570000I1098807J-2356400D01*
G01*
X121911193Y-120926400D02*
G75*
G02*
X120410000Y-118570000I1098807J2356400D01*
G01*
X124132795Y-120894184D02*
G75*
G03*
X124860000Y-120370000I-1122795J2324184D01*
G01*
%TO.C,Q1*%
X112160000Y-120370000D02*
X112160000Y-116770000D01*
X111432795Y-116245816D02*
G75*
G02*
X112160000Y-116770000I-1122795J-2324184D01*
G01*
X109211193Y-116213600D02*
G75*
G03*
X107710000Y-118570000I1098807J-2356400D01*
G01*
X109211193Y-120926400D02*
G75*
G02*
X107710000Y-118570000I1098807J2356400D01*
G01*
X111432795Y-120894184D02*
G75*
G03*
X112160000Y-120370000I-1122795J2324184D01*
G01*
%TO.C,L13*%
X136480000Y-63770000D02*
X140020000Y-63770000D01*
X140020000Y-63770000D02*
X140020000Y-56530000D01*
X140020000Y-56530000D02*
X136480000Y-56530000D01*
X136480000Y-56530000D02*
X136480000Y-63770000D01*
X138250000Y-64190000D02*
X138250000Y-63770000D01*
X138250000Y-56110000D02*
X138250000Y-56530000D01*
%TO.C,L12*%
X156110000Y-105830000D02*
X156106200Y-107114600D01*
X156110000Y-109680000D02*
X156110000Y-116070000D01*
X150870000Y-105830000D02*
X150870000Y-112220000D01*
X150870000Y-114760000D02*
X150870000Y-116070000D01*
X156110000Y-105830000D02*
X150870000Y-105830000D01*
X156110000Y-116070000D02*
X150870000Y-116070000D01*
%TO.C,L11*%
X145910000Y-113570000D02*
X144625400Y-113566200D01*
X142060000Y-113570000D02*
X135670000Y-113570000D01*
X145910000Y-108330000D02*
X139520000Y-108330000D01*
X136980000Y-108330000D02*
X135670000Y-108330000D01*
X145910000Y-113570000D02*
X145910000Y-108330000D01*
X135670000Y-113570000D02*
X135670000Y-108330000D01*
%TO.C,L10*%
X130710000Y-105830000D02*
X130706200Y-107114600D01*
X130710000Y-109680000D02*
X130710000Y-116070000D01*
X125470000Y-105830000D02*
X125470000Y-112220000D01*
X125470000Y-114760000D02*
X125470000Y-116070000D01*
X130710000Y-105830000D02*
X125470000Y-105830000D01*
X130710000Y-116070000D02*
X125470000Y-116070000D01*
%TO.C,L9*%
X120510000Y-113570000D02*
X119225400Y-113566200D01*
X116660000Y-113570000D02*
X110270000Y-113570000D01*
X120510000Y-108330000D02*
X114120000Y-108330000D01*
X111580000Y-108330000D02*
X110270000Y-108330000D01*
X120510000Y-113570000D02*
X120510000Y-108330000D01*
X110270000Y-113570000D02*
X110270000Y-108330000D01*
%TO.C,L8*%
X150910000Y-98170000D02*
X152194600Y-98173800D01*
X154760000Y-98170000D02*
X161150000Y-98170000D01*
X150910000Y-103410000D02*
X157300000Y-103410000D01*
X159840000Y-103410000D02*
X161150000Y-103410000D01*
X150910000Y-98170000D02*
X150910000Y-103410000D01*
X161150000Y-98170000D02*
X161150000Y-103410000D01*
%TO.C,L6*%
X125510000Y-98170000D02*
X126794600Y-98173800D01*
X129360000Y-98170000D02*
X135750000Y-98170000D01*
X125510000Y-103410000D02*
X131900000Y-103410000D01*
X134440000Y-103410000D02*
X135750000Y-103410000D01*
X125510000Y-98170000D02*
X125510000Y-103410000D01*
X135750000Y-98170000D02*
X135750000Y-103410000D01*
%TO.C,L4*%
X158650000Y-85510000D02*
X158646200Y-86794600D01*
X158650000Y-89360000D02*
X158650000Y-95750000D01*
X153410000Y-85510000D02*
X153410000Y-91900000D01*
X153410000Y-94440000D02*
X153410000Y-95750000D01*
X158650000Y-85510000D02*
X153410000Y-85510000D01*
X158650000Y-95750000D02*
X153410000Y-95750000D01*
%TO.C,L2*%
X133250000Y-85510000D02*
X133246200Y-86794600D01*
X133250000Y-89360000D02*
X133250000Y-95750000D01*
X128010000Y-85510000D02*
X128010000Y-91900000D01*
X128010000Y-94440000D02*
X128010000Y-95750000D01*
X133250000Y-85510000D02*
X128010000Y-85510000D01*
X133250000Y-95750000D02*
X128010000Y-95750000D01*
%TO.C,K4*%
X149350000Y-68810000D02*
X151550000Y-68810000D01*
X149350000Y-70910000D02*
X149350000Y-68810000D01*
X149550000Y-84210000D02*
X149550000Y-69010000D01*
X157350000Y-84210000D02*
X149550000Y-84210000D01*
X157350000Y-69010000D02*
X157350000Y-84210000D01*
X149550000Y-69010000D02*
X157350000Y-69010000D01*
X153896000Y-71580000D02*
X153261000Y-72596000D01*
X151650000Y-71810000D02*
X151650000Y-72088000D01*
X151650000Y-72088000D02*
X152372000Y-72088000D01*
X154912000Y-71453000D02*
X154912000Y-72088000D01*
X154912000Y-72088000D02*
X154277000Y-72088000D01*
X154277000Y-71580000D02*
X152372000Y-71580000D01*
X152372000Y-71580000D02*
X152372000Y-72596000D01*
X152372000Y-72596000D02*
X154277000Y-72596000D01*
X154277000Y-71580000D02*
X154277000Y-72596000D01*
%TO.C,K3*%
X136650000Y-68810000D02*
X138850000Y-68810000D01*
X136650000Y-70910000D02*
X136650000Y-68810000D01*
X136850000Y-84210000D02*
X136850000Y-69010000D01*
X144650000Y-84210000D02*
X136850000Y-84210000D01*
X144650000Y-69010000D02*
X144650000Y-84210000D01*
X136850000Y-69010000D02*
X144650000Y-69010000D01*
X141196000Y-71580000D02*
X140561000Y-72596000D01*
X138950000Y-71810000D02*
X138950000Y-72088000D01*
X138950000Y-72088000D02*
X139672000Y-72088000D01*
X142212000Y-71453000D02*
X142212000Y-72088000D01*
X142212000Y-72088000D02*
X141577000Y-72088000D01*
X141577000Y-71580000D02*
X139672000Y-71580000D01*
X139672000Y-71580000D02*
X139672000Y-72596000D01*
X139672000Y-72596000D02*
X141577000Y-72596000D01*
X141577000Y-71580000D02*
X141577000Y-72596000D01*
%TO.C,K2*%
X123950000Y-68810000D02*
X126150000Y-68810000D01*
X123950000Y-70910000D02*
X123950000Y-68810000D01*
X124150000Y-84210000D02*
X124150000Y-69010000D01*
X131950000Y-84210000D02*
X124150000Y-84210000D01*
X131950000Y-69010000D02*
X131950000Y-84210000D01*
X124150000Y-69010000D02*
X131950000Y-69010000D01*
X128496000Y-71580000D02*
X127861000Y-72596000D01*
X126250000Y-71810000D02*
X126250000Y-72088000D01*
X126250000Y-72088000D02*
X126972000Y-72088000D01*
X129512000Y-71453000D02*
X129512000Y-72088000D01*
X129512000Y-72088000D02*
X128877000Y-72088000D01*
X128877000Y-71580000D02*
X126972000Y-71580000D01*
X126972000Y-71580000D02*
X126972000Y-72596000D01*
X126972000Y-72596000D02*
X128877000Y-72596000D01*
X128877000Y-71580000D02*
X128877000Y-72596000D01*
%TO.C,K1*%
X111250000Y-68810000D02*
X113450000Y-68810000D01*
X111250000Y-70910000D02*
X111250000Y-68810000D01*
X111450000Y-84210000D02*
X111450000Y-69010000D01*
X119250000Y-84210000D02*
X111450000Y-84210000D01*
X119250000Y-69010000D02*
X119250000Y-84210000D01*
X111450000Y-69010000D02*
X119250000Y-69010000D01*
X115796000Y-71580000D02*
X115161000Y-72596000D01*
X113550000Y-71810000D02*
X113550000Y-72088000D01*
X113550000Y-72088000D02*
X114272000Y-72088000D01*
X116812000Y-71453000D02*
X116812000Y-72088000D01*
X116812000Y-72088000D02*
X116177000Y-72088000D01*
X116177000Y-71580000D02*
X114272000Y-71580000D01*
X114272000Y-71580000D02*
X114272000Y-72596000D01*
X114272000Y-72596000D02*
X116177000Y-72596000D01*
X116177000Y-71580000D02*
X116177000Y-72596000D01*
%TO.C,J7*%
X75960000Y-102060000D02*
X78620000Y-102060000D01*
X75960000Y-102060000D02*
X75960000Y-104660000D01*
X75960000Y-104660000D02*
X78620000Y-104660000D01*
X78620000Y-102060000D02*
X78620000Y-104660000D01*
X78620000Y-99460000D02*
X78620000Y-100790000D01*
X77290000Y-99460000D02*
X78620000Y-99460000D01*
%TO.C,J6*%
X75960000Y-74120000D02*
X78620000Y-74120000D01*
X75960000Y-74120000D02*
X75960000Y-76720000D01*
X75960000Y-76720000D02*
X78620000Y-76720000D01*
X78620000Y-74120000D02*
X78620000Y-76720000D01*
X78620000Y-71520000D02*
X78620000Y-72850000D01*
X77290000Y-71520000D02*
X78620000Y-71520000D01*
%TO.C,J3*%
X146350000Y-58760000D02*
X146350000Y-50260000D01*
X146350000Y-50260000D02*
X155550000Y-50260000D01*
X155550000Y-50260000D02*
X155550000Y-64960000D01*
X148450000Y-64960000D02*
X146350000Y-64960000D01*
X146350000Y-64960000D02*
X146350000Y-63160000D01*
X154150000Y-65260000D02*
X155850000Y-65260000D01*
X155850000Y-65260000D02*
X155850000Y-63660000D01*
X155550000Y-64960000D02*
X153450000Y-64960000D01*
%TO.C,J2*%
X106500000Y-127520000D02*
X106500000Y-124860000D01*
X106500000Y-127520000D02*
X124340000Y-127520000D01*
X124340000Y-127520000D02*
X124340000Y-124860000D01*
X106500000Y-124860000D02*
X124340000Y-124860000D01*
X103900000Y-124860000D02*
X105230000Y-124860000D01*
X103900000Y-126190000D02*
X103900000Y-124860000D01*
%TO.C,J1*%
X112970000Y-49990000D02*
X127970000Y-49990000D01*
X127970000Y-49990000D02*
X127970000Y-64990000D01*
X127970000Y-64990000D02*
X112970000Y-64990000D01*
X112970000Y-64990000D02*
X112970000Y-49990000D01*
X120470000Y-50190000D02*
X119470000Y-51190000D01*
X120470000Y-50190000D02*
X121470000Y-51190000D01*
%TO.C,D5*%
X142510000Y-69010000D02*
X142510000Y-69190000D01*
X142510000Y-69190000D02*
X139070000Y-69190000D01*
X139070000Y-69190000D02*
X139070000Y-69010000D01*
X142510000Y-66530000D02*
X142510000Y-66350000D01*
X142510000Y-66350000D02*
X139070000Y-66350000D01*
X139070000Y-66350000D02*
X139070000Y-66530000D01*
X141910000Y-69190000D02*
X141910000Y-66350000D01*
X141790000Y-69190000D02*
X141790000Y-66350000D01*
X142030000Y-69190000D02*
X142030000Y-66350000D01*
%TO.C,D4*%
X160026371Y-63884732D02*
G75*
G02*
X160084596Y-61570000I-1456371J1194732D01*
G01*
%TO.C,D3*%
X155210000Y-69010000D02*
X155210000Y-69190000D01*
X155210000Y-69190000D02*
X151770000Y-69190000D01*
X151770000Y-69190000D02*
X151770000Y-69010000D01*
X155210000Y-66530000D02*
X155210000Y-66350000D01*
X155210000Y-66350000D02*
X151770000Y-66350000D01*
X151770000Y-66350000D02*
X151770000Y-66530000D01*
X154610000Y-69190000D02*
X154610000Y-66350000D01*
X154490000Y-69190000D02*
X154490000Y-66350000D01*
X154730000Y-69190000D02*
X154730000Y-66350000D01*
%TO.C,D2*%
X129810000Y-69010000D02*
X129810000Y-69190000D01*
X129810000Y-69190000D02*
X126370000Y-69190000D01*
X126370000Y-69190000D02*
X126370000Y-69010000D01*
X129810000Y-66530000D02*
X129810000Y-66350000D01*
X129810000Y-66350000D02*
X126370000Y-66350000D01*
X126370000Y-66350000D02*
X126370000Y-66530000D01*
X129210000Y-69190000D02*
X129210000Y-66350000D01*
X129090000Y-69190000D02*
X129090000Y-66350000D01*
X129330000Y-69190000D02*
X129330000Y-66350000D01*
%TO.C,D1*%
X117110000Y-69010000D02*
X117110000Y-69190000D01*
X117110000Y-69190000D02*
X113670000Y-69190000D01*
X113670000Y-69190000D02*
X113670000Y-69010000D01*
X117110000Y-66530000D02*
X117110000Y-66350000D01*
X117110000Y-66350000D02*
X113670000Y-66350000D01*
X113670000Y-66350000D02*
X113670000Y-66530000D01*
X116510000Y-69190000D02*
X116510000Y-66350000D01*
X116390000Y-69190000D02*
X116390000Y-66350000D01*
X116630000Y-69190000D02*
X116630000Y-66350000D01*
%TO.C,C24*%
X106400000Y-100760000D02*
X106400000Y-95820000D01*
X109140000Y-100760000D02*
X109140000Y-95820000D01*
X106400000Y-100760000D02*
X106715000Y-100760000D01*
X108825000Y-100760000D02*
X109140000Y-100760000D01*
X106400000Y-95820000D02*
X106715000Y-95820000D01*
X108825000Y-95820000D02*
X109140000Y-95820000D01*
%TO.C,C23*%
X99820000Y-94590000D02*
X103060000Y-94590000D01*
X99820000Y-96830000D02*
X103060000Y-96830000D01*
X99820000Y-94590000D02*
X99820000Y-94655000D01*
X99820000Y-96765000D02*
X99820000Y-96830000D01*
X103060000Y-94590000D02*
X103060000Y-94655000D01*
X103060000Y-96765000D02*
X103060000Y-96830000D01*
%TO.C,C22*%
X134540000Y-60260000D02*
X134540000Y-65200000D01*
X131800000Y-60260000D02*
X131800000Y-65200000D01*
X134540000Y-60260000D02*
X134225000Y-60260000D01*
X132115000Y-60260000D02*
X131800000Y-60260000D01*
X134540000Y-65200000D02*
X134225000Y-65200000D01*
X132115000Y-65200000D02*
X131800000Y-65200000D01*
%TO.C,C20*%
X101520000Y-75500000D02*
X101520000Y-80440000D01*
X98780000Y-75500000D02*
X98780000Y-80440000D01*
X101520000Y-75500000D02*
X101205000Y-75500000D01*
X99095000Y-75500000D02*
X98780000Y-75500000D01*
X101520000Y-80440000D02*
X101205000Y-80440000D01*
X99095000Y-80440000D02*
X98780000Y-80440000D01*
%TO.C,C18*%
X150580000Y-104750000D02*
X153820000Y-104750000D01*
X150580000Y-106990000D02*
X153820000Y-106990000D01*
X150580000Y-104750000D02*
X150580000Y-104815000D01*
X150580000Y-106925000D02*
X150580000Y-106990000D01*
X153820000Y-104750000D02*
X153820000Y-104815000D01*
X153820000Y-106925000D02*
X153820000Y-106990000D01*
%TO.C,C17*%
X137880000Y-104750000D02*
X141120000Y-104750000D01*
X137880000Y-106990000D02*
X141120000Y-106990000D01*
X137880000Y-104750000D02*
X137880000Y-104815000D01*
X137880000Y-106925000D02*
X137880000Y-106990000D01*
X141120000Y-104750000D02*
X141120000Y-104815000D01*
X141120000Y-106925000D02*
X141120000Y-106990000D01*
%TO.C,C16*%
X125180000Y-104750000D02*
X128420000Y-104750000D01*
X125180000Y-106990000D02*
X128420000Y-106990000D01*
X125180000Y-104750000D02*
X125180000Y-104815000D01*
X125180000Y-106925000D02*
X125180000Y-106990000D01*
X128420000Y-104750000D02*
X128420000Y-104815000D01*
X128420000Y-106925000D02*
X128420000Y-106990000D01*
%TO.C,C15*%
X112480000Y-104750000D02*
X115720000Y-104750000D01*
X112480000Y-106990000D02*
X115720000Y-106990000D01*
X112480000Y-104750000D02*
X112480000Y-104815000D01*
X112480000Y-106925000D02*
X112480000Y-106990000D01*
X115720000Y-104750000D02*
X115720000Y-104815000D01*
X115720000Y-106925000D02*
X115720000Y-106990000D01*
%TO.C,C14*%
X157949000Y-106790000D02*
X156691000Y-106790000D01*
X157949000Y-104950000D02*
X156691000Y-104950000D01*
%TO.C,C13*%
X145249000Y-108060000D02*
X143991000Y-108060000D01*
X145249000Y-106220000D02*
X143991000Y-106220000D01*
%TO.C,C12*%
X132549000Y-106790000D02*
X131291000Y-106790000D01*
X132549000Y-104950000D02*
X131291000Y-104950000D01*
%TO.C,C11*%
X119849000Y-108060000D02*
X118591000Y-108060000D01*
X119849000Y-106220000D02*
X118591000Y-106220000D01*
%TO.C,C9*%
X153120000Y-94590000D02*
X156360000Y-94590000D01*
X153120000Y-96830000D02*
X156360000Y-96830000D01*
X153120000Y-94590000D02*
X153120000Y-94655000D01*
X153120000Y-96765000D02*
X153120000Y-96830000D01*
X156360000Y-94590000D02*
X156360000Y-94655000D01*
X156360000Y-96765000D02*
X156360000Y-96830000D01*
%TO.C,C8*%
X143000000Y-93320000D02*
X146240000Y-93320000D01*
X143000000Y-95560000D02*
X146240000Y-95560000D01*
X143000000Y-93320000D02*
X143000000Y-93385000D01*
X143000000Y-95495000D02*
X143000000Y-95560000D01*
X146240000Y-93320000D02*
X146240000Y-93385000D01*
X146240000Y-95495000D02*
X146240000Y-95560000D01*
%TO.C,C7*%
X127760000Y-94590000D02*
X131000000Y-94590000D01*
X127760000Y-96830000D02*
X131000000Y-96830000D01*
X127760000Y-94590000D02*
X127760000Y-94655000D01*
X127760000Y-96765000D02*
X127760000Y-96830000D01*
X131000000Y-94590000D02*
X131000000Y-94655000D01*
X131000000Y-96765000D02*
X131000000Y-96830000D01*
%TO.C,C6*%
X118551000Y-93520000D02*
X119809000Y-93520000D01*
X118551000Y-95360000D02*
X119809000Y-95360000D01*
%TO.C,C5*%
X158940000Y-86670000D02*
X155700000Y-86670000D01*
X158940000Y-84430000D02*
X155700000Y-84430000D01*
X158940000Y-86670000D02*
X158940000Y-86605000D01*
X158940000Y-84495000D02*
X158940000Y-84430000D01*
X155700000Y-86670000D02*
X155700000Y-86605000D01*
X155700000Y-84495000D02*
X155700000Y-84430000D01*
%TO.C,C4*%
X146240000Y-86670000D02*
X143000000Y-86670000D01*
X146240000Y-84430000D02*
X143000000Y-84430000D01*
X146240000Y-86670000D02*
X146240000Y-86605000D01*
X146240000Y-84495000D02*
X146240000Y-84430000D01*
X143000000Y-86670000D02*
X143000000Y-86605000D01*
X143000000Y-84495000D02*
X143000000Y-84430000D01*
%TO.C,C3*%
X133460000Y-86670000D02*
X130220000Y-86670000D01*
X133460000Y-84430000D02*
X130220000Y-84430000D01*
X133460000Y-86670000D02*
X133460000Y-86605000D01*
X133460000Y-84495000D02*
X133460000Y-84430000D01*
X130220000Y-86670000D02*
X130220000Y-86605000D01*
X130220000Y-84495000D02*
X130220000Y-84430000D01*
%TO.C,C2*%
X119849000Y-86470000D02*
X118591000Y-86470000D01*
X119849000Y-84630000D02*
X118591000Y-84630000D01*
%TO.C,C30*%
D12*
X90347142Y-102702857D02*
X90394761Y-102750476D01*
X90442380Y-102893333D01*
X90442380Y-102988571D01*
X90394761Y-103131428D01*
X90299523Y-103226666D01*
X90204285Y-103274285D01*
X90013809Y-103321904D01*
X89870952Y-103321904D01*
X89680476Y-103274285D01*
X89585238Y-103226666D01*
X89490000Y-103131428D01*
X89442380Y-102988571D01*
X89442380Y-102893333D01*
X89490000Y-102750476D01*
X89537619Y-102702857D01*
X89442380Y-102369523D02*
X89442380Y-101750476D01*
X89823333Y-102083809D01*
X89823333Y-101940952D01*
X89870952Y-101845714D01*
X89918571Y-101798095D01*
X90013809Y-101750476D01*
X90251904Y-101750476D01*
X90347142Y-101798095D01*
X90394761Y-101845714D01*
X90442380Y-101940952D01*
X90442380Y-102226666D01*
X90394761Y-102321904D01*
X90347142Y-102369523D01*
X89442380Y-101131428D02*
X89442380Y-101036190D01*
X89490000Y-100940952D01*
X89537619Y-100893333D01*
X89632857Y-100845714D01*
X89823333Y-100798095D01*
X90061428Y-100798095D01*
X90251904Y-100845714D01*
X90347142Y-100893333D01*
X90394761Y-100940952D01*
X90442380Y-101036190D01*
X90442380Y-101131428D01*
X90394761Y-101226666D01*
X90347142Y-101274285D01*
X90251904Y-101321904D01*
X90061428Y-101369523D01*
X89823333Y-101369523D01*
X89632857Y-101321904D01*
X89537619Y-101274285D01*
X89490000Y-101226666D01*
X89442380Y-101131428D01*
%TO.C,C26*%
X103317142Y-74477142D02*
X103269523Y-74524761D01*
X103126666Y-74572380D01*
X103031428Y-74572380D01*
X102888571Y-74524761D01*
X102793333Y-74429523D01*
X102745714Y-74334285D01*
X102698095Y-74143809D01*
X102698095Y-74000952D01*
X102745714Y-73810476D01*
X102793333Y-73715238D01*
X102888571Y-73620000D01*
X103031428Y-73572380D01*
X103126666Y-73572380D01*
X103269523Y-73620000D01*
X103317142Y-73667619D01*
X103698095Y-73667619D02*
X103745714Y-73620000D01*
X103840952Y-73572380D01*
X104079047Y-73572380D01*
X104174285Y-73620000D01*
X104221904Y-73667619D01*
X104269523Y-73762857D01*
X104269523Y-73858095D01*
X104221904Y-74000952D01*
X103650476Y-74572380D01*
X104269523Y-74572380D01*
X105126666Y-73572380D02*
X104936190Y-73572380D01*
X104840952Y-73620000D01*
X104793333Y-73667619D01*
X104698095Y-73810476D01*
X104650476Y-74000952D01*
X104650476Y-74381904D01*
X104698095Y-74477142D01*
X104745714Y-74524761D01*
X104840952Y-74572380D01*
X105031428Y-74572380D01*
X105126666Y-74524761D01*
X105174285Y-74477142D01*
X105221904Y-74381904D01*
X105221904Y-74143809D01*
X105174285Y-74048571D01*
X105126666Y-74000952D01*
X105031428Y-73953333D01*
X104840952Y-73953333D01*
X104745714Y-74000952D01*
X104698095Y-74048571D01*
X104650476Y-74143809D01*
%TO.C,C28*%
X84307142Y-96067142D02*
X84259523Y-96114761D01*
X84116666Y-96162380D01*
X84021428Y-96162380D01*
X83878571Y-96114761D01*
X83783333Y-96019523D01*
X83735714Y-95924285D01*
X83688095Y-95733809D01*
X83688095Y-95590952D01*
X83735714Y-95400476D01*
X83783333Y-95305238D01*
X83878571Y-95210000D01*
X84021428Y-95162380D01*
X84116666Y-95162380D01*
X84259523Y-95210000D01*
X84307142Y-95257619D01*
X84688095Y-95257619D02*
X84735714Y-95210000D01*
X84830952Y-95162380D01*
X85069047Y-95162380D01*
X85164285Y-95210000D01*
X85211904Y-95257619D01*
X85259523Y-95352857D01*
X85259523Y-95448095D01*
X85211904Y-95590952D01*
X84640476Y-96162380D01*
X85259523Y-96162380D01*
X85830952Y-95590952D02*
X85735714Y-95543333D01*
X85688095Y-95495714D01*
X85640476Y-95400476D01*
X85640476Y-95352857D01*
X85688095Y-95257619D01*
X85735714Y-95210000D01*
X85830952Y-95162380D01*
X86021428Y-95162380D01*
X86116666Y-95210000D01*
X86164285Y-95257619D01*
X86211904Y-95352857D01*
X86211904Y-95400476D01*
X86164285Y-95495714D01*
X86116666Y-95543333D01*
X86021428Y-95590952D01*
X85830952Y-95590952D01*
X85735714Y-95638571D01*
X85688095Y-95686190D01*
X85640476Y-95781428D01*
X85640476Y-95971904D01*
X85688095Y-96067142D01*
X85735714Y-96114761D01*
X85830952Y-96162380D01*
X86021428Y-96162380D01*
X86116666Y-96114761D01*
X86164285Y-96067142D01*
X86211904Y-95971904D01*
X86211904Y-95781428D01*
X86164285Y-95686190D01*
X86116666Y-95638571D01*
X86021428Y-95590952D01*
%TO.C,R14*%
X80282380Y-91272857D02*
X79806190Y-91606190D01*
X80282380Y-91844285D02*
X79282380Y-91844285D01*
X79282380Y-91463333D01*
X79330000Y-91368095D01*
X79377619Y-91320476D01*
X79472857Y-91272857D01*
X79615714Y-91272857D01*
X79710952Y-91320476D01*
X79758571Y-91368095D01*
X79806190Y-91463333D01*
X79806190Y-91844285D01*
X80282380Y-90320476D02*
X80282380Y-90891904D01*
X80282380Y-90606190D02*
X79282380Y-90606190D01*
X79425238Y-90701428D01*
X79520476Y-90796666D01*
X79568095Y-90891904D01*
X79615714Y-89463333D02*
X80282380Y-89463333D01*
X79234761Y-89701428D02*
X79949047Y-89939523D01*
X79949047Y-89320476D01*
%TO.C,L7*%
X143782380Y-100956666D02*
X143782380Y-101432857D01*
X142782380Y-101432857D01*
X142782380Y-100718571D02*
X142782380Y-100051904D01*
X143782380Y-100480476D01*
%TO.C,L3*%
X143163333Y-91082380D02*
X142687142Y-91082380D01*
X142687142Y-90082380D01*
X143401428Y-90082380D02*
X144020476Y-90082380D01*
X143687142Y-90463333D01*
X143830000Y-90463333D01*
X143925238Y-90510952D01*
X143972857Y-90558571D01*
X144020476Y-90653809D01*
X144020476Y-90891904D01*
X143972857Y-90987142D01*
X143925238Y-91034761D01*
X143830000Y-91082380D01*
X143544285Y-91082380D01*
X143449047Y-91034761D01*
X143401428Y-90987142D01*
%TO.C,L5*%
X118382380Y-100956666D02*
X118382380Y-101432857D01*
X117382380Y-101432857D01*
X117382380Y-100147142D02*
X117382380Y-100623333D01*
X117858571Y-100670952D01*
X117810952Y-100623333D01*
X117763333Y-100528095D01*
X117763333Y-100290000D01*
X117810952Y-100194761D01*
X117858571Y-100147142D01*
X117953809Y-100099523D01*
X118191904Y-100099523D01*
X118287142Y-100147142D01*
X118334761Y-100194761D01*
X118382380Y-100290000D01*
X118382380Y-100528095D01*
X118334761Y-100623333D01*
X118287142Y-100670952D01*
%TO.C,L1*%
X117763333Y-91082380D02*
X117287142Y-91082380D01*
X117287142Y-90082380D01*
X118620476Y-91082380D02*
X118049047Y-91082380D01*
X118334761Y-91082380D02*
X118334761Y-90082380D01*
X118239523Y-90225238D01*
X118144285Y-90320476D01*
X118049047Y-90368095D01*
%TO.C,C29*%
X98217142Y-65877142D02*
X98169523Y-65924761D01*
X98026666Y-65972380D01*
X97931428Y-65972380D01*
X97788571Y-65924761D01*
X97693333Y-65829523D01*
X97645714Y-65734285D01*
X97598095Y-65543809D01*
X97598095Y-65400952D01*
X97645714Y-65210476D01*
X97693333Y-65115238D01*
X97788571Y-65020000D01*
X97931428Y-64972380D01*
X98026666Y-64972380D01*
X98169523Y-65020000D01*
X98217142Y-65067619D01*
X98598095Y-65067619D02*
X98645714Y-65020000D01*
X98740952Y-64972380D01*
X98979047Y-64972380D01*
X99074285Y-65020000D01*
X99121904Y-65067619D01*
X99169523Y-65162857D01*
X99169523Y-65258095D01*
X99121904Y-65400952D01*
X98550476Y-65972380D01*
X99169523Y-65972380D01*
X99645714Y-65972380D02*
X99836190Y-65972380D01*
X99931428Y-65924761D01*
X99979047Y-65877142D01*
X100074285Y-65734285D01*
X100121904Y-65543809D01*
X100121904Y-65162857D01*
X100074285Y-65067619D01*
X100026666Y-65020000D01*
X99931428Y-64972380D01*
X99740952Y-64972380D01*
X99645714Y-65020000D01*
X99598095Y-65067619D01*
X99550476Y-65162857D01*
X99550476Y-65400952D01*
X99598095Y-65496190D01*
X99645714Y-65543809D01*
X99740952Y-65591428D01*
X99931428Y-65591428D01*
X100026666Y-65543809D01*
X100074285Y-65496190D01*
X100121904Y-65400952D01*
%TO.C,C25*%
X97967142Y-101432857D02*
X98014761Y-101480476D01*
X98062380Y-101623333D01*
X98062380Y-101718571D01*
X98014761Y-101861428D01*
X97919523Y-101956666D01*
X97824285Y-102004285D01*
X97633809Y-102051904D01*
X97490952Y-102051904D01*
X97300476Y-102004285D01*
X97205238Y-101956666D01*
X97110000Y-101861428D01*
X97062380Y-101718571D01*
X97062380Y-101623333D01*
X97110000Y-101480476D01*
X97157619Y-101432857D01*
X97157619Y-101051904D02*
X97110000Y-101004285D01*
X97062380Y-100909047D01*
X97062380Y-100670952D01*
X97110000Y-100575714D01*
X97157619Y-100528095D01*
X97252857Y-100480476D01*
X97348095Y-100480476D01*
X97490952Y-100528095D01*
X98062380Y-101099523D01*
X98062380Y-100480476D01*
X97062380Y-99575714D02*
X97062380Y-100051904D01*
X97538571Y-100099523D01*
X97490952Y-100051904D01*
X97443333Y-99956666D01*
X97443333Y-99718571D01*
X97490952Y-99623333D01*
X97538571Y-99575714D01*
X97633809Y-99528095D01*
X97871904Y-99528095D01*
X97967142Y-99575714D01*
X98014761Y-99623333D01*
X98062380Y-99718571D01*
X98062380Y-99956666D01*
X98014761Y-100051904D01*
X97967142Y-100099523D01*
%TO.C,C21*%
X96967142Y-73207142D02*
X96919523Y-73254761D01*
X96776666Y-73302380D01*
X96681428Y-73302380D01*
X96538571Y-73254761D01*
X96443333Y-73159523D01*
X96395714Y-73064285D01*
X96348095Y-72873809D01*
X96348095Y-72730952D01*
X96395714Y-72540476D01*
X96443333Y-72445238D01*
X96538571Y-72350000D01*
X96681428Y-72302380D01*
X96776666Y-72302380D01*
X96919523Y-72350000D01*
X96967142Y-72397619D01*
X97348095Y-72397619D02*
X97395714Y-72350000D01*
X97490952Y-72302380D01*
X97729047Y-72302380D01*
X97824285Y-72350000D01*
X97871904Y-72397619D01*
X97919523Y-72492857D01*
X97919523Y-72588095D01*
X97871904Y-72730952D01*
X97300476Y-73302380D01*
X97919523Y-73302380D01*
X98871904Y-73302380D02*
X98300476Y-73302380D01*
X98586190Y-73302380D02*
X98586190Y-72302380D01*
X98490952Y-72445238D01*
X98395714Y-72540476D01*
X98300476Y-72588095D01*
%TO.C,R12*%
X85537142Y-75842380D02*
X85203809Y-75366190D01*
X84965714Y-75842380D02*
X84965714Y-74842380D01*
X85346666Y-74842380D01*
X85441904Y-74890000D01*
X85489523Y-74937619D01*
X85537142Y-75032857D01*
X85537142Y-75175714D01*
X85489523Y-75270952D01*
X85441904Y-75318571D01*
X85346666Y-75366190D01*
X84965714Y-75366190D01*
X86489523Y-75842380D02*
X85918095Y-75842380D01*
X86203809Y-75842380D02*
X86203809Y-74842380D01*
X86108571Y-74985238D01*
X86013333Y-75080476D01*
X85918095Y-75128095D01*
X86870476Y-74937619D02*
X86918095Y-74890000D01*
X87013333Y-74842380D01*
X87251428Y-74842380D01*
X87346666Y-74890000D01*
X87394285Y-74937619D01*
X87441904Y-75032857D01*
X87441904Y-75128095D01*
X87394285Y-75270952D01*
X86822857Y-75842380D01*
X87441904Y-75842380D01*
%TO.C,R10*%
X93152380Y-98892857D02*
X92676190Y-99226190D01*
X93152380Y-99464285D02*
X92152380Y-99464285D01*
X92152380Y-99083333D01*
X92200000Y-98988095D01*
X92247619Y-98940476D01*
X92342857Y-98892857D01*
X92485714Y-98892857D01*
X92580952Y-98940476D01*
X92628571Y-98988095D01*
X92676190Y-99083333D01*
X92676190Y-99464285D01*
X93152380Y-97940476D02*
X93152380Y-98511904D01*
X93152380Y-98226190D02*
X92152380Y-98226190D01*
X92295238Y-98321428D01*
X92390476Y-98416666D01*
X92438095Y-98511904D01*
X92152380Y-97321428D02*
X92152380Y-97226190D01*
X92200000Y-97130952D01*
X92247619Y-97083333D01*
X92342857Y-97035714D01*
X92533333Y-96988095D01*
X92771428Y-96988095D01*
X92961904Y-97035714D01*
X93057142Y-97083333D01*
X93104761Y-97130952D01*
X93152380Y-97226190D01*
X93152380Y-97321428D01*
X93104761Y-97416666D01*
X93057142Y-97464285D01*
X92961904Y-97511904D01*
X92771428Y-97559523D01*
X92533333Y-97559523D01*
X92342857Y-97511904D01*
X92247619Y-97464285D01*
X92200000Y-97416666D01*
X92152380Y-97321428D01*
%TO.C,Q5*%
X102594761Y-117457619D02*
X102499523Y-117410000D01*
X102404285Y-117314761D01*
X102261428Y-117171904D01*
X102166190Y-117124285D01*
X102070952Y-117124285D01*
X102118571Y-117362380D02*
X102023333Y-117314761D01*
X101928095Y-117219523D01*
X101880476Y-117029047D01*
X101880476Y-116695714D01*
X101928095Y-116505238D01*
X102023333Y-116410000D01*
X102118571Y-116362380D01*
X102309047Y-116362380D01*
X102404285Y-116410000D01*
X102499523Y-116505238D01*
X102547142Y-116695714D01*
X102547142Y-117029047D01*
X102499523Y-117219523D01*
X102404285Y-117314761D01*
X102309047Y-117362380D01*
X102118571Y-117362380D01*
X103451904Y-116362380D02*
X102975714Y-116362380D01*
X102928095Y-116838571D01*
X102975714Y-116790952D01*
X103070952Y-116743333D01*
X103309047Y-116743333D01*
X103404285Y-116790952D01*
X103451904Y-116838571D01*
X103499523Y-116933809D01*
X103499523Y-117171904D01*
X103451904Y-117267142D01*
X103404285Y-117314761D01*
X103309047Y-117362380D01*
X103070952Y-117362380D01*
X102975714Y-117314761D01*
X102928095Y-117267142D01*
%TO.C,C27*%
X133817142Y-69702857D02*
X133864761Y-69750476D01*
X133912380Y-69893333D01*
X133912380Y-69988571D01*
X133864761Y-70131428D01*
X133769523Y-70226666D01*
X133674285Y-70274285D01*
X133483809Y-70321904D01*
X133340952Y-70321904D01*
X133150476Y-70274285D01*
X133055238Y-70226666D01*
X132960000Y-70131428D01*
X132912380Y-69988571D01*
X132912380Y-69893333D01*
X132960000Y-69750476D01*
X133007619Y-69702857D01*
X133007619Y-69321904D02*
X132960000Y-69274285D01*
X132912380Y-69179047D01*
X132912380Y-68940952D01*
X132960000Y-68845714D01*
X133007619Y-68798095D01*
X133102857Y-68750476D01*
X133198095Y-68750476D01*
X133340952Y-68798095D01*
X133912380Y-69369523D01*
X133912380Y-68750476D01*
X132912380Y-68417142D02*
X132912380Y-67750476D01*
X133912380Y-68179047D01*
%TO.C,C19*%
X146517142Y-69702857D02*
X146564761Y-69750476D01*
X146612380Y-69893333D01*
X146612380Y-69988571D01*
X146564761Y-70131428D01*
X146469523Y-70226666D01*
X146374285Y-70274285D01*
X146183809Y-70321904D01*
X146040952Y-70321904D01*
X145850476Y-70274285D01*
X145755238Y-70226666D01*
X145660000Y-70131428D01*
X145612380Y-69988571D01*
X145612380Y-69893333D01*
X145660000Y-69750476D01*
X145707619Y-69702857D01*
X146612380Y-68750476D02*
X146612380Y-69321904D01*
X146612380Y-69036190D02*
X145612380Y-69036190D01*
X145755238Y-69131428D01*
X145850476Y-69226666D01*
X145898095Y-69321904D01*
X146612380Y-68274285D02*
X146612380Y-68083809D01*
X146564761Y-67988571D01*
X146517142Y-67940952D01*
X146374285Y-67845714D01*
X146183809Y-67798095D01*
X145802857Y-67798095D01*
X145707619Y-67845714D01*
X145660000Y-67893333D01*
X145612380Y-67988571D01*
X145612380Y-68179047D01*
X145660000Y-68274285D01*
X145707619Y-68321904D01*
X145802857Y-68369523D01*
X146040952Y-68369523D01*
X146136190Y-68321904D01*
X146183809Y-68274285D01*
X146231428Y-68179047D01*
X146231428Y-67988571D01*
X146183809Y-67893333D01*
X146136190Y-67845714D01*
X146040952Y-67798095D01*
%TO.C,C10*%
X121117142Y-69702857D02*
X121164761Y-69750476D01*
X121212380Y-69893333D01*
X121212380Y-69988571D01*
X121164761Y-70131428D01*
X121069523Y-70226666D01*
X120974285Y-70274285D01*
X120783809Y-70321904D01*
X120640952Y-70321904D01*
X120450476Y-70274285D01*
X120355238Y-70226666D01*
X120260000Y-70131428D01*
X120212380Y-69988571D01*
X120212380Y-69893333D01*
X120260000Y-69750476D01*
X120307619Y-69702857D01*
X121212380Y-68750476D02*
X121212380Y-69321904D01*
X121212380Y-69036190D02*
X120212380Y-69036190D01*
X120355238Y-69131428D01*
X120450476Y-69226666D01*
X120498095Y-69321904D01*
X120212380Y-68131428D02*
X120212380Y-68036190D01*
X120260000Y-67940952D01*
X120307619Y-67893333D01*
X120402857Y-67845714D01*
X120593333Y-67798095D01*
X120831428Y-67798095D01*
X121021904Y-67845714D01*
X121117142Y-67893333D01*
X121164761Y-67940952D01*
X121212380Y-68036190D01*
X121212380Y-68131428D01*
X121164761Y-68226666D01*
X121117142Y-68274285D01*
X121021904Y-68321904D01*
X120831428Y-68369523D01*
X120593333Y-68369523D01*
X120402857Y-68321904D01*
X120307619Y-68274285D01*
X120260000Y-68226666D01*
X120212380Y-68131428D01*
%TO.C,C1*%
X108417142Y-69226666D02*
X108464761Y-69274285D01*
X108512380Y-69417142D01*
X108512380Y-69512380D01*
X108464761Y-69655238D01*
X108369523Y-69750476D01*
X108274285Y-69798095D01*
X108083809Y-69845714D01*
X107940952Y-69845714D01*
X107750476Y-69798095D01*
X107655238Y-69750476D01*
X107560000Y-69655238D01*
X107512380Y-69512380D01*
X107512380Y-69417142D01*
X107560000Y-69274285D01*
X107607619Y-69226666D01*
X108512380Y-68274285D02*
X108512380Y-68845714D01*
X108512380Y-68560000D02*
X107512380Y-68560000D01*
X107655238Y-68655238D01*
X107750476Y-68750476D01*
X107798095Y-68845714D01*
%TO.C,J11*%
X157760476Y-59832380D02*
X157760476Y-60546666D01*
X157712857Y-60689523D01*
X157617619Y-60784761D01*
X157474761Y-60832380D01*
X157379523Y-60832380D01*
X158760476Y-60832380D02*
X158189047Y-60832380D01*
X158474761Y-60832380D02*
X158474761Y-59832380D01*
X158379523Y-59975238D01*
X158284285Y-60070476D01*
X158189047Y-60118095D01*
X159712857Y-60832380D02*
X159141428Y-60832380D01*
X159427142Y-60832380D02*
X159427142Y-59832380D01*
X159331904Y-59975238D01*
X159236666Y-60070476D01*
X159141428Y-60118095D01*
%TO.C,U1*%
X85418095Y-85002380D02*
X85418095Y-85811904D01*
X85465714Y-85907142D01*
X85513333Y-85954761D01*
X85608571Y-86002380D01*
X85799047Y-86002380D01*
X85894285Y-85954761D01*
X85941904Y-85907142D01*
X85989523Y-85811904D01*
X85989523Y-85002380D01*
X86989523Y-86002380D02*
X86418095Y-86002380D01*
X86703809Y-86002380D02*
X86703809Y-85002380D01*
X86608571Y-85145238D01*
X86513333Y-85240476D01*
X86418095Y-85288095D01*
%TO.C,T1*%
X102142380Y-88851904D02*
X102142380Y-88280476D01*
X103142380Y-88566190D02*
X102142380Y-88566190D01*
X103142380Y-87423333D02*
X103142380Y-87994761D01*
X103142380Y-87709047D02*
X102142380Y-87709047D01*
X102285238Y-87804285D01*
X102380476Y-87899523D01*
X102428095Y-87994761D01*
%TO.C,R16*%
X88077142Y-68842380D02*
X87743809Y-68366190D01*
X87505714Y-68842380D02*
X87505714Y-67842380D01*
X87886666Y-67842380D01*
X87981904Y-67890000D01*
X88029523Y-67937619D01*
X88077142Y-68032857D01*
X88077142Y-68175714D01*
X88029523Y-68270952D01*
X87981904Y-68318571D01*
X87886666Y-68366190D01*
X87505714Y-68366190D01*
X89029523Y-68842380D02*
X88458095Y-68842380D01*
X88743809Y-68842380D02*
X88743809Y-67842380D01*
X88648571Y-67985238D01*
X88553333Y-68080476D01*
X88458095Y-68128095D01*
X89886666Y-67842380D02*
X89696190Y-67842380D01*
X89600952Y-67890000D01*
X89553333Y-67937619D01*
X89458095Y-68080476D01*
X89410476Y-68270952D01*
X89410476Y-68651904D01*
X89458095Y-68747142D01*
X89505714Y-68794761D01*
X89600952Y-68842380D01*
X89791428Y-68842380D01*
X89886666Y-68794761D01*
X89934285Y-68747142D01*
X89981904Y-68651904D01*
X89981904Y-68413809D01*
X89934285Y-68318571D01*
X89886666Y-68270952D01*
X89791428Y-68223333D01*
X89600952Y-68223333D01*
X89505714Y-68270952D01*
X89458095Y-68318571D01*
X89410476Y-68413809D01*
%TO.C,R15*%
X92982380Y-111592857D02*
X92506190Y-111926190D01*
X92982380Y-112164285D02*
X91982380Y-112164285D01*
X91982380Y-111783333D01*
X92030000Y-111688095D01*
X92077619Y-111640476D01*
X92172857Y-111592857D01*
X92315714Y-111592857D01*
X92410952Y-111640476D01*
X92458571Y-111688095D01*
X92506190Y-111783333D01*
X92506190Y-112164285D01*
X92982380Y-110640476D02*
X92982380Y-111211904D01*
X92982380Y-110926190D02*
X91982380Y-110926190D01*
X92125238Y-111021428D01*
X92220476Y-111116666D01*
X92268095Y-111211904D01*
X91982380Y-109735714D02*
X91982380Y-110211904D01*
X92458571Y-110259523D01*
X92410952Y-110211904D01*
X92363333Y-110116666D01*
X92363333Y-109878571D01*
X92410952Y-109783333D01*
X92458571Y-109735714D01*
X92553809Y-109688095D01*
X92791904Y-109688095D01*
X92887142Y-109735714D01*
X92934761Y-109783333D01*
X92982380Y-109878571D01*
X92982380Y-110116666D01*
X92934761Y-110211904D01*
X92887142Y-110259523D01*
%TO.C,R13*%
X90442380Y-109052857D02*
X89966190Y-109386190D01*
X90442380Y-109624285D02*
X89442380Y-109624285D01*
X89442380Y-109243333D01*
X89490000Y-109148095D01*
X89537619Y-109100476D01*
X89632857Y-109052857D01*
X89775714Y-109052857D01*
X89870952Y-109100476D01*
X89918571Y-109148095D01*
X89966190Y-109243333D01*
X89966190Y-109624285D01*
X90442380Y-108100476D02*
X90442380Y-108671904D01*
X90442380Y-108386190D02*
X89442380Y-108386190D01*
X89585238Y-108481428D01*
X89680476Y-108576666D01*
X89728095Y-108671904D01*
X89442380Y-107767142D02*
X89442380Y-107148095D01*
X89823333Y-107481428D01*
X89823333Y-107338571D01*
X89870952Y-107243333D01*
X89918571Y-107195714D01*
X90013809Y-107148095D01*
X90251904Y-107148095D01*
X90347142Y-107195714D01*
X90394761Y-107243333D01*
X90442380Y-107338571D01*
X90442380Y-107624285D01*
X90394761Y-107719523D01*
X90347142Y-107767142D01*
%TO.C,R11*%
X131252380Y-120482857D02*
X130776190Y-120816190D01*
X131252380Y-121054285D02*
X130252380Y-121054285D01*
X130252380Y-120673333D01*
X130300000Y-120578095D01*
X130347619Y-120530476D01*
X130442857Y-120482857D01*
X130585714Y-120482857D01*
X130680952Y-120530476D01*
X130728571Y-120578095D01*
X130776190Y-120673333D01*
X130776190Y-121054285D01*
X131252380Y-119530476D02*
X131252380Y-120101904D01*
X131252380Y-119816190D02*
X130252380Y-119816190D01*
X130395238Y-119911428D01*
X130490476Y-120006666D01*
X130538095Y-120101904D01*
X131252380Y-118578095D02*
X131252380Y-119149523D01*
X131252380Y-118863809D02*
X130252380Y-118863809D01*
X130395238Y-118959047D01*
X130490476Y-119054285D01*
X130538095Y-119149523D01*
%TO.C,R9*%
X102523333Y-98702380D02*
X102190000Y-98226190D01*
X101951904Y-98702380D02*
X101951904Y-97702380D01*
X102332857Y-97702380D01*
X102428095Y-97750000D01*
X102475714Y-97797619D01*
X102523333Y-97892857D01*
X102523333Y-98035714D01*
X102475714Y-98130952D01*
X102428095Y-98178571D01*
X102332857Y-98226190D01*
X101951904Y-98226190D01*
X102999523Y-98702380D02*
X103190000Y-98702380D01*
X103285238Y-98654761D01*
X103332857Y-98607142D01*
X103428095Y-98464285D01*
X103475714Y-98273809D01*
X103475714Y-97892857D01*
X103428095Y-97797619D01*
X103380476Y-97750000D01*
X103285238Y-97702380D01*
X103094761Y-97702380D01*
X102999523Y-97750000D01*
X102951904Y-97797619D01*
X102904285Y-97892857D01*
X102904285Y-98130952D01*
X102951904Y-98226190D01*
X102999523Y-98273809D01*
X103094761Y-98321428D01*
X103285238Y-98321428D01*
X103380476Y-98273809D01*
X103428095Y-98226190D01*
X103475714Y-98130952D01*
%TO.C,R8*%
X141072380Y-120006666D02*
X140596190Y-120340000D01*
X141072380Y-120578095D02*
X140072380Y-120578095D01*
X140072380Y-120197142D01*
X140120000Y-120101904D01*
X140167619Y-120054285D01*
X140262857Y-120006666D01*
X140405714Y-120006666D01*
X140500952Y-120054285D01*
X140548571Y-120101904D01*
X140596190Y-120197142D01*
X140596190Y-120578095D01*
X140500952Y-119435238D02*
X140453333Y-119530476D01*
X140405714Y-119578095D01*
X140310476Y-119625714D01*
X140262857Y-119625714D01*
X140167619Y-119578095D01*
X140120000Y-119530476D01*
X140072380Y-119435238D01*
X140072380Y-119244761D01*
X140120000Y-119149523D01*
X140167619Y-119101904D01*
X140262857Y-119054285D01*
X140310476Y-119054285D01*
X140405714Y-119101904D01*
X140453333Y-119149523D01*
X140500952Y-119244761D01*
X140500952Y-119435238D01*
X140548571Y-119530476D01*
X140596190Y-119578095D01*
X140691428Y-119625714D01*
X140881904Y-119625714D01*
X140977142Y-119578095D01*
X141024761Y-119530476D01*
X141072380Y-119435238D01*
X141072380Y-119244761D01*
X141024761Y-119149523D01*
X140977142Y-119101904D01*
X140881904Y-119054285D01*
X140691428Y-119054285D01*
X140596190Y-119101904D01*
X140548571Y-119149523D01*
X140500952Y-119244761D01*
%TO.C,R7*%
X96173333Y-70762380D02*
X95840000Y-70286190D01*
X95601904Y-70762380D02*
X95601904Y-69762380D01*
X95982857Y-69762380D01*
X96078095Y-69810000D01*
X96125714Y-69857619D01*
X96173333Y-69952857D01*
X96173333Y-70095714D01*
X96125714Y-70190952D01*
X96078095Y-70238571D01*
X95982857Y-70286190D01*
X95601904Y-70286190D01*
X96506666Y-69762380D02*
X97173333Y-69762380D01*
X96744761Y-70762380D01*
%TO.C,R6*%
X153772380Y-120006666D02*
X153296190Y-120340000D01*
X153772380Y-120578095D02*
X152772380Y-120578095D01*
X152772380Y-120197142D01*
X152820000Y-120101904D01*
X152867619Y-120054285D01*
X152962857Y-120006666D01*
X153105714Y-120006666D01*
X153200952Y-120054285D01*
X153248571Y-120101904D01*
X153296190Y-120197142D01*
X153296190Y-120578095D01*
X152772380Y-119149523D02*
X152772380Y-119340000D01*
X152820000Y-119435238D01*
X152867619Y-119482857D01*
X153010476Y-119578095D01*
X153200952Y-119625714D01*
X153581904Y-119625714D01*
X153677142Y-119578095D01*
X153724761Y-119530476D01*
X153772380Y-119435238D01*
X153772380Y-119244761D01*
X153724761Y-119149523D01*
X153677142Y-119101904D01*
X153581904Y-119054285D01*
X153343809Y-119054285D01*
X153248571Y-119101904D01*
X153200952Y-119149523D01*
X153153333Y-119244761D01*
X153153333Y-119435238D01*
X153200952Y-119530476D01*
X153248571Y-119578095D01*
X153343809Y-119625714D01*
%TO.C,R5*%
X143952380Y-120006666D02*
X143476190Y-120340000D01*
X143952380Y-120578095D02*
X142952380Y-120578095D01*
X142952380Y-120197142D01*
X143000000Y-120101904D01*
X143047619Y-120054285D01*
X143142857Y-120006666D01*
X143285714Y-120006666D01*
X143380952Y-120054285D01*
X143428571Y-120101904D01*
X143476190Y-120197142D01*
X143476190Y-120578095D01*
X142952380Y-119101904D02*
X142952380Y-119578095D01*
X143428571Y-119625714D01*
X143380952Y-119578095D01*
X143333333Y-119482857D01*
X143333333Y-119244761D01*
X143380952Y-119149523D01*
X143428571Y-119101904D01*
X143523809Y-119054285D01*
X143761904Y-119054285D01*
X143857142Y-119101904D01*
X143904761Y-119149523D01*
X143952380Y-119244761D01*
X143952380Y-119482857D01*
X143904761Y-119578095D01*
X143857142Y-119625714D01*
%TO.C,R4*%
X128372380Y-120006666D02*
X127896190Y-120340000D01*
X128372380Y-120578095D02*
X127372380Y-120578095D01*
X127372380Y-120197142D01*
X127420000Y-120101904D01*
X127467619Y-120054285D01*
X127562857Y-120006666D01*
X127705714Y-120006666D01*
X127800952Y-120054285D01*
X127848571Y-120101904D01*
X127896190Y-120197142D01*
X127896190Y-120578095D01*
X127705714Y-119149523D02*
X128372380Y-119149523D01*
X127324761Y-119387619D02*
X128039047Y-119625714D01*
X128039047Y-119006666D01*
%TO.C,R3*%
X118552380Y-120006666D02*
X118076190Y-120340000D01*
X118552380Y-120578095D02*
X117552380Y-120578095D01*
X117552380Y-120197142D01*
X117600000Y-120101904D01*
X117647619Y-120054285D01*
X117742857Y-120006666D01*
X117885714Y-120006666D01*
X117980952Y-120054285D01*
X118028571Y-120101904D01*
X118076190Y-120197142D01*
X118076190Y-120578095D01*
X117552380Y-119673333D02*
X117552380Y-119054285D01*
X117933333Y-119387619D01*
X117933333Y-119244761D01*
X117980952Y-119149523D01*
X118028571Y-119101904D01*
X118123809Y-119054285D01*
X118361904Y-119054285D01*
X118457142Y-119101904D01*
X118504761Y-119149523D01*
X118552380Y-119244761D01*
X118552380Y-119530476D01*
X118504761Y-119625714D01*
X118457142Y-119673333D01*
%TO.C,R2*%
X115672380Y-120006666D02*
X115196190Y-120340000D01*
X115672380Y-120578095D02*
X114672380Y-120578095D01*
X114672380Y-120197142D01*
X114720000Y-120101904D01*
X114767619Y-120054285D01*
X114862857Y-120006666D01*
X115005714Y-120006666D01*
X115100952Y-120054285D01*
X115148571Y-120101904D01*
X115196190Y-120197142D01*
X115196190Y-120578095D01*
X114767619Y-119625714D02*
X114720000Y-119578095D01*
X114672380Y-119482857D01*
X114672380Y-119244761D01*
X114720000Y-119149523D01*
X114767619Y-119101904D01*
X114862857Y-119054285D01*
X114958095Y-119054285D01*
X115100952Y-119101904D01*
X115672380Y-119673333D01*
X115672380Y-119054285D01*
%TO.C,R1*%
X105852380Y-120006666D02*
X105376190Y-120340000D01*
X105852380Y-120578095D02*
X104852380Y-120578095D01*
X104852380Y-120197142D01*
X104900000Y-120101904D01*
X104947619Y-120054285D01*
X105042857Y-120006666D01*
X105185714Y-120006666D01*
X105280952Y-120054285D01*
X105328571Y-120101904D01*
X105376190Y-120197142D01*
X105376190Y-120578095D01*
X105852380Y-119054285D02*
X105852380Y-119625714D01*
X105852380Y-119340000D02*
X104852380Y-119340000D01*
X104995238Y-119435238D01*
X105090476Y-119530476D01*
X105138095Y-119625714D01*
%TO.C,Q11*%
X94498571Y-81017619D02*
X94403333Y-80970000D01*
X94308095Y-80874761D01*
X94165238Y-80731904D01*
X94070000Y-80684285D01*
X93974761Y-80684285D01*
X94022380Y-80922380D02*
X93927142Y-80874761D01*
X93831904Y-80779523D01*
X93784285Y-80589047D01*
X93784285Y-80255714D01*
X93831904Y-80065238D01*
X93927142Y-79970000D01*
X94022380Y-79922380D01*
X94212857Y-79922380D01*
X94308095Y-79970000D01*
X94403333Y-80065238D01*
X94450952Y-80255714D01*
X94450952Y-80589047D01*
X94403333Y-80779523D01*
X94308095Y-80874761D01*
X94212857Y-80922380D01*
X94022380Y-80922380D01*
X95403333Y-80922380D02*
X94831904Y-80922380D01*
X95117619Y-80922380D02*
X95117619Y-79922380D01*
X95022380Y-80065238D01*
X94927142Y-80160476D01*
X94831904Y-80208095D01*
X96355714Y-80922380D02*
X95784285Y-80922380D01*
X96070000Y-80922380D02*
X96070000Y-79922380D01*
X95974761Y-80065238D01*
X95879523Y-80160476D01*
X95784285Y-80208095D01*
%TO.C,Q10*%
X133717619Y-116601428D02*
X133670000Y-116696666D01*
X133574761Y-116791904D01*
X133431904Y-116934761D01*
X133384285Y-117030000D01*
X133384285Y-117125238D01*
X133622380Y-117077619D02*
X133574761Y-117172857D01*
X133479523Y-117268095D01*
X133289047Y-117315714D01*
X132955714Y-117315714D01*
X132765238Y-117268095D01*
X132670000Y-117172857D01*
X132622380Y-117077619D01*
X132622380Y-116887142D01*
X132670000Y-116791904D01*
X132765238Y-116696666D01*
X132955714Y-116649047D01*
X133289047Y-116649047D01*
X133479523Y-116696666D01*
X133574761Y-116791904D01*
X133622380Y-116887142D01*
X133622380Y-117077619D01*
X133622380Y-115696666D02*
X133622380Y-116268095D01*
X133622380Y-115982380D02*
X132622380Y-115982380D01*
X132765238Y-116077619D01*
X132860476Y-116172857D01*
X132908095Y-116268095D01*
X132622380Y-115077619D02*
X132622380Y-114982380D01*
X132670000Y-114887142D01*
X132717619Y-114839523D01*
X132812857Y-114791904D01*
X133003333Y-114744285D01*
X133241428Y-114744285D01*
X133431904Y-114791904D01*
X133527142Y-114839523D01*
X133574761Y-114887142D01*
X133622380Y-114982380D01*
X133622380Y-115077619D01*
X133574761Y-115172857D01*
X133527142Y-115220476D01*
X133431904Y-115268095D01*
X133241428Y-115315714D01*
X133003333Y-115315714D01*
X132812857Y-115268095D01*
X132717619Y-115220476D01*
X132670000Y-115172857D01*
X132622380Y-115077619D01*
%TO.C,Q9*%
X94974761Y-86097619D02*
X94879523Y-86050000D01*
X94784285Y-85954761D01*
X94641428Y-85811904D01*
X94546190Y-85764285D01*
X94450952Y-85764285D01*
X94498571Y-86002380D02*
X94403333Y-85954761D01*
X94308095Y-85859523D01*
X94260476Y-85669047D01*
X94260476Y-85335714D01*
X94308095Y-85145238D01*
X94403333Y-85050000D01*
X94498571Y-85002380D01*
X94689047Y-85002380D01*
X94784285Y-85050000D01*
X94879523Y-85145238D01*
X94927142Y-85335714D01*
X94927142Y-85669047D01*
X94879523Y-85859523D01*
X94784285Y-85954761D01*
X94689047Y-86002380D01*
X94498571Y-86002380D01*
X95403333Y-86002380D02*
X95593809Y-86002380D01*
X95689047Y-85954761D01*
X95736666Y-85907142D01*
X95831904Y-85764285D01*
X95879523Y-85573809D01*
X95879523Y-85192857D01*
X95831904Y-85097619D01*
X95784285Y-85050000D01*
X95689047Y-85002380D01*
X95498571Y-85002380D01*
X95403333Y-85050000D01*
X95355714Y-85097619D01*
X95308095Y-85192857D01*
X95308095Y-85430952D01*
X95355714Y-85526190D01*
X95403333Y-85573809D01*
X95498571Y-85621428D01*
X95689047Y-85621428D01*
X95784285Y-85573809D01*
X95831904Y-85526190D01*
X95879523Y-85430952D01*
%TO.C,Q8*%
X95617619Y-111045238D02*
X95570000Y-111140476D01*
X95474761Y-111235714D01*
X95331904Y-111378571D01*
X95284285Y-111473809D01*
X95284285Y-111569047D01*
X95522380Y-111521428D02*
X95474761Y-111616666D01*
X95379523Y-111711904D01*
X95189047Y-111759523D01*
X94855714Y-111759523D01*
X94665238Y-111711904D01*
X94570000Y-111616666D01*
X94522380Y-111521428D01*
X94522380Y-111330952D01*
X94570000Y-111235714D01*
X94665238Y-111140476D01*
X94855714Y-111092857D01*
X95189047Y-111092857D01*
X95379523Y-111140476D01*
X95474761Y-111235714D01*
X95522380Y-111330952D01*
X95522380Y-111521428D01*
X94950952Y-110521428D02*
X94903333Y-110616666D01*
X94855714Y-110664285D01*
X94760476Y-110711904D01*
X94712857Y-110711904D01*
X94617619Y-110664285D01*
X94570000Y-110616666D01*
X94522380Y-110521428D01*
X94522380Y-110330952D01*
X94570000Y-110235714D01*
X94617619Y-110188095D01*
X94712857Y-110140476D01*
X94760476Y-110140476D01*
X94855714Y-110188095D01*
X94903333Y-110235714D01*
X94950952Y-110330952D01*
X94950952Y-110521428D01*
X94998571Y-110616666D01*
X95046190Y-110664285D01*
X95141428Y-110711904D01*
X95331904Y-110711904D01*
X95427142Y-110664285D01*
X95474761Y-110616666D01*
X95522380Y-110521428D01*
X95522380Y-110330952D01*
X95474761Y-110235714D01*
X95427142Y-110188095D01*
X95331904Y-110140476D01*
X95141428Y-110140476D01*
X95046190Y-110188095D01*
X94998571Y-110235714D01*
X94950952Y-110330952D01*
%TO.C,Q7*%
X94974761Y-91177619D02*
X94879523Y-91130000D01*
X94784285Y-91034761D01*
X94641428Y-90891904D01*
X94546190Y-90844285D01*
X94450952Y-90844285D01*
X94498571Y-91082380D02*
X94403333Y-91034761D01*
X94308095Y-90939523D01*
X94260476Y-90749047D01*
X94260476Y-90415714D01*
X94308095Y-90225238D01*
X94403333Y-90130000D01*
X94498571Y-90082380D01*
X94689047Y-90082380D01*
X94784285Y-90130000D01*
X94879523Y-90225238D01*
X94927142Y-90415714D01*
X94927142Y-90749047D01*
X94879523Y-90939523D01*
X94784285Y-91034761D01*
X94689047Y-91082380D01*
X94498571Y-91082380D01*
X95260476Y-90082380D02*
X95927142Y-90082380D01*
X95498571Y-91082380D01*
%TO.C,Q6*%
X94974761Y-96317619D02*
X94879523Y-96270000D01*
X94784285Y-96174761D01*
X94641428Y-96031904D01*
X94546190Y-95984285D01*
X94450952Y-95984285D01*
X94498571Y-96222380D02*
X94403333Y-96174761D01*
X94308095Y-96079523D01*
X94260476Y-95889047D01*
X94260476Y-95555714D01*
X94308095Y-95365238D01*
X94403333Y-95270000D01*
X94498571Y-95222380D01*
X94689047Y-95222380D01*
X94784285Y-95270000D01*
X94879523Y-95365238D01*
X94927142Y-95555714D01*
X94927142Y-95889047D01*
X94879523Y-96079523D01*
X94784285Y-96174761D01*
X94689047Y-96222380D01*
X94498571Y-96222380D01*
X95784285Y-95222380D02*
X95593809Y-95222380D01*
X95498571Y-95270000D01*
X95450952Y-95317619D01*
X95355714Y-95460476D01*
X95308095Y-95650952D01*
X95308095Y-96031904D01*
X95355714Y-96127142D01*
X95403333Y-96174761D01*
X95498571Y-96222380D01*
X95689047Y-96222380D01*
X95784285Y-96174761D01*
X95831904Y-96127142D01*
X95879523Y-96031904D01*
X95879523Y-95793809D01*
X95831904Y-95698571D01*
X95784285Y-95650952D01*
X95689047Y-95603333D01*
X95498571Y-95603333D01*
X95403333Y-95650952D01*
X95355714Y-95698571D01*
X95308095Y-95793809D01*
%TO.C,Q4*%
X84814761Y-73397619D02*
X84719523Y-73350000D01*
X84624285Y-73254761D01*
X84481428Y-73111904D01*
X84386190Y-73064285D01*
X84290952Y-73064285D01*
X84338571Y-73302380D02*
X84243333Y-73254761D01*
X84148095Y-73159523D01*
X84100476Y-72969047D01*
X84100476Y-72635714D01*
X84148095Y-72445238D01*
X84243333Y-72350000D01*
X84338571Y-72302380D01*
X84529047Y-72302380D01*
X84624285Y-72350000D01*
X84719523Y-72445238D01*
X84767142Y-72635714D01*
X84767142Y-72969047D01*
X84719523Y-73159523D01*
X84624285Y-73254761D01*
X84529047Y-73302380D01*
X84338571Y-73302380D01*
X85624285Y-72635714D02*
X85624285Y-73302380D01*
X85386190Y-72254761D02*
X85148095Y-72969047D01*
X85767142Y-72969047D01*
%TO.C,Q3*%
X146417619Y-116125238D02*
X146370000Y-116220476D01*
X146274761Y-116315714D01*
X146131904Y-116458571D01*
X146084285Y-116553809D01*
X146084285Y-116649047D01*
X146322380Y-116601428D02*
X146274761Y-116696666D01*
X146179523Y-116791904D01*
X145989047Y-116839523D01*
X145655714Y-116839523D01*
X145465238Y-116791904D01*
X145370000Y-116696666D01*
X145322380Y-116601428D01*
X145322380Y-116410952D01*
X145370000Y-116315714D01*
X145465238Y-116220476D01*
X145655714Y-116172857D01*
X145989047Y-116172857D01*
X146179523Y-116220476D01*
X146274761Y-116315714D01*
X146322380Y-116410952D01*
X146322380Y-116601428D01*
X145322380Y-115839523D02*
X145322380Y-115220476D01*
X145703333Y-115553809D01*
X145703333Y-115410952D01*
X145750952Y-115315714D01*
X145798571Y-115268095D01*
X145893809Y-115220476D01*
X146131904Y-115220476D01*
X146227142Y-115268095D01*
X146274761Y-115315714D01*
X146322380Y-115410952D01*
X146322380Y-115696666D01*
X146274761Y-115791904D01*
X146227142Y-115839523D01*
%TO.C,Q2*%
X121017619Y-116125238D02*
X120970000Y-116220476D01*
X120874761Y-116315714D01*
X120731904Y-116458571D01*
X120684285Y-116553809D01*
X120684285Y-116649047D01*
X120922380Y-116601428D02*
X120874761Y-116696666D01*
X120779523Y-116791904D01*
X120589047Y-116839523D01*
X120255714Y-116839523D01*
X120065238Y-116791904D01*
X119970000Y-116696666D01*
X119922380Y-116601428D01*
X119922380Y-116410952D01*
X119970000Y-116315714D01*
X120065238Y-116220476D01*
X120255714Y-116172857D01*
X120589047Y-116172857D01*
X120779523Y-116220476D01*
X120874761Y-116315714D01*
X120922380Y-116410952D01*
X120922380Y-116601428D01*
X120017619Y-115791904D02*
X119970000Y-115744285D01*
X119922380Y-115649047D01*
X119922380Y-115410952D01*
X119970000Y-115315714D01*
X120017619Y-115268095D01*
X120112857Y-115220476D01*
X120208095Y-115220476D01*
X120350952Y-115268095D01*
X120922380Y-115839523D01*
X120922380Y-115220476D01*
%TO.C,Q1*%
X108317619Y-116125238D02*
X108270000Y-116220476D01*
X108174761Y-116315714D01*
X108031904Y-116458571D01*
X107984285Y-116553809D01*
X107984285Y-116649047D01*
X108222380Y-116601428D02*
X108174761Y-116696666D01*
X108079523Y-116791904D01*
X107889047Y-116839523D01*
X107555714Y-116839523D01*
X107365238Y-116791904D01*
X107270000Y-116696666D01*
X107222380Y-116601428D01*
X107222380Y-116410952D01*
X107270000Y-116315714D01*
X107365238Y-116220476D01*
X107555714Y-116172857D01*
X107889047Y-116172857D01*
X108079523Y-116220476D01*
X108174761Y-116315714D01*
X108222380Y-116410952D01*
X108222380Y-116601428D01*
X108222380Y-115220476D02*
X108222380Y-115791904D01*
X108222380Y-115506190D02*
X107222380Y-115506190D01*
X107365238Y-115601428D01*
X107460476Y-115696666D01*
X107508095Y-115791904D01*
%TO.C,L13*%
X138702380Y-60792857D02*
X138702380Y-61269047D01*
X137702380Y-61269047D01*
X138702380Y-59935714D02*
X138702380Y-60507142D01*
X138702380Y-60221428D02*
X137702380Y-60221428D01*
X137845238Y-60316666D01*
X137940476Y-60411904D01*
X137988095Y-60507142D01*
X137702380Y-59602380D02*
X137702380Y-58983333D01*
X138083333Y-59316666D01*
X138083333Y-59173809D01*
X138130952Y-59078571D01*
X138178571Y-59030952D01*
X138273809Y-58983333D01*
X138511904Y-58983333D01*
X138607142Y-59030952D01*
X138654761Y-59078571D01*
X138702380Y-59173809D01*
X138702380Y-59459523D01*
X138654761Y-59554761D01*
X138607142Y-59602380D01*
%TO.C,L12*%
X153942380Y-111592857D02*
X153942380Y-112069047D01*
X152942380Y-112069047D01*
X153942380Y-110735714D02*
X153942380Y-111307142D01*
X153942380Y-111021428D02*
X152942380Y-111021428D01*
X153085238Y-111116666D01*
X153180476Y-111211904D01*
X153228095Y-111307142D01*
X153037619Y-110354761D02*
X152990000Y-110307142D01*
X152942380Y-110211904D01*
X152942380Y-109973809D01*
X152990000Y-109878571D01*
X153037619Y-109830952D01*
X153132857Y-109783333D01*
X153228095Y-109783333D01*
X153370952Y-109830952D01*
X153942380Y-110402380D01*
X153942380Y-109783333D01*
%TO.C,L11*%
X140147142Y-111402380D02*
X139670952Y-111402380D01*
X139670952Y-110402380D01*
X141004285Y-111402380D02*
X140432857Y-111402380D01*
X140718571Y-111402380D02*
X140718571Y-110402380D01*
X140623333Y-110545238D01*
X140528095Y-110640476D01*
X140432857Y-110688095D01*
X141956666Y-111402380D02*
X141385238Y-111402380D01*
X141670952Y-111402380D02*
X141670952Y-110402380D01*
X141575714Y-110545238D01*
X141480476Y-110640476D01*
X141385238Y-110688095D01*
%TO.C,L10*%
X128542380Y-111592857D02*
X128542380Y-112069047D01*
X127542380Y-112069047D01*
X128542380Y-110735714D02*
X128542380Y-111307142D01*
X128542380Y-111021428D02*
X127542380Y-111021428D01*
X127685238Y-111116666D01*
X127780476Y-111211904D01*
X127828095Y-111307142D01*
X127542380Y-110116666D02*
X127542380Y-110021428D01*
X127590000Y-109926190D01*
X127637619Y-109878571D01*
X127732857Y-109830952D01*
X127923333Y-109783333D01*
X128161428Y-109783333D01*
X128351904Y-109830952D01*
X128447142Y-109878571D01*
X128494761Y-109926190D01*
X128542380Y-110021428D01*
X128542380Y-110116666D01*
X128494761Y-110211904D01*
X128447142Y-110259523D01*
X128351904Y-110307142D01*
X128161428Y-110354761D01*
X127923333Y-110354761D01*
X127732857Y-110307142D01*
X127637619Y-110259523D01*
X127590000Y-110211904D01*
X127542380Y-110116666D01*
%TO.C,L9*%
X115223333Y-111402380D02*
X114747142Y-111402380D01*
X114747142Y-110402380D01*
X115604285Y-111402380D02*
X115794761Y-111402380D01*
X115890000Y-111354761D01*
X115937619Y-111307142D01*
X116032857Y-111164285D01*
X116080476Y-110973809D01*
X116080476Y-110592857D01*
X116032857Y-110497619D01*
X115985238Y-110450000D01*
X115890000Y-110402380D01*
X115699523Y-110402380D01*
X115604285Y-110450000D01*
X115556666Y-110497619D01*
X115509047Y-110592857D01*
X115509047Y-110830952D01*
X115556666Y-110926190D01*
X115604285Y-110973809D01*
X115699523Y-111021428D01*
X115890000Y-111021428D01*
X115985238Y-110973809D01*
X116032857Y-110926190D01*
X116080476Y-110830952D01*
%TO.C,L8*%
X155863333Y-101242380D02*
X155387142Y-101242380D01*
X155387142Y-100242380D01*
X156339523Y-100670952D02*
X156244285Y-100623333D01*
X156196666Y-100575714D01*
X156149047Y-100480476D01*
X156149047Y-100432857D01*
X156196666Y-100337619D01*
X156244285Y-100290000D01*
X156339523Y-100242380D01*
X156530000Y-100242380D01*
X156625238Y-100290000D01*
X156672857Y-100337619D01*
X156720476Y-100432857D01*
X156720476Y-100480476D01*
X156672857Y-100575714D01*
X156625238Y-100623333D01*
X156530000Y-100670952D01*
X156339523Y-100670952D01*
X156244285Y-100718571D01*
X156196666Y-100766190D01*
X156149047Y-100861428D01*
X156149047Y-101051904D01*
X156196666Y-101147142D01*
X156244285Y-101194761D01*
X156339523Y-101242380D01*
X156530000Y-101242380D01*
X156625238Y-101194761D01*
X156672857Y-101147142D01*
X156720476Y-101051904D01*
X156720476Y-100861428D01*
X156672857Y-100766190D01*
X156625238Y-100718571D01*
X156530000Y-100670952D01*
%TO.C,L6*%
X130463333Y-101242380D02*
X129987142Y-101242380D01*
X129987142Y-100242380D01*
X131225238Y-100242380D02*
X131034761Y-100242380D01*
X130939523Y-100290000D01*
X130891904Y-100337619D01*
X130796666Y-100480476D01*
X130749047Y-100670952D01*
X130749047Y-101051904D01*
X130796666Y-101147142D01*
X130844285Y-101194761D01*
X130939523Y-101242380D01*
X131130000Y-101242380D01*
X131225238Y-101194761D01*
X131272857Y-101147142D01*
X131320476Y-101051904D01*
X131320476Y-100813809D01*
X131272857Y-100718571D01*
X131225238Y-100670952D01*
X131130000Y-100623333D01*
X130939523Y-100623333D01*
X130844285Y-100670952D01*
X130796666Y-100718571D01*
X130749047Y-100813809D01*
%TO.C,L4*%
X156482380Y-90796666D02*
X156482380Y-91272857D01*
X155482380Y-91272857D01*
X155815714Y-90034761D02*
X156482380Y-90034761D01*
X155434761Y-90272857D02*
X156149047Y-90510952D01*
X156149047Y-89891904D01*
%TO.C,L2*%
X131082380Y-90796666D02*
X131082380Y-91272857D01*
X130082380Y-91272857D01*
X130177619Y-90510952D02*
X130130000Y-90463333D01*
X130082380Y-90368095D01*
X130082380Y-90130000D01*
X130130000Y-90034761D01*
X130177619Y-89987142D01*
X130272857Y-89939523D01*
X130368095Y-89939523D01*
X130510952Y-89987142D01*
X131082380Y-90558571D01*
X131082380Y-89939523D01*
%TO.C,K4*%
X152751904Y-77112380D02*
X152751904Y-76112380D01*
X153323333Y-77112380D02*
X152894761Y-76540952D01*
X153323333Y-76112380D02*
X152751904Y-76683809D01*
X154180476Y-76445714D02*
X154180476Y-77112380D01*
X153942380Y-76064761D02*
X153704285Y-76779047D01*
X154323333Y-76779047D01*
%TO.C,K3*%
X140051904Y-77112380D02*
X140051904Y-76112380D01*
X140623333Y-77112380D02*
X140194761Y-76540952D01*
X140623333Y-76112380D02*
X140051904Y-76683809D01*
X140956666Y-76112380D02*
X141575714Y-76112380D01*
X141242380Y-76493333D01*
X141385238Y-76493333D01*
X141480476Y-76540952D01*
X141528095Y-76588571D01*
X141575714Y-76683809D01*
X141575714Y-76921904D01*
X141528095Y-77017142D01*
X141480476Y-77064761D01*
X141385238Y-77112380D01*
X141099523Y-77112380D01*
X141004285Y-77064761D01*
X140956666Y-77017142D01*
%TO.C,K2*%
X127351904Y-77112380D02*
X127351904Y-76112380D01*
X127923333Y-77112380D02*
X127494761Y-76540952D01*
X127923333Y-76112380D02*
X127351904Y-76683809D01*
X128304285Y-76207619D02*
X128351904Y-76160000D01*
X128447142Y-76112380D01*
X128685238Y-76112380D01*
X128780476Y-76160000D01*
X128828095Y-76207619D01*
X128875714Y-76302857D01*
X128875714Y-76398095D01*
X128828095Y-76540952D01*
X128256666Y-77112380D01*
X128875714Y-77112380D01*
%TO.C,K1*%
X114651904Y-77112380D02*
X114651904Y-76112380D01*
X115223333Y-77112380D02*
X114794761Y-76540952D01*
X115223333Y-76112380D02*
X114651904Y-76683809D01*
X116175714Y-77112380D02*
X115604285Y-77112380D01*
X115890000Y-77112380D02*
X115890000Y-76112380D01*
X115794761Y-76255238D01*
X115699523Y-76350476D01*
X115604285Y-76398095D01*
%TO.C,J7*%
X76956666Y-97472380D02*
X76956666Y-98186666D01*
X76909047Y-98329523D01*
X76813809Y-98424761D01*
X76670952Y-98472380D01*
X76575714Y-98472380D01*
X77337619Y-97472380D02*
X78004285Y-97472380D01*
X77575714Y-98472380D01*
%TO.C,J6*%
X76956666Y-69532380D02*
X76956666Y-70246666D01*
X76909047Y-70389523D01*
X76813809Y-70484761D01*
X76670952Y-70532380D01*
X76575714Y-70532380D01*
X77861428Y-69532380D02*
X77670952Y-69532380D01*
X77575714Y-69580000D01*
X77528095Y-69627619D01*
X77432857Y-69770476D01*
X77385238Y-69960952D01*
X77385238Y-70341904D01*
X77432857Y-70437142D01*
X77480476Y-70484761D01*
X77575714Y-70532380D01*
X77766190Y-70532380D01*
X77861428Y-70484761D01*
X77909047Y-70437142D01*
X77956666Y-70341904D01*
X77956666Y-70103809D01*
X77909047Y-70008571D01*
X77861428Y-69960952D01*
X77766190Y-69913333D01*
X77575714Y-69913333D01*
X77480476Y-69960952D01*
X77432857Y-70008571D01*
X77385238Y-70103809D01*
%TO.C,J3*%
X150616666Y-55792380D02*
X150616666Y-56506666D01*
X150569047Y-56649523D01*
X150473809Y-56744761D01*
X150330952Y-56792380D01*
X150235714Y-56792380D01*
X150997619Y-55792380D02*
X151616666Y-55792380D01*
X151283333Y-56173333D01*
X151426190Y-56173333D01*
X151521428Y-56220952D01*
X151569047Y-56268571D01*
X151616666Y-56363809D01*
X151616666Y-56601904D01*
X151569047Y-56697142D01*
X151521428Y-56744761D01*
X151426190Y-56792380D01*
X151140476Y-56792380D01*
X151045238Y-56744761D01*
X150997619Y-56697142D01*
%TO.C,J2*%
X101912380Y-126523333D02*
X102626666Y-126523333D01*
X102769523Y-126570952D01*
X102864761Y-126666190D01*
X102912380Y-126809047D01*
X102912380Y-126904285D01*
X102007619Y-126094761D02*
X101960000Y-126047142D01*
X101912380Y-125951904D01*
X101912380Y-125713809D01*
X101960000Y-125618571D01*
X102007619Y-125570952D01*
X102102857Y-125523333D01*
X102198095Y-125523333D01*
X102340952Y-125570952D01*
X102912380Y-126142380D01*
X102912380Y-125523333D01*
%TO.C,J1*%
X120136666Y-57062380D02*
X120136666Y-57776666D01*
X120089047Y-57919523D01*
X119993809Y-58014761D01*
X119850952Y-58062380D01*
X119755714Y-58062380D01*
X121136666Y-58062380D02*
X120565238Y-58062380D01*
X120850952Y-58062380D02*
X120850952Y-57062380D01*
X120755714Y-57205238D01*
X120660476Y-57300476D01*
X120565238Y-57348095D01*
%TO.C,D5*%
X140051904Y-68222380D02*
X140051904Y-67222380D01*
X140290000Y-67222380D01*
X140432857Y-67270000D01*
X140528095Y-67365238D01*
X140575714Y-67460476D01*
X140623333Y-67650952D01*
X140623333Y-67793809D01*
X140575714Y-67984285D01*
X140528095Y-68079523D01*
X140432857Y-68174761D01*
X140290000Y-68222380D01*
X140051904Y-68222380D01*
X141528095Y-67222380D02*
X141051904Y-67222380D01*
X141004285Y-67698571D01*
X141051904Y-67650952D01*
X141147142Y-67603333D01*
X141385238Y-67603333D01*
X141480476Y-67650952D01*
X141528095Y-67698571D01*
X141575714Y-67793809D01*
X141575714Y-68031904D01*
X141528095Y-68127142D01*
X141480476Y-68174761D01*
X141385238Y-68222380D01*
X141147142Y-68222380D01*
X141051904Y-68174761D01*
X141004285Y-68127142D01*
X143068095Y-70222380D02*
X143068095Y-69222380D01*
X143639523Y-70222380D02*
X143210952Y-69650952D01*
X143639523Y-69222380D02*
X143068095Y-69793809D01*
%TO.C,D4*%
X159101904Y-65682380D02*
X159101904Y-64682380D01*
X159340000Y-64682380D01*
X159482857Y-64730000D01*
X159578095Y-64825238D01*
X159625714Y-64920476D01*
X159673333Y-65110952D01*
X159673333Y-65253809D01*
X159625714Y-65444285D01*
X159578095Y-65539523D01*
X159482857Y-65634761D01*
X159340000Y-65682380D01*
X159101904Y-65682380D01*
X160530476Y-65015714D02*
X160530476Y-65682380D01*
X160292380Y-64634761D02*
X160054285Y-65349047D01*
X160673333Y-65349047D01*
X162991904Y-62856666D02*
X163468095Y-62856666D01*
X162896666Y-63142380D02*
X163230000Y-62142380D01*
X163563333Y-63142380D01*
%TO.C,D3*%
X152751904Y-68222380D02*
X152751904Y-67222380D01*
X152990000Y-67222380D01*
X153132857Y-67270000D01*
X153228095Y-67365238D01*
X153275714Y-67460476D01*
X153323333Y-67650952D01*
X153323333Y-67793809D01*
X153275714Y-67984285D01*
X153228095Y-68079523D01*
X153132857Y-68174761D01*
X152990000Y-68222380D01*
X152751904Y-68222380D01*
X153656666Y-67222380D02*
X154275714Y-67222380D01*
X153942380Y-67603333D01*
X154085238Y-67603333D01*
X154180476Y-67650952D01*
X154228095Y-67698571D01*
X154275714Y-67793809D01*
X154275714Y-68031904D01*
X154228095Y-68127142D01*
X154180476Y-68174761D01*
X154085238Y-68222380D01*
X153799523Y-68222380D01*
X153704285Y-68174761D01*
X153656666Y-68127142D01*
X155768095Y-70222380D02*
X155768095Y-69222380D01*
X156339523Y-70222380D02*
X155910952Y-69650952D01*
X156339523Y-69222380D02*
X155768095Y-69793809D01*
%TO.C,D2*%
X127351904Y-68222380D02*
X127351904Y-67222380D01*
X127590000Y-67222380D01*
X127732857Y-67270000D01*
X127828095Y-67365238D01*
X127875714Y-67460476D01*
X127923333Y-67650952D01*
X127923333Y-67793809D01*
X127875714Y-67984285D01*
X127828095Y-68079523D01*
X127732857Y-68174761D01*
X127590000Y-68222380D01*
X127351904Y-68222380D01*
X128304285Y-67317619D02*
X128351904Y-67270000D01*
X128447142Y-67222380D01*
X128685238Y-67222380D01*
X128780476Y-67270000D01*
X128828095Y-67317619D01*
X128875714Y-67412857D01*
X128875714Y-67508095D01*
X128828095Y-67650952D01*
X128256666Y-68222380D01*
X128875714Y-68222380D01*
X130368095Y-70222380D02*
X130368095Y-69222380D01*
X130939523Y-70222380D02*
X130510952Y-69650952D01*
X130939523Y-69222380D02*
X130368095Y-69793809D01*
%TO.C,D1*%
X114651904Y-68222380D02*
X114651904Y-67222380D01*
X114890000Y-67222380D01*
X115032857Y-67270000D01*
X115128095Y-67365238D01*
X115175714Y-67460476D01*
X115223333Y-67650952D01*
X115223333Y-67793809D01*
X115175714Y-67984285D01*
X115128095Y-68079523D01*
X115032857Y-68174761D01*
X114890000Y-68222380D01*
X114651904Y-68222380D01*
X116175714Y-68222380D02*
X115604285Y-68222380D01*
X115890000Y-68222380D02*
X115890000Y-67222380D01*
X115794761Y-67365238D01*
X115699523Y-67460476D01*
X115604285Y-67508095D01*
X117668095Y-70222380D02*
X117668095Y-69222380D01*
X118239523Y-70222380D02*
X117810952Y-69650952D01*
X118239523Y-69222380D02*
X117668095Y-69793809D01*
%TO.C,C24*%
X108127142Y-98892857D02*
X108174761Y-98940476D01*
X108222380Y-99083333D01*
X108222380Y-99178571D01*
X108174761Y-99321428D01*
X108079523Y-99416666D01*
X107984285Y-99464285D01*
X107793809Y-99511904D01*
X107650952Y-99511904D01*
X107460476Y-99464285D01*
X107365238Y-99416666D01*
X107270000Y-99321428D01*
X107222380Y-99178571D01*
X107222380Y-99083333D01*
X107270000Y-98940476D01*
X107317619Y-98892857D01*
X107317619Y-98511904D02*
X107270000Y-98464285D01*
X107222380Y-98369047D01*
X107222380Y-98130952D01*
X107270000Y-98035714D01*
X107317619Y-97988095D01*
X107412857Y-97940476D01*
X107508095Y-97940476D01*
X107650952Y-97988095D01*
X108222380Y-98559523D01*
X108222380Y-97940476D01*
X107555714Y-97083333D02*
X108222380Y-97083333D01*
X107174761Y-97321428D02*
X107889047Y-97559523D01*
X107889047Y-96940476D01*
%TO.C,C23*%
X96967142Y-96067142D02*
X96919523Y-96114761D01*
X96776666Y-96162380D01*
X96681428Y-96162380D01*
X96538571Y-96114761D01*
X96443333Y-96019523D01*
X96395714Y-95924285D01*
X96348095Y-95733809D01*
X96348095Y-95590952D01*
X96395714Y-95400476D01*
X96443333Y-95305238D01*
X96538571Y-95210000D01*
X96681428Y-95162380D01*
X96776666Y-95162380D01*
X96919523Y-95210000D01*
X96967142Y-95257619D01*
X97348095Y-95257619D02*
X97395714Y-95210000D01*
X97490952Y-95162380D01*
X97729047Y-95162380D01*
X97824285Y-95210000D01*
X97871904Y-95257619D01*
X97919523Y-95352857D01*
X97919523Y-95448095D01*
X97871904Y-95590952D01*
X97300476Y-96162380D01*
X97919523Y-96162380D01*
X98252857Y-95162380D02*
X98871904Y-95162380D01*
X98538571Y-95543333D01*
X98681428Y-95543333D01*
X98776666Y-95590952D01*
X98824285Y-95638571D01*
X98871904Y-95733809D01*
X98871904Y-95971904D01*
X98824285Y-96067142D01*
X98776666Y-96114761D01*
X98681428Y-96162380D01*
X98395714Y-96162380D01*
X98300476Y-96114761D01*
X98252857Y-96067142D01*
%TO.C,C22*%
X133527142Y-63332857D02*
X133574761Y-63380476D01*
X133622380Y-63523333D01*
X133622380Y-63618571D01*
X133574761Y-63761428D01*
X133479523Y-63856666D01*
X133384285Y-63904285D01*
X133193809Y-63951904D01*
X133050952Y-63951904D01*
X132860476Y-63904285D01*
X132765238Y-63856666D01*
X132670000Y-63761428D01*
X132622380Y-63618571D01*
X132622380Y-63523333D01*
X132670000Y-63380476D01*
X132717619Y-63332857D01*
X132717619Y-62951904D02*
X132670000Y-62904285D01*
X132622380Y-62809047D01*
X132622380Y-62570952D01*
X132670000Y-62475714D01*
X132717619Y-62428095D01*
X132812857Y-62380476D01*
X132908095Y-62380476D01*
X133050952Y-62428095D01*
X133622380Y-62999523D01*
X133622380Y-62380476D01*
X132717619Y-61999523D02*
X132670000Y-61951904D01*
X132622380Y-61856666D01*
X132622380Y-61618571D01*
X132670000Y-61523333D01*
X132717619Y-61475714D01*
X132812857Y-61428095D01*
X132908095Y-61428095D01*
X133050952Y-61475714D01*
X133622380Y-62047142D01*
X133622380Y-61428095D01*
%TO.C,C20*%
X100507142Y-78572857D02*
X100554761Y-78620476D01*
X100602380Y-78763333D01*
X100602380Y-78858571D01*
X100554761Y-79001428D01*
X100459523Y-79096666D01*
X100364285Y-79144285D01*
X100173809Y-79191904D01*
X100030952Y-79191904D01*
X99840476Y-79144285D01*
X99745238Y-79096666D01*
X99650000Y-79001428D01*
X99602380Y-78858571D01*
X99602380Y-78763333D01*
X99650000Y-78620476D01*
X99697619Y-78572857D01*
X99697619Y-78191904D02*
X99650000Y-78144285D01*
X99602380Y-78049047D01*
X99602380Y-77810952D01*
X99650000Y-77715714D01*
X99697619Y-77668095D01*
X99792857Y-77620476D01*
X99888095Y-77620476D01*
X100030952Y-77668095D01*
X100602380Y-78239523D01*
X100602380Y-77620476D01*
X99602380Y-77001428D02*
X99602380Y-76906190D01*
X99650000Y-76810952D01*
X99697619Y-76763333D01*
X99792857Y-76715714D01*
X99983333Y-76668095D01*
X100221428Y-76668095D01*
X100411904Y-76715714D01*
X100507142Y-76763333D01*
X100554761Y-76810952D01*
X100602380Y-76906190D01*
X100602380Y-77001428D01*
X100554761Y-77096666D01*
X100507142Y-77144285D01*
X100411904Y-77191904D01*
X100221428Y-77239523D01*
X99983333Y-77239523D01*
X99792857Y-77191904D01*
X99697619Y-77144285D01*
X99650000Y-77096666D01*
X99602380Y-77001428D01*
%TO.C,C18*%
X150307142Y-103977142D02*
X150259523Y-104024761D01*
X150116666Y-104072380D01*
X150021428Y-104072380D01*
X149878571Y-104024761D01*
X149783333Y-103929523D01*
X149735714Y-103834285D01*
X149688095Y-103643809D01*
X149688095Y-103500952D01*
X149735714Y-103310476D01*
X149783333Y-103215238D01*
X149878571Y-103120000D01*
X150021428Y-103072380D01*
X150116666Y-103072380D01*
X150259523Y-103120000D01*
X150307142Y-103167619D01*
X151259523Y-104072380D02*
X150688095Y-104072380D01*
X150973809Y-104072380D02*
X150973809Y-103072380D01*
X150878571Y-103215238D01*
X150783333Y-103310476D01*
X150688095Y-103358095D01*
X151830952Y-103500952D02*
X151735714Y-103453333D01*
X151688095Y-103405714D01*
X151640476Y-103310476D01*
X151640476Y-103262857D01*
X151688095Y-103167619D01*
X151735714Y-103120000D01*
X151830952Y-103072380D01*
X152021428Y-103072380D01*
X152116666Y-103120000D01*
X152164285Y-103167619D01*
X152211904Y-103262857D01*
X152211904Y-103310476D01*
X152164285Y-103405714D01*
X152116666Y-103453333D01*
X152021428Y-103500952D01*
X151830952Y-103500952D01*
X151735714Y-103548571D01*
X151688095Y-103596190D01*
X151640476Y-103691428D01*
X151640476Y-103881904D01*
X151688095Y-103977142D01*
X151735714Y-104024761D01*
X151830952Y-104072380D01*
X152021428Y-104072380D01*
X152116666Y-104024761D01*
X152164285Y-103977142D01*
X152211904Y-103881904D01*
X152211904Y-103691428D01*
X152164285Y-103596190D01*
X152116666Y-103548571D01*
X152021428Y-103500952D01*
%TO.C,C17*%
X138857142Y-103977142D02*
X138809523Y-104024761D01*
X138666666Y-104072380D01*
X138571428Y-104072380D01*
X138428571Y-104024761D01*
X138333333Y-103929523D01*
X138285714Y-103834285D01*
X138238095Y-103643809D01*
X138238095Y-103500952D01*
X138285714Y-103310476D01*
X138333333Y-103215238D01*
X138428571Y-103120000D01*
X138571428Y-103072380D01*
X138666666Y-103072380D01*
X138809523Y-103120000D01*
X138857142Y-103167619D01*
X139809523Y-104072380D02*
X139238095Y-104072380D01*
X139523809Y-104072380D02*
X139523809Y-103072380D01*
X139428571Y-103215238D01*
X139333333Y-103310476D01*
X139238095Y-103358095D01*
X140142857Y-103072380D02*
X140809523Y-103072380D01*
X140380952Y-104072380D01*
%TO.C,C16*%
X124907142Y-103977142D02*
X124859523Y-104024761D01*
X124716666Y-104072380D01*
X124621428Y-104072380D01*
X124478571Y-104024761D01*
X124383333Y-103929523D01*
X124335714Y-103834285D01*
X124288095Y-103643809D01*
X124288095Y-103500952D01*
X124335714Y-103310476D01*
X124383333Y-103215238D01*
X124478571Y-103120000D01*
X124621428Y-103072380D01*
X124716666Y-103072380D01*
X124859523Y-103120000D01*
X124907142Y-103167619D01*
X125859523Y-104072380D02*
X125288095Y-104072380D01*
X125573809Y-104072380D02*
X125573809Y-103072380D01*
X125478571Y-103215238D01*
X125383333Y-103310476D01*
X125288095Y-103358095D01*
X126716666Y-103072380D02*
X126526190Y-103072380D01*
X126430952Y-103120000D01*
X126383333Y-103167619D01*
X126288095Y-103310476D01*
X126240476Y-103500952D01*
X126240476Y-103881904D01*
X126288095Y-103977142D01*
X126335714Y-104024761D01*
X126430952Y-104072380D01*
X126621428Y-104072380D01*
X126716666Y-104024761D01*
X126764285Y-103977142D01*
X126811904Y-103881904D01*
X126811904Y-103643809D01*
X126764285Y-103548571D01*
X126716666Y-103500952D01*
X126621428Y-103453333D01*
X126430952Y-103453333D01*
X126335714Y-103500952D01*
X126288095Y-103548571D01*
X126240476Y-103643809D01*
%TO.C,C15*%
X113457142Y-103977142D02*
X113409523Y-104024761D01*
X113266666Y-104072380D01*
X113171428Y-104072380D01*
X113028571Y-104024761D01*
X112933333Y-103929523D01*
X112885714Y-103834285D01*
X112838095Y-103643809D01*
X112838095Y-103500952D01*
X112885714Y-103310476D01*
X112933333Y-103215238D01*
X113028571Y-103120000D01*
X113171428Y-103072380D01*
X113266666Y-103072380D01*
X113409523Y-103120000D01*
X113457142Y-103167619D01*
X114409523Y-104072380D02*
X113838095Y-104072380D01*
X114123809Y-104072380D02*
X114123809Y-103072380D01*
X114028571Y-103215238D01*
X113933333Y-103310476D01*
X113838095Y-103358095D01*
X115314285Y-103072380D02*
X114838095Y-103072380D01*
X114790476Y-103548571D01*
X114838095Y-103500952D01*
X114933333Y-103453333D01*
X115171428Y-103453333D01*
X115266666Y-103500952D01*
X115314285Y-103548571D01*
X115361904Y-103643809D01*
X115361904Y-103881904D01*
X115314285Y-103977142D01*
X115266666Y-104024761D01*
X115171428Y-104072380D01*
X114933333Y-104072380D01*
X114838095Y-104024761D01*
X114790476Y-103977142D01*
%TO.C,C14*%
X157927142Y-108277142D02*
X157879523Y-108324761D01*
X157736666Y-108372380D01*
X157641428Y-108372380D01*
X157498571Y-108324761D01*
X157403333Y-108229523D01*
X157355714Y-108134285D01*
X157308095Y-107943809D01*
X157308095Y-107800952D01*
X157355714Y-107610476D01*
X157403333Y-107515238D01*
X157498571Y-107420000D01*
X157641428Y-107372380D01*
X157736666Y-107372380D01*
X157879523Y-107420000D01*
X157927142Y-107467619D01*
X158879523Y-108372380D02*
X158308095Y-108372380D01*
X158593809Y-108372380D02*
X158593809Y-107372380D01*
X158498571Y-107515238D01*
X158403333Y-107610476D01*
X158308095Y-107658095D01*
X159736666Y-107705714D02*
X159736666Y-108372380D01*
X159498571Y-107324761D02*
X159260476Y-108039047D01*
X159879523Y-108039047D01*
%TO.C,C13*%
X143977142Y-109547142D02*
X143929523Y-109594761D01*
X143786666Y-109642380D01*
X143691428Y-109642380D01*
X143548571Y-109594761D01*
X143453333Y-109499523D01*
X143405714Y-109404285D01*
X143358095Y-109213809D01*
X143358095Y-109070952D01*
X143405714Y-108880476D01*
X143453333Y-108785238D01*
X143548571Y-108690000D01*
X143691428Y-108642380D01*
X143786666Y-108642380D01*
X143929523Y-108690000D01*
X143977142Y-108737619D01*
X144929523Y-109642380D02*
X144358095Y-109642380D01*
X144643809Y-109642380D02*
X144643809Y-108642380D01*
X144548571Y-108785238D01*
X144453333Y-108880476D01*
X144358095Y-108928095D01*
X145262857Y-108642380D02*
X145881904Y-108642380D01*
X145548571Y-109023333D01*
X145691428Y-109023333D01*
X145786666Y-109070952D01*
X145834285Y-109118571D01*
X145881904Y-109213809D01*
X145881904Y-109451904D01*
X145834285Y-109547142D01*
X145786666Y-109594761D01*
X145691428Y-109642380D01*
X145405714Y-109642380D01*
X145310476Y-109594761D01*
X145262857Y-109547142D01*
%TO.C,C12*%
X132527142Y-108277142D02*
X132479523Y-108324761D01*
X132336666Y-108372380D01*
X132241428Y-108372380D01*
X132098571Y-108324761D01*
X132003333Y-108229523D01*
X131955714Y-108134285D01*
X131908095Y-107943809D01*
X131908095Y-107800952D01*
X131955714Y-107610476D01*
X132003333Y-107515238D01*
X132098571Y-107420000D01*
X132241428Y-107372380D01*
X132336666Y-107372380D01*
X132479523Y-107420000D01*
X132527142Y-107467619D01*
X133479523Y-108372380D02*
X132908095Y-108372380D01*
X133193809Y-108372380D02*
X133193809Y-107372380D01*
X133098571Y-107515238D01*
X133003333Y-107610476D01*
X132908095Y-107658095D01*
X133860476Y-107467619D02*
X133908095Y-107420000D01*
X134003333Y-107372380D01*
X134241428Y-107372380D01*
X134336666Y-107420000D01*
X134384285Y-107467619D01*
X134431904Y-107562857D01*
X134431904Y-107658095D01*
X134384285Y-107800952D01*
X133812857Y-108372380D01*
X134431904Y-108372380D01*
%TO.C,C11*%
X118577142Y-109547142D02*
X118529523Y-109594761D01*
X118386666Y-109642380D01*
X118291428Y-109642380D01*
X118148571Y-109594761D01*
X118053333Y-109499523D01*
X118005714Y-109404285D01*
X117958095Y-109213809D01*
X117958095Y-109070952D01*
X118005714Y-108880476D01*
X118053333Y-108785238D01*
X118148571Y-108690000D01*
X118291428Y-108642380D01*
X118386666Y-108642380D01*
X118529523Y-108690000D01*
X118577142Y-108737619D01*
X119529523Y-109642380D02*
X118958095Y-109642380D01*
X119243809Y-109642380D02*
X119243809Y-108642380D01*
X119148571Y-108785238D01*
X119053333Y-108880476D01*
X118958095Y-108928095D01*
X120481904Y-109642380D02*
X119910476Y-109642380D01*
X120196190Y-109642380D02*
X120196190Y-108642380D01*
X120100952Y-108785238D01*
X120005714Y-108880476D01*
X119910476Y-108928095D01*
%TO.C,C9*%
X158403333Y-96067142D02*
X158355714Y-96114761D01*
X158212857Y-96162380D01*
X158117619Y-96162380D01*
X157974761Y-96114761D01*
X157879523Y-96019523D01*
X157831904Y-95924285D01*
X157784285Y-95733809D01*
X157784285Y-95590952D01*
X157831904Y-95400476D01*
X157879523Y-95305238D01*
X157974761Y-95210000D01*
X158117619Y-95162380D01*
X158212857Y-95162380D01*
X158355714Y-95210000D01*
X158403333Y-95257619D01*
X158879523Y-96162380D02*
X159070000Y-96162380D01*
X159165238Y-96114761D01*
X159212857Y-96067142D01*
X159308095Y-95924285D01*
X159355714Y-95733809D01*
X159355714Y-95352857D01*
X159308095Y-95257619D01*
X159260476Y-95210000D01*
X159165238Y-95162380D01*
X158974761Y-95162380D01*
X158879523Y-95210000D01*
X158831904Y-95257619D01*
X158784285Y-95352857D01*
X158784285Y-95590952D01*
X158831904Y-95686190D01*
X158879523Y-95733809D01*
X158974761Y-95781428D01*
X159165238Y-95781428D01*
X159260476Y-95733809D01*
X159308095Y-95686190D01*
X159355714Y-95590952D01*
%TO.C,C8*%
X148243333Y-94797142D02*
X148195714Y-94844761D01*
X148052857Y-94892380D01*
X147957619Y-94892380D01*
X147814761Y-94844761D01*
X147719523Y-94749523D01*
X147671904Y-94654285D01*
X147624285Y-94463809D01*
X147624285Y-94320952D01*
X147671904Y-94130476D01*
X147719523Y-94035238D01*
X147814761Y-93940000D01*
X147957619Y-93892380D01*
X148052857Y-93892380D01*
X148195714Y-93940000D01*
X148243333Y-93987619D01*
X148814761Y-94320952D02*
X148719523Y-94273333D01*
X148671904Y-94225714D01*
X148624285Y-94130476D01*
X148624285Y-94082857D01*
X148671904Y-93987619D01*
X148719523Y-93940000D01*
X148814761Y-93892380D01*
X149005238Y-93892380D01*
X149100476Y-93940000D01*
X149148095Y-93987619D01*
X149195714Y-94082857D01*
X149195714Y-94130476D01*
X149148095Y-94225714D01*
X149100476Y-94273333D01*
X149005238Y-94320952D01*
X148814761Y-94320952D01*
X148719523Y-94368571D01*
X148671904Y-94416190D01*
X148624285Y-94511428D01*
X148624285Y-94701904D01*
X148671904Y-94797142D01*
X148719523Y-94844761D01*
X148814761Y-94892380D01*
X149005238Y-94892380D01*
X149100476Y-94844761D01*
X149148095Y-94797142D01*
X149195714Y-94701904D01*
X149195714Y-94511428D01*
X149148095Y-94416190D01*
X149100476Y-94368571D01*
X149005238Y-94320952D01*
%TO.C,C7*%
X133003333Y-96067142D02*
X132955714Y-96114761D01*
X132812857Y-96162380D01*
X132717619Y-96162380D01*
X132574761Y-96114761D01*
X132479523Y-96019523D01*
X132431904Y-95924285D01*
X132384285Y-95733809D01*
X132384285Y-95590952D01*
X132431904Y-95400476D01*
X132479523Y-95305238D01*
X132574761Y-95210000D01*
X132717619Y-95162380D01*
X132812857Y-95162380D01*
X132955714Y-95210000D01*
X133003333Y-95257619D01*
X133336666Y-95162380D02*
X134003333Y-95162380D01*
X133574761Y-96162380D01*
%TO.C,C6*%
X122843333Y-94797142D02*
X122795714Y-94844761D01*
X122652857Y-94892380D01*
X122557619Y-94892380D01*
X122414761Y-94844761D01*
X122319523Y-94749523D01*
X122271904Y-94654285D01*
X122224285Y-94463809D01*
X122224285Y-94320952D01*
X122271904Y-94130476D01*
X122319523Y-94035238D01*
X122414761Y-93940000D01*
X122557619Y-93892380D01*
X122652857Y-93892380D01*
X122795714Y-93940000D01*
X122843333Y-93987619D01*
X123700476Y-93892380D02*
X123510000Y-93892380D01*
X123414761Y-93940000D01*
X123367142Y-93987619D01*
X123271904Y-94130476D01*
X123224285Y-94320952D01*
X123224285Y-94701904D01*
X123271904Y-94797142D01*
X123319523Y-94844761D01*
X123414761Y-94892380D01*
X123605238Y-94892380D01*
X123700476Y-94844761D01*
X123748095Y-94797142D01*
X123795714Y-94701904D01*
X123795714Y-94463809D01*
X123748095Y-94368571D01*
X123700476Y-94320952D01*
X123605238Y-94273333D01*
X123414761Y-94273333D01*
X123319523Y-94320952D01*
X123271904Y-94368571D01*
X123224285Y-94463809D01*
%TO.C,C5*%
X153243333Y-85867142D02*
X153195714Y-85914761D01*
X153052857Y-85962380D01*
X152957619Y-85962380D01*
X152814761Y-85914761D01*
X152719523Y-85819523D01*
X152671904Y-85724285D01*
X152624285Y-85533809D01*
X152624285Y-85390952D01*
X152671904Y-85200476D01*
X152719523Y-85105238D01*
X152814761Y-85010000D01*
X152957619Y-84962380D01*
X153052857Y-84962380D01*
X153195714Y-85010000D01*
X153243333Y-85057619D01*
X154148095Y-84962380D02*
X153671904Y-84962380D01*
X153624285Y-85438571D01*
X153671904Y-85390952D01*
X153767142Y-85343333D01*
X154005238Y-85343333D01*
X154100476Y-85390952D01*
X154148095Y-85438571D01*
X154195714Y-85533809D01*
X154195714Y-85771904D01*
X154148095Y-85867142D01*
X154100476Y-85914761D01*
X154005238Y-85962380D01*
X153767142Y-85962380D01*
X153671904Y-85914761D01*
X153624285Y-85867142D01*
%TO.C,C4*%
X140623333Y-85907142D02*
X140575714Y-85954761D01*
X140432857Y-86002380D01*
X140337619Y-86002380D01*
X140194761Y-85954761D01*
X140099523Y-85859523D01*
X140051904Y-85764285D01*
X140004285Y-85573809D01*
X140004285Y-85430952D01*
X140051904Y-85240476D01*
X140099523Y-85145238D01*
X140194761Y-85050000D01*
X140337619Y-85002380D01*
X140432857Y-85002380D01*
X140575714Y-85050000D01*
X140623333Y-85097619D01*
X141480476Y-85335714D02*
X141480476Y-86002380D01*
X141242380Y-84954761D02*
X141004285Y-85669047D01*
X141623333Y-85669047D01*
%TO.C,C3*%
X127843333Y-85867142D02*
X127795714Y-85914761D01*
X127652857Y-85962380D01*
X127557619Y-85962380D01*
X127414761Y-85914761D01*
X127319523Y-85819523D01*
X127271904Y-85724285D01*
X127224285Y-85533809D01*
X127224285Y-85390952D01*
X127271904Y-85200476D01*
X127319523Y-85105238D01*
X127414761Y-85010000D01*
X127557619Y-84962380D01*
X127652857Y-84962380D01*
X127795714Y-85010000D01*
X127843333Y-85057619D01*
X128176666Y-84962380D02*
X128795714Y-84962380D01*
X128462380Y-85343333D01*
X128605238Y-85343333D01*
X128700476Y-85390952D01*
X128748095Y-85438571D01*
X128795714Y-85533809D01*
X128795714Y-85771904D01*
X128748095Y-85867142D01*
X128700476Y-85914761D01*
X128605238Y-85962380D01*
X128319523Y-85962380D01*
X128224285Y-85914761D01*
X128176666Y-85867142D01*
%TO.C,C2*%
X115223333Y-85907142D02*
X115175714Y-85954761D01*
X115032857Y-86002380D01*
X114937619Y-86002380D01*
X114794761Y-85954761D01*
X114699523Y-85859523D01*
X114651904Y-85764285D01*
X114604285Y-85573809D01*
X114604285Y-85430952D01*
X114651904Y-85240476D01*
X114699523Y-85145238D01*
X114794761Y-85050000D01*
X114937619Y-85002380D01*
X115032857Y-85002380D01*
X115175714Y-85050000D01*
X115223333Y-85097619D01*
X115604285Y-85097619D02*
X115651904Y-85050000D01*
X115747142Y-85002380D01*
X115985238Y-85002380D01*
X116080476Y-85050000D01*
X116128095Y-85097619D01*
X116175714Y-85192857D01*
X116175714Y-85288095D01*
X116128095Y-85430952D01*
X115556666Y-86002380D01*
X116175714Y-86002380D01*
%TD*%
M02*
