M48
; DRILL file {KiCad 5.1.6-c6e7f7d~86~ubuntu18.04.1} date Wed Jun 24 21:19:41 2020
; FORMAT={-:-/ absolute / inch / decimal}
; #@! TF.CreationDate,2020-06-24T21:19:41+02:00
; #@! TF.GenerationSoftware,Kicad,Pcbnew,5.1.6-c6e7f7d~86~ubuntu18.04.1
; #@! TF.FileFunction,Plated,1,2,PTH
FMAT,2
INCH
T1C0.0157
T2C0.0197
T3C0.0276
T4C0.0315
T5C0.0350
T6C0.0394
T7C0.0472
T8C0.0512
T9C0.0791
T10C0.1260
%
G90
G05
T1
X4.1929Y-3.0431
X4.1929Y-3.1431
X4.1929Y-4.1931
X4.1929Y-4.2931
X4.1929Y-4.3931
X4.2429Y-3.7931
X4.2429Y-3.8931
X4.2429Y-3.9931
X4.2429Y-4.0931
X4.2929Y-3.0431
X4.2929Y-3.7431
X4.3429Y-3.6931
X4.3429Y-3.8931
X4.3429Y-3.9931
X4.3429Y-4.0931
X4.3929Y-3.2431
X4.3929Y-3.6431
X4.3929Y-3.8431
X4.3929Y-4.1931
X4.3929Y-4.2931
X4.3929Y-4.3931
X4.5929Y-3.0931
X4.5929Y-3.1931
X4.5929Y-3.3431
X4.5929Y-3.4431
X4.5929Y-3.5431
X4.6429Y-3.0931
X4.6429Y-3.1931
X4.6929Y-3.3431
X4.6929Y-3.4431
X4.6929Y-3.8431
X4.6929Y-3.9431
X4.7929Y-4.0431
X4.8929Y-2.9431
X4.8929Y-3.2431
X4.8929Y-3.4431
X4.8929Y-3.6431
X4.8929Y-3.8431
X4.8929Y-4.0431
X4.9929Y-2.9431
X4.9929Y-3.0431
X4.9929Y-3.2431
X4.9929Y-3.5931
X4.9929Y-4.0431
X5.0929Y-3.0431
X5.0929Y-3.1431
X5.0929Y-3.2431
X5.0929Y-4.0431
X5.1929Y-3.3431
X5.2929Y-3.0431
X5.2929Y-3.2431
X5.2929Y-3.3431
X5.2929Y-3.4431
X5.2929Y-3.5431
X5.2929Y-3.9431
X5.2929Y-4.3431
X5.3929Y-3.0431
X5.3929Y-3.2431
X5.3929Y-3.4431
X5.3929Y-4.0431
X5.3929Y-4.3431
X5.4929Y-4.1431
X5.4929Y-4.3431
X5.6429Y-3.5431
X5.6429Y-3.6431
X5.6429Y-3.7431
X5.6429Y-3.8431
X5.6429Y-3.9431
X5.6429Y-4.0431
X5.6429Y-4.1431
X5.6429Y-4.2431
X5.6429Y-4.3431
X5.6929Y-4.6431
X5.6929Y-4.7431
X5.6929Y-4.8431
X5.7429Y-3.6431
X5.7429Y-3.7431
X5.7429Y-3.8431
X5.7429Y-4.0431
X5.7429Y-4.2431
X5.7429Y-4.3431
X5.7929Y-3.0431
X5.7929Y-4.5431
X5.7929Y-4.6431
X5.7929Y-4.7431
X5.7929Y-4.8431
X5.8429Y-4.2431
X5.8929Y-3.5431
X5.8929Y-3.7431
X5.8929Y-3.8431
X5.8929Y-4.1431
X5.8929Y-4.3431
X5.8929Y-4.6431
X5.8929Y-4.8431
X5.9429Y-4.2431
X5.9929Y-3.2431
X5.9929Y-3.8431
X5.9929Y-4.1431
X5.9929Y-4.7431
X5.9929Y-4.8431
X6.1429Y-3.6431
X6.1429Y-3.7431
X6.1429Y-3.8431
X6.1429Y-3.9431
X6.1429Y-4.0431
X6.1429Y-4.1431
X6.1429Y-4.2431
X6.1429Y-4.3431
X6.1429Y-4.5431
X6.1429Y-4.6431
X6.1929Y-3.6431
X6.1929Y-4.8431
X6.2429Y-3.6431
X6.2429Y-3.7431
X6.2429Y-3.8431
X6.2429Y-4.2431
X6.2429Y-4.3431
X6.2429Y-4.5431
X6.2429Y-4.6431
X6.2929Y-3.0431
X6.2929Y-3.2431
X6.2929Y-3.3431
X6.2929Y-4.7431
X6.2929Y-4.8431
X6.3429Y-4.2431
X6.3929Y-3.7431
X6.3929Y-3.8431
X6.3929Y-3.9431
X6.3929Y-4.1431
X6.3929Y-4.3431
X6.3929Y-4.6431
X6.3929Y-4.7431
X6.3929Y-4.8431
X6.4929Y-3.2431
X6.4929Y-3.3431
X6.4929Y-3.8431
X6.4929Y-3.9431
X6.4929Y-4.0431
X6.4929Y-4.1431
X6.4929Y-4.2431
X6.4929Y-4.5431
X6.4929Y-4.6431
X6.4929Y-4.7431
X6.6429Y-3.6431
X6.6429Y-3.7431
X6.6429Y-3.8431
X6.6429Y-3.9431
X6.6429Y-4.0431
X6.6429Y-4.1431
X6.6429Y-4.2431
X6.6429Y-4.3431
X6.6929Y-3.6431
X6.6929Y-4.6431
X6.6929Y-4.7431
X6.6929Y-4.8431
X6.7429Y-3.6431
X6.7429Y-3.7431
X6.7429Y-3.8431
X6.7429Y-4.0431
X6.7429Y-4.2431
X6.7429Y-4.3431
X6.7929Y-3.0431
X6.7929Y-3.2431
X6.7929Y-3.3431
X6.7929Y-4.5431
X6.7929Y-4.6431
X6.7929Y-4.7431
X6.7929Y-4.8431
X6.8429Y-4.2431
X6.8929Y-3.7431
X6.8929Y-3.8431
X6.8929Y-4.1431
X6.8929Y-4.3431
X6.8929Y-4.6431
X6.8929Y-4.8431
X6.9929Y-3.2431
X6.9929Y-3.8431
X6.9929Y-4.1431
X6.9929Y-4.2431
X6.9929Y-4.7431
X6.9929Y-4.8431
X7.1429Y-3.6431
X7.1429Y-3.7431
X7.1429Y-3.8431
X7.1429Y-3.9431
X7.1429Y-4.0431
X7.1429Y-4.1431
X7.1429Y-4.2431
X7.1429Y-4.3431
X7.1429Y-4.5431
X7.1429Y-4.6431
X7.1929Y-3.1431
X7.1929Y-3.6431
X7.1929Y-4.8431
X7.2429Y-3.6431
X7.2429Y-3.7431
X7.2429Y-3.8431
X7.2429Y-4.2431
X7.2429Y-4.3431
X7.2429Y-4.5431
X7.2429Y-4.6431
X7.2929Y-3.0431
X7.2929Y-3.1431
X7.2929Y-3.2431
X7.2929Y-3.3431
X7.2929Y-4.7431
X7.2929Y-4.8431
X7.3429Y-3.8431
X7.3429Y-4.2431
X7.3929Y-3.1431
X7.3929Y-3.9431
X7.3929Y-4.1431
X7.3929Y-4.3431
X7.3929Y-4.6431
X7.4929Y-3.2431
X7.4929Y-3.3431
X7.4929Y-3.8431
X7.4929Y-3.9431
X7.4929Y-4.2431
X7.4929Y-4.5431
X7.4929Y-4.6431
X7.5429Y-3.3931
X7.5929Y-3.4431
X7.5929Y-3.5431
X7.5929Y-3.6431
X7.5929Y-3.7431
X7.5929Y-3.8431
X7.5929Y-4.2431
X7.5929Y-4.3431
X7.5929Y-4.4431
T2
X4.0984Y-5.1931
X4.1261Y-5.1263
X4.1261Y-5.2599
X4.1929Y-5.0986
X4.1929Y-5.2876
X4.2597Y-5.1263
X4.2597Y-5.2599
X4.2874Y-5.1931
X7.6484Y-2.4431
X7.6761Y-2.3763
X7.6761Y-2.5099
X7.7429Y-2.3486
X7.7429Y-2.5376
X7.8097Y-2.3763
X7.8097Y-2.5099
X7.8374Y-2.4431
X4.0984Y-2.4431
X4.1261Y-2.3763
X4.1261Y-2.5099
X4.1929Y-2.3486
X4.1929Y-2.5376
X4.2597Y-2.3763
X4.2597Y-2.5099
X4.2874Y-2.4431
X7.6484Y-5.1931
X7.6761Y-5.1263
X7.6761Y-5.2599
X7.7429Y-5.0986
X7.7429Y-5.2876
X7.8097Y-5.1263
X7.8097Y-5.2599
X7.8374Y-5.1931
T3
X4.3929Y-3.7431
X4.3929Y-3.9431
X4.7929Y-4.4431
X4.7929Y-4.6431
X4.6929Y-3.0431
X4.7929Y-3.0431
X4.8929Y-3.0431
X5.1929Y-3.0431
X4.8929Y-4.4431
X4.8929Y-4.5431
X5.1929Y-4.1431
X5.3929Y-4.1431
T4
X4.9929Y-4.1431
X4.9929Y-4.2431
X6.1929Y-4.4431
X6.2913Y-4.4431
X4.8929Y-3.5431
X4.9929Y-3.5431
X5.0929Y-3.5431
X4.8929Y-3.7431
X4.9929Y-3.7431
X5.0929Y-3.7431
X6.0929Y-4.8431
X6.0929Y-4.9431
X6.0929Y-5.0431
X6.1929Y-4.9431
X6.1929Y-5.0431
X7.3945Y-4.4431
X7.4929Y-4.4431
X7.2929Y-4.0431
X7.3913Y-4.0431
X6.2945Y-4.0431
X6.3929Y-4.0431
X5.4929Y-4.9431
X5.4929Y-5.0431
X6.4929Y-2.6463
X6.4929Y-2.8431
X5.1929Y-3.2463
X5.1929Y-3.4431
X6.8945Y-4.4931
X6.9929Y-4.4931
X5.5929Y-4.8431
X5.5929Y-4.9431
X5.5929Y-5.0431
X5.0929Y-4.1447
X5.0929Y-4.3415
X6.8945Y-3.6431
X6.9929Y-3.6431
X6.5929Y-2.9447
X6.5929Y-3.0431
X6.6929Y-4.4431
X6.7913Y-4.4431
X6.9929Y-4.9431
X6.9929Y-5.0431
X6.6929Y-4.9431
X6.6929Y-5.0431
X5.8945Y-3.6431
X5.9929Y-3.6431
X4.6945Y-2.9431
X4.7929Y-2.9431
X5.9929Y-4.9431
X5.9929Y-5.0431
X5.6929Y-4.4431
X5.7913Y-4.4431
X6.3945Y-4.4431
X6.4929Y-4.4431
X5.6929Y-4.9431
X5.6929Y-5.0431
X5.8945Y-4.4931
X5.9929Y-4.4931
X6.5929Y-4.8431
X6.5929Y-4.9431
X6.5929Y-5.0431
X5.1945Y-4.0431
X5.2929Y-4.0431
X5.8929Y-3.9931
X5.9913Y-3.9931
X4.4929Y-3.2431
X4.7929Y-3.2431
X4.8929Y-3.3431
X4.9929Y-3.3431
X5.0929Y-3.3431
X4.9945Y-3.1431
X5.1913Y-3.1431
X7.1929Y-4.4431
X7.2913Y-4.4431
X4.4961Y-4.0431
X4.6929Y-4.0431
X7.0929Y-2.9447
X7.0929Y-3.0431
X6.0929Y-2.9447
X6.0929Y-3.0431
X6.8945Y-3.9931
X6.9929Y-3.9931
X5.0929Y-2.9431
X5.1913Y-2.9431
X4.4929Y-3.3431
X4.4929Y-3.4431
X4.4929Y-3.5431
X4.4929Y-3.6431
X4.4929Y-3.7431
X4.4929Y-3.8431
X4.4929Y-3.9431
X4.7929Y-3.3431
X4.7929Y-3.4431
X4.7929Y-3.5431
X4.7929Y-3.6431
X4.7929Y-3.7431
X4.7929Y-3.8431
X4.7929Y-3.9431
X4.9929Y-4.3431
X4.9929Y-4.4431
X4.9929Y-4.5431
X7.3945Y-3.6431
X7.4929Y-3.6431
X7.0929Y-4.8431
X7.0929Y-4.9431
X7.0929Y-5.0431
X5.5929Y-2.9447
X5.5929Y-3.0431
X7.1929Y-4.9431
X7.1929Y-5.0431
X6.3913Y-3.6431
X6.4898Y-3.6431
X5.2961Y-2.3431
X5.4929Y-2.3431
X5.3945Y-3.3431
X5.4929Y-3.3431
X6.6929Y-2.4431
X6.6929Y-2.8431
X4.8929Y-3.9431
X4.9929Y-3.9431
X5.0929Y-3.9431
X4.6929Y-3.1431
X4.7929Y-3.1431
X4.8929Y-3.1431
X5.4929Y-4.0431
X5.4929Y-4.24
X6.4929Y-4.9431
X6.4929Y-5.0431
T5
X5.8929Y-2.7431
X5.9929Y-2.7431
T6
X5.1929Y-4.2431
X5.2929Y-4.2431
X5.3929Y-4.2431
X7.2929Y-3.9431
X7.4929Y-3.7431
X6.1929Y-3.0431
X6.1929Y-3.2431
X6.1929Y-3.3431
X6.1929Y-3.4431
X6.3929Y-3.0431
X6.3929Y-3.2431
X6.3929Y-3.3431
X6.3929Y-3.4431
X5.6929Y-2.9325
X5.8929Y-2.9325
X4.2929Y-3.1431
X4.2929Y-3.2431
X6.1929Y-2.9431
X6.3929Y-2.9431
X7.1929Y-2.9431
X7.3929Y-2.9431
X4.2929Y-4.2431
X4.2929Y-4.3431
X5.6929Y-4.5431
X5.8929Y-4.7431
X4.3929Y-3.0431
X4.3929Y-3.1431
X6.2929Y-4.1431
X6.4929Y-4.3431
X6.2929Y-3.9431
X6.4929Y-3.7431
X5.3929Y-5.2431
X5.4929Y-5.2431
X5.5929Y-5.2431
X5.6929Y-5.2431
X5.7929Y-5.2431
X5.8929Y-5.2431
X5.9929Y-5.2431
X6.0929Y-5.2431
X7.1929Y-4.7431
X7.3929Y-4.5431
X6.6929Y-2.9431
X6.8929Y-2.9431
X7.4929Y-2.4431
X7.4929Y-2.5431
X5.7929Y-3.9431
X5.9929Y-3.7431
X7.2929Y-4.1431
X7.4929Y-4.3431
X6.6929Y-3.0431
X6.6929Y-3.2431
X6.6929Y-3.3431
X6.6929Y-3.4431
X6.8929Y-3.0431
X6.8929Y-3.2431
X6.8929Y-3.3431
X6.8929Y-3.4431
X5.6929Y-3.0431
X5.6929Y-3.2431
X5.6929Y-3.3431
X5.6929Y-3.4431
X5.8929Y-3.0431
X5.8929Y-3.2431
X5.8929Y-3.3431
X5.8929Y-3.4431
X7.1929Y-3.0431
X7.1929Y-3.2431
X7.1929Y-3.3431
X7.1929Y-3.4431
X7.3929Y-3.0431
X7.3929Y-3.2431
X7.3929Y-3.3431
X7.3929Y-3.4431
X5.1929Y-3.8431
X5.1929Y-3.9431
X5.3929Y-3.5431
X5.3929Y-3.6431
X6.6929Y-4.5431
X6.8929Y-4.7431
X4.4929Y-3.0431
X4.4929Y-3.1431
X6.1929Y-4.7431
X6.3929Y-4.5431
X6.7929Y-3.9431
X6.9929Y-3.7431
X6.7929Y-4.1431
X6.9929Y-4.3431
X5.7929Y-4.1431
X5.9929Y-4.3431
T7
X7.4929Y-2.7431
X7.5929Y-2.7431
T8
X5.4929Y-2.5463
X5.4929Y-2.7431
T9
X5.7929Y-2.5431
X6.1929Y-2.5431
T10
X4.1929Y-5.1931
X7.7429Y-2.4431
X4.1929Y-2.4431
X7.7429Y-5.1931
T4
G00X7.0039Y-2.6317
M15
G01X7.0039Y-2.7183
M16
G05
G00X7.2362Y-2.5648
M15
G01X7.1496Y-2.5648
M16
G05
G00X7.2441Y-2.7931
M15
G01X7.1417Y-2.7931
M16
G05
T0
M30
