M48
; DRILL file {KiCad 5.1.6-c6e7f7d~86~ubuntu18.04.1} date Fri May 15 23:17:19 2020
; FORMAT={-:-/ absolute / inch / decimal}
; #@! TF.CreationDate,2020-05-15T23:17:19+02:00
; #@! TF.GenerationSoftware,Kicad,Pcbnew,5.1.6-c6e7f7d~86~ubuntu18.04.1
; #@! TF.FileFunction,Plated,1,2,PTH
FMAT,2
INCH
T1C0.0157
T2C0.0197
T3C0.0276
T4C0.0315
T5C0.0350
T6C0.0394
T7C0.0472
T8C0.0791
T9C0.1260
%
G90
G05
T1
X2.9429Y-2.7681
X2.9429Y-2.8681
X2.9429Y-3.9181
X2.9429Y-4.0181
X2.9429Y-4.1181
X2.9929Y-3.5181
X2.9929Y-3.6181
X2.9929Y-3.7181
X2.9929Y-3.8181
X3.0429Y-2.7681
X3.0429Y-3.4681
X3.0929Y-3.4181
X3.0929Y-3.6181
X3.0929Y-3.7181
X3.0929Y-3.8181
X3.1429Y-2.7681
X3.1429Y-2.9681
X3.1429Y-3.3681
X3.1429Y-3.5681
X3.1429Y-3.9181
X3.1429Y-4.0181
X3.1429Y-4.1181
X3.1929Y-2.8181
X3.1929Y-2.9181
X3.2929Y-2.8181
X3.2929Y-2.9181
X3.3429Y-3.0681
X3.3429Y-3.1681
X3.3429Y-3.2681
X3.3929Y-2.8181
X3.3929Y-2.9181
X3.4429Y-3.0681
X3.4429Y-3.1681
X3.4429Y-3.5681
X3.4429Y-3.6681
X3.5429Y-2.6681
X3.5429Y-3.7681
X3.6429Y-2.6681
X3.6429Y-2.9681
X3.6429Y-3.1681
X3.6429Y-3.3681
X3.6429Y-3.5681
X3.6429Y-3.7681
X3.7429Y-2.6681
X3.7429Y-2.7681
X3.7429Y-2.9681
X3.7429Y-3.3181
X3.7429Y-3.7681
X3.8429Y-2.7681
X3.8429Y-2.8681
X3.8429Y-2.9681
X3.8429Y-3.7681
X3.9429Y-3.0681
X4.0429Y-2.7681
X4.0429Y-2.9681
X4.0429Y-3.0681
X4.0429Y-3.1681
X4.0429Y-3.2681
X4.0429Y-3.6681
X4.0429Y-4.0681
X4.1429Y-2.7681
X4.1429Y-2.9681
X4.1429Y-3.1681
X4.1429Y-3.7681
X4.1429Y-4.0681
X4.2429Y-2.5681
X4.2429Y-3.8681
X4.2429Y-4.0681
X4.3929Y-3.2681
X4.3929Y-3.3681
X4.3929Y-3.4681
X4.3929Y-3.5681
X4.3929Y-3.6681
X4.3929Y-3.7681
X4.3929Y-3.8681
X4.3929Y-3.9681
X4.3929Y-4.0681
X4.4429Y-4.3681
X4.4429Y-4.4681
X4.4429Y-4.5681
X4.4929Y-3.2681
X4.4929Y-3.3681
X4.4929Y-3.4681
X4.4929Y-3.5681
X4.4929Y-3.7681
X4.4929Y-3.9681
X4.4929Y-4.0681
X4.5429Y-2.7681
X4.5429Y-2.9681
X4.5429Y-3.0681
X4.5429Y-3.1681
X4.5429Y-4.2681
X4.5429Y-4.3681
X4.5429Y-4.4681
X4.5429Y-4.5681
X4.5929Y-3.9681
X4.6429Y-3.2681
X4.6429Y-3.4681
X4.6429Y-3.5681
X4.6429Y-3.8681
X4.6429Y-4.0681
X4.6429Y-4.3681
X4.6429Y-4.5681
X4.6929Y-3.9681
X4.7429Y-3.0681
X4.7429Y-3.5681
X4.7429Y-3.8681
X4.7429Y-4.4681
X4.7429Y-4.5681
X4.8929Y-3.3681
X4.8929Y-3.4681
X4.8929Y-3.5681
X4.8929Y-3.6681
X4.8929Y-3.7681
X4.8929Y-3.8681
X4.8929Y-3.9681
X4.8929Y-4.0681
X4.8929Y-4.2681
X4.8929Y-4.3681
X4.9429Y-3.3681
X4.9429Y-4.5681
X4.9929Y-3.3681
X4.9929Y-3.4681
X4.9929Y-3.5681
X4.9929Y-3.9681
X4.9929Y-4.0681
X4.9929Y-4.2681
X4.9929Y-4.3681
X5.0429Y-2.7681
X5.0429Y-2.9681
X5.0429Y-3.0681
X5.0429Y-4.4681
X5.0429Y-4.5681
X5.0929Y-3.9681
X5.1429Y-3.4681
X5.1429Y-3.5681
X5.1429Y-3.6681
X5.1429Y-3.8681
X5.1429Y-4.0681
X5.1429Y-4.3681
X5.1429Y-4.4681
X5.1429Y-4.5681
X5.2429Y-2.9681
X5.2429Y-3.0681
X5.2429Y-3.1681
X5.2429Y-3.5681
X5.2429Y-3.6681
X5.2429Y-3.7681
X5.2429Y-3.8681
X5.2429Y-3.9681
X5.2429Y-4.2681
X5.2429Y-4.3681
X5.2429Y-4.4681
X5.3929Y-3.3681
X5.3929Y-3.4681
X5.3929Y-3.5681
X5.3929Y-3.6681
X5.3929Y-3.7681
X5.3929Y-3.8681
X5.3929Y-3.9681
X5.3929Y-4.0681
X5.4429Y-3.3681
X5.4429Y-4.3681
X5.4429Y-4.4681
X5.4429Y-4.5681
X5.4929Y-3.3681
X5.4929Y-3.4681
X5.4929Y-3.5681
X5.4929Y-3.7681
X5.4929Y-3.9681
X5.4929Y-4.0681
X5.5429Y-2.7681
X5.5429Y-2.9681
X5.5429Y-3.0681
X5.5429Y-4.2681
X5.5429Y-4.3681
X5.5429Y-4.4681
X5.5429Y-4.5681
X5.5929Y-3.9681
X5.6429Y-3.4681
X5.6429Y-3.5681
X5.6429Y-3.8681
X5.6429Y-4.0681
X5.6429Y-4.3681
X5.6429Y-4.5681
X5.7429Y-2.9681
X5.7429Y-3.0681
X5.7429Y-3.1681
X5.7429Y-3.5681
X5.7429Y-3.8681
X5.7429Y-3.9681
X5.7429Y-4.4681
X5.7429Y-4.5681
X5.8929Y-3.3681
X5.8929Y-3.4681
X5.8929Y-3.5681
X5.8929Y-3.6681
X5.8929Y-3.7681
X5.8929Y-3.8681
X5.8929Y-3.9681
X5.8929Y-4.0681
X5.8929Y-4.2681
X5.8929Y-4.3681
X5.9429Y-2.8681
X5.9429Y-3.3681
X5.9429Y-4.5681
X5.9929Y-3.3681
X5.9929Y-3.4681
X5.9929Y-3.5681
X5.9929Y-3.9681
X5.9929Y-4.0681
X5.9929Y-4.2681
X5.9929Y-4.3681
X6.0429Y-2.7681
X6.0429Y-2.8681
X6.0429Y-2.9681
X6.0429Y-3.0681
X6.0429Y-4.4681
X6.0429Y-4.5681
X6.0929Y-3.5681
X6.0929Y-3.9681
X6.1429Y-2.8681
X6.1429Y-3.6681
X6.1429Y-3.8681
X6.1429Y-4.0681
X6.1429Y-4.3681
X6.2429Y-2.9681
X6.2429Y-3.0681
X6.2429Y-3.1681
X6.2429Y-3.5681
X6.2429Y-3.6681
X6.2429Y-3.9681
X6.2429Y-4.2681
X6.2429Y-4.3681
X6.2929Y-3.2181
X6.3429Y-3.2681
X6.3429Y-3.3681
X6.3429Y-3.4681
X6.3429Y-3.5681
X6.3429Y-3.9681
X6.3429Y-4.0681
X6.3429Y-4.1681
T2
X2.8484Y-2.1681
X2.8761Y-2.1013
X2.8761Y-2.2349
X2.9429Y-2.0736
X2.9429Y-2.2626
X3.0097Y-2.1013
X3.0097Y-2.2349
X3.0374Y-2.1681
X2.8484Y-4.9181
X2.8761Y-4.8513
X2.8761Y-4.9849
X2.9429Y-4.8236
X2.9429Y-5.0126
X3.0097Y-4.8513
X3.0097Y-4.9849
X3.0374Y-4.9181
X6.3984Y-2.1681
X6.4261Y-2.1013
X6.4261Y-2.2349
X6.4929Y-2.0736
X6.4929Y-2.2626
X6.5597Y-2.1013
X6.5597Y-2.2349
X6.5874Y-2.1681
X6.3984Y-4.9181
X6.4261Y-4.8513
X6.4261Y-4.9849
X6.4929Y-4.8236
X6.4929Y-5.0126
X6.5597Y-4.8513
X6.5597Y-4.9849
X6.5874Y-4.9181
T3
X3.1429Y-3.4681
X3.1429Y-3.6681
X3.6429Y-4.1681
X3.6429Y-4.2681
X3.4429Y-2.7681
X3.5429Y-2.7681
X3.9429Y-3.8681
X4.1429Y-3.8681
X3.5429Y-4.1681
X3.5429Y-4.3681
X3.6429Y-2.7681
X3.9429Y-2.7681
T4
X3.6429Y-3.6681
X3.7429Y-3.6681
X3.8429Y-3.6681
X4.2429Y-4.6681
X4.2429Y-4.7681
X5.6445Y-3.7181
X5.7429Y-3.7181
X5.4429Y-4.6681
X5.4429Y-4.7681
X5.6445Y-4.2181
X5.7429Y-4.2181
X5.3429Y-2.6697
X5.3429Y-2.7681
X3.8429Y-2.6681
X3.9413Y-2.6681
X4.8429Y-4.5681
X4.8429Y-4.6681
X4.8429Y-4.7681
X3.9429Y-2.9713
X3.9429Y-3.1681
X5.6445Y-3.3681
X5.7429Y-3.3681
X3.6429Y-3.4681
X3.7429Y-3.4681
X3.8429Y-3.4681
X4.6429Y-3.7181
X4.7413Y-3.7181
X3.7429Y-4.0681
X3.7429Y-4.1681
X3.7429Y-4.2681
X6.1445Y-3.3681
X6.2429Y-3.3681
X3.6429Y-3.2681
X3.7429Y-3.2681
X3.8429Y-3.2681
X3.6429Y-3.9681
X3.6429Y-4.0665
X4.1445Y-3.0681
X4.2429Y-3.0681
X4.9429Y-4.1681
X5.0413Y-4.1681
X5.8429Y-4.5681
X5.8429Y-4.6681
X5.8429Y-4.7681
X3.7445Y-2.8681
X3.9413Y-2.8681
X6.0429Y-3.7681
X6.1413Y-3.7681
X3.4429Y-2.8681
X3.5429Y-2.8681
X3.6429Y-2.8681
X5.1445Y-4.1681
X5.2429Y-4.1681
X4.6445Y-3.3681
X4.7429Y-3.3681
X5.2429Y-2.3713
X5.2429Y-2.5681
X4.2429Y-3.7713
X4.2429Y-3.9681
X5.4429Y-2.1681
X5.4429Y-2.5681
X5.8429Y-2.6697
X5.8429Y-2.7681
X3.2429Y-2.9681
X3.5429Y-2.9681
X3.8429Y-3.8697
X3.8429Y-4.0665
X4.9429Y-4.6681
X4.9429Y-4.7681
X5.9429Y-4.6681
X5.9429Y-4.7681
X3.2429Y-3.0681
X3.2429Y-3.1681
X3.2429Y-3.2681
X3.2429Y-3.3681
X3.2429Y-3.4681
X3.2429Y-3.5681
X3.2429Y-3.6681
X3.5429Y-3.0681
X3.5429Y-3.1681
X3.5429Y-3.2681
X3.5429Y-3.3681
X3.5429Y-3.4681
X3.5429Y-3.5681
X3.5429Y-3.6681
X3.9445Y-3.7681
X4.0429Y-3.7681
X5.9429Y-4.1681
X6.0413Y-4.1681
X6.1445Y-4.1681
X6.2429Y-4.1681
X5.1413Y-3.3681
X5.2398Y-3.3681
X4.6445Y-4.2181
X4.7429Y-4.2181
X3.6429Y-3.0681
X3.7429Y-3.0681
X3.8429Y-3.0681
X4.7429Y-4.6681
X4.7429Y-4.7681
X3.7429Y-3.8681
X3.7429Y-3.9681
X4.8429Y-2.6697
X4.8429Y-2.7681
X4.3429Y-4.5681
X4.3429Y-4.6681
X4.3429Y-4.7681
X3.2461Y-3.7681
X3.4429Y-3.7681
X4.4429Y-4.1681
X4.5413Y-4.1681
X5.3429Y-4.5681
X5.3429Y-4.6681
X5.3429Y-4.7681
X5.2429Y-4.6681
X5.2429Y-4.7681
X4.4429Y-4.6681
X4.4429Y-4.7681
X5.7429Y-4.6681
X5.7429Y-4.7681
X4.3429Y-2.6697
X4.3429Y-2.7681
X5.0445Y-3.7681
X5.1429Y-3.7681
X5.4429Y-4.1681
X5.5413Y-4.1681
T5
X4.6429Y-2.4681
X4.7429Y-2.4681
T6
X5.5429Y-3.6681
X5.7429Y-3.4681
X3.0429Y-2.8681
X3.0429Y-2.9681
X3.0429Y-3.9681
X3.0429Y-4.0681
X3.9429Y-3.9681
X4.0429Y-3.9681
X4.1429Y-3.9681
X6.2429Y-2.1681
X6.2429Y-2.2681
X4.9429Y-2.6681
X5.1429Y-2.6681
X6.0429Y-3.8681
X6.2429Y-4.0681
X5.5429Y-3.8681
X5.7429Y-4.0681
X5.4429Y-2.7681
X5.4429Y-2.9681
X5.4429Y-3.0681
X5.4429Y-3.1681
X5.6429Y-2.7681
X5.6429Y-2.9681
X5.6429Y-3.0681
X5.6429Y-3.1681
X4.4429Y-4.2681
X4.6429Y-4.4681
X4.9429Y-2.7681
X4.9429Y-2.9681
X4.9429Y-3.0681
X4.9429Y-3.1681
X5.1429Y-2.7681
X5.1429Y-2.9681
X5.1429Y-3.0681
X5.1429Y-3.1681
X4.9429Y-4.4681
X5.1429Y-4.2681
X4.5429Y-3.8681
X4.7429Y-4.0681
X5.9429Y-4.4681
X6.1429Y-4.2681
X4.4429Y-2.6681
X4.6429Y-2.6681
X6.0429Y-3.6681
X6.2429Y-3.4681
X5.4429Y-2.6681
X5.6429Y-2.6681
X5.0429Y-3.6681
X5.2429Y-3.4681
X4.1429Y-4.9681
X4.2429Y-4.9681
X4.3429Y-4.9681
X4.4429Y-4.9681
X4.5429Y-4.9681
X4.6429Y-4.9681
X4.7429Y-4.9681
X4.8429Y-4.9681
X5.0429Y-3.8681
X5.2429Y-4.0681
X3.9429Y-3.5681
X3.9429Y-3.6681
X4.1429Y-3.2681
X4.1429Y-3.3681
X5.4429Y-4.2681
X5.6429Y-4.4681
X4.4429Y-2.7681
X4.4429Y-2.9681
X4.4429Y-3.0681
X4.4429Y-3.1681
X4.6429Y-2.7681
X4.6429Y-2.9681
X4.6429Y-3.0681
X4.6429Y-3.1681
X5.9429Y-2.6681
X6.1429Y-2.6681
X5.9429Y-2.7681
X5.9429Y-2.9681
X5.9429Y-3.0681
X5.9429Y-3.1681
X6.1429Y-2.7681
X6.1429Y-2.9681
X6.1429Y-3.0681
X6.1429Y-3.1681
X4.5429Y-3.6681
X4.7429Y-3.4681
T7
X6.2429Y-2.4681
X6.3429Y-2.4681
T8
X4.5429Y-2.2681
X4.9429Y-2.2681
T9
X6.4929Y-2.1681
X6.4929Y-4.9181
X2.9429Y-2.1681
X2.9429Y-4.9181
T4
G00X5.7539Y-2.3567
M15
G01X5.7539Y-2.4433
M16
G05
G00X5.9862Y-2.2898
M15
G01X5.8996Y-2.2898
M16
G05
G00X5.9941Y-2.5181
M15
G01X5.8917Y-2.5181
M16
G05
T0
M30
